<svg height="696" viewBox="0 0 769 696" width="769" xmlns="http://www.w3.org/2000/svg"><path d="m14.716 312.463 324.024-227.089a13.672 13.672 0 0 1 17.213 1.51l198.1 198.7a13.507 13.507 0 0 1 -1.812 20.535l-324.026 226.487a13.672 13.672 0 0 1 -17.215-1.506l-198.1-198.1a13.507 13.507 0 0 1 1.816-20.537z" opacity=".2" transform="translate(-4.769 161.04)"/><path d="m223.727 530.8a15.967 15.967 0 0 1 -11.475-4.832l-198.1-198.1a17.046 17.046 0 0 1 -4.832-12.985 16.213 16.213 0 0 1 6.946-12.079l324.025-227.084a17.245 17.245 0 0 1 9.361-3.02 15.967 15.967 0 0 1 11.475 4.832l198.1 198.7a17.046 17.046 0 0 1 4.832 12.985 16.212 16.212 0 0 1 -6.946 12.079l-324.024 226.789a16.954 16.954 0 0 1 -9.362 2.715z" fill="#fff" transform="translate(-4.206 140.195)"/><g fill="#33364f"><path d="m351.718 77.74a12.557 12.557 0 0 1 9.361 3.926l198.1 198.7a13.507 13.507 0 0 1 -1.812 20.535l-324.024 226.486a14.807 14.807 0 0 1 -7.549 2.416 12.557 12.557 0 0 1 -9.361-3.926l-198.1-198.1a13.525 13.525 0 0 1 1.812-20.535l324.024-227.087a13.214 13.214 0 0 1 7.549-2.416m0-6.04a18.976 18.976 0 0 0 -11.173 3.624l-324.024 227.089a19.254 19.254 0 0 0 -8.153 14.193 18.416 18.416 0 0 0 5.738 15.4l198.094 198.095a19.387 19.387 0 0 0 13.891 5.738 18.976 18.976 0 0 0 11.173-3.624l324.028-226.782a19.293 19.293 0 0 0 2.416-29.594l-198.1-198.7a21.652 21.652 0 0 0 -13.89-5.438z" transform="translate(-6.272 138.175)"/><path d="m207.659 211.929-208.366-208.365 4.271-4.271 208.365 208.366z" transform="translate(42.038 420.738)"/><path d="m2.89 163.272-3.463-4.948 227.39-159.143 3.463 4.948z" transform="translate(141.962 234.19)"/><path d="m2.886 246.319-3.459-4.951 346.673-242.188 3.459 4.951z" transform="translate(205.379 417.189)"/><path d="m2.855 37.371-3.422-4.977 48.317-33.218 3.422 4.977z" transform="translate(36.283 462.779)"/><path d="m2.855 37.371-3.422-4.977 48.317-33.218 3.422 4.977z" transform="translate(75.54 502.037)"/><path d="m2.869 58.5-3.438-4.966 78.514-54.356 3.438 4.966z" transform="translate(105.733 429.565)"/><path d="m2.855 37.371-3.422-4.977 48.317-33.218 3.422 4.977z" transform="translate(114.797 541.294)"/><path d="m2.023 26.179a3.02 3.02 0 0 1 -1.735-5.494l30.198-21.139a3.02 3.02 0 1 1 3.464 4.948l-30.198 21.138a3.006 3.006 0 0 1 -1.729.547z" transform="translate(153.179 341.632)"/><path d="m207.659 211.929-208.366-208.365 4.271-4.271 208.365 208.366z" transform="translate(117.533 366.382)"/><path d="m23.451 27.722-24.158-24.158 4.271-4.271 24.158 24.158z" transform="translate(205.107 305.986)"/><path d="m2.023 41.278a3.02 3.02 0 0 1 -1.744-5.488l51.336-36.237a3.02 3.02 0 1 1 3.485 4.934l-51.339 36.238a3.006 3.006 0 0 1 -1.738.553z" transform="translate(65.605 386.929)"/><path d="m2.023 32.218a3.02 3.02 0 0 1 -1.723-5.503l39.258-27.178a3.02 3.02 0 1 1 3.442 4.963l-39.261 27.181a3.006 3.006 0 0 1 -1.716.537z" transform="translate(77.684 408.067)"/><path d="m2.023 41.278a3.02 3.02 0 0 1 -1.744-5.488l51.336-36.237a3.02 3.02 0 1 1 3.485 4.934l-51.339 36.238a3.006 3.006 0 0 1 -1.738.553z" transform="translate(89.763 411.087)"/><path d="m2.023 35.238a3.02 3.02 0 0 1 -1.758-5.477l42.277-30.198a3.02 3.02 0 0 1 3.51 4.915l-42.277 30.197a3.006 3.006 0 0 1 -1.752.563z" transform="translate(101.843 429.206)"/></g><path d="m2.023 86.574a3.02 3.02 0 0 1 -1.723-5.502l117.773-81.535a3.02 3.02 0 0 1 3.438 4.963l-117.772 81.537a3.006 3.006 0 0 1 -1.716.537z" fill="#96acc4" transform="translate(174.316 317.763)"/><path d="m22.989 156.04 18.421 7.852-13.589 10.266zm0-6.04a6.36 6.36 0 0 0 -3.926 1.51 5.794 5.794 0 0 0 -1.812 6.04l4.53 18.119a6.113 6.113 0 0 0 3.926 4.228 4.477 4.477 0 0 0 2.114.3 5.8 5.8 0 0 0 3.624-1.208l13.589-10.267a5.56 5.56 0 0 0 2.416-5.436 6 6 0 0 0 -3.624-4.832l-18.426-7.854a7.108 7.108 0 0 0 -2.416-.6z" fill="#33364f" transform="translate(11.418 296.582)"/><path d="m47.817 169.04 8.757 8.455-12.074 8.455-8.46-8.45 11.777-8.455m0-6.04a5.8 5.8 0 0 0 -3.624 1.208l-11.777 8.455a5.324 5.324 0 0 0 -2.416 4.525 6.858 6.858 0 0 0 1.812 4.832l8.455 8.455a5.962 5.962 0 0 0 4.228 1.812 5.8 5.8 0 0 0 3.624-1.208l12.081-8.455a5.324 5.324 0 0 0 2.416-4.53 6.858 6.858 0 0 0 -1.812-4.832l-8.757-8.455a5.962 5.962 0 0 0 -4.23-1.812z" fill="#33364f" transform="translate(37.625 322.839)"/><path d="m57.6 183.04a8.543 8.543 0 0 1 6.04 2.718 7.764 7.764 0 0 1 -.6 11.173 8.2 8.2 0 0 1 -5.134 1.812 8.543 8.543 0 0 1 -6.04-2.718 7.764 7.764 0 0 1 .6-11.173 8.2 8.2 0 0 1 5.134-1.812m0-6.04a13.569 13.569 0 0 0 -9.965 22.95 13.7 13.7 0 1 0 20.535-18.119 13.974 13.974 0 0 0 -10.57-4.831z" fill="#33364f" transform="translate(65.893 351.116)"/><path d="m2.022 14.1a3.02 3.02 0 0 1 -1.814-5.437l12.079-9.063a3.02 3.02 0 0 1 3.624 4.832l-12.079 9.068a3.007 3.007 0 0 1 -1.81.6z" fill="#f4d152" transform="translate(216.595 411.344)"/><path d="m2.022 14.1a3.02 3.02 0 0 1 -1.814-5.437l12.079-9.063a3.02 3.02 0 0 1 3.624 4.832l-12.079 9.068a3.007 3.007 0 0 1 -1.81.6z" fill="#e9eaec" transform="translate(292.089 411.344)"/><path d="m2.023 26.179a3.02 3.02 0 0 1 -1.735-5.494l30.198-21.139a3.02 3.02 0 1 1 3.464 4.948l-30.198 21.138a3.006 3.006 0 0 1 -1.729.547z" fill="#96acc4" transform="translate(240.753 381.146)"/><path d="m2.023 23.159a3.02 3.02 0 0 1 -1.678-5.533l27.178-18.119a3.02 3.02 0 0 1 3.35 5.025l-27.173 18.119a3.006 3.006 0 0 1 -1.677.508z" fill="#e9eaec" transform="translate(298.129 456.641)"/><path d="m2.023 26.179a3.02 3.02 0 0 1 -1.735-5.494l30.198-21.139a3.02 3.02 0 1 1 3.464 4.948l-30.198 21.138a3.006 3.006 0 0 1 -1.729.547z" fill="#96acc4" transform="translate(276.99 435.502)"/><path d="m2.023 17.119a3.02 3.02 0 0 1 -1.678-5.532l18.119-12.08a3.02 3.02 0 1 1 3.35 5.025l-18.114 12.08a3.006 3.006 0 0 1 -1.677.507z" fill="#f4d152" transform="translate(261.891 429.463)"/><path d="m2.022 14.1a3.02 3.02 0 0 1 -1.814-5.437l12.079-9.063a3.02 3.02 0 0 1 3.624 4.832l-12.079 9.068a3.007 3.007 0 0 1 -1.81.6z" fill="#f4d152" transform="translate(243.773 417.384)"/><path d="m2.023 32.218a3.02 3.02 0 0 1 -1.723-5.503l39.258-27.178a3.02 3.02 0 1 1 3.442 4.963l-39.261 27.181a3.006 3.006 0 0 1 -1.716.537z" fill="#e9eaec" transform="translate(307.188 483.819)"/><path d="m2.023 20.139a3.02 3.02 0 0 1 -1.758-5.477l21.135-15.099a3.02 3.02 0 0 1 3.51 4.915l-21.135 15.098a3.006 3.006 0 0 1 -1.752.563z" fill="#96acc4" transform="translate(264.911 396.245)"/><path d="m148.384 121.021a15.77 15.77 0 0 1 11.178 4.748l.012.012 5.642 5.707a3.02 3.02 0 1 1 -4.3 4.246l-5.633-5.7a9.774 9.774 0 0 0 -6.9-2.976 1.844 1.844 0 0 0 -1.027.058 9.6 9.6 0 0 0 -4.5 1.743l-9.6 6.752a3.02 3.02 0 0 1 -3.475-4.94l9.593-6.749a15.784 15.784 0 0 1 7.3-2.808 5.034 5.034 0 0 0 1.705-.1zm-31.684 19.528a3.02 3.02 0 0 1 1.74 5.49l-14.819 10.425a3.02 3.02 0 1 1 -3.475-4.94l14.824-10.424a3.006 3.006 0 0 1 1.73-.551zm59.1 2.928a3.01 3.01 0 0 1 2.148.9l12.738 12.885a3.02 3.02 0 1 1 -4.3 4.246l-12.727-12.888a3.02 3.02 0 0 1 2.147-5.143zm-88.733 17.923a3.02 3.02 0 0 1 1.74 5.49l-6.044 4.252-.013.009a10.462 10.462 0 0 0 -4.438 6.8 3.02 3.02 0 0 1 -5.951-1.03 16.454 16.454 0 0 1 6.934-10.721l6.037-4.247a3.006 3.006 0 0 1 1.735-.553zm114.216 7.848a3.011 3.011 0 0 1 2.148.9l12.738 12.885a3.02 3.02 0 0 1 -4.3 4.246l-12.734-12.889a3.02 3.02 0 0 1 2.147-5.143zm-118.4 20.664a3.01 3.01 0 0 1 2.151.9l12.72 12.9a3.02 3.02 0 1 1 -4.3 4.24l-12.72-12.9a3.02 3.02 0 0 1 2.15-5.14zm143.877 5.107a3.011 3.011 0 0 1 2.148.9l12.736 12.881a3.02 3.02 0 0 1 -4.3 4.246l-12.738-12.885a3.02 3.02 0 0 1 2.147-5.143zm-118.438 20.7a3.01 3.01 0 0 1 2.151.9l12.72 12.9a3.02 3.02 0 1 1 -4.3 4.24l-12.72-12.9a3.02 3.02 0 0 1 2.15-5.14zm143.914 5.071a3.01 3.01 0 0 1 2.148.9l9.677 9.788.042.043a16.975 16.975 0 0 1 3 4.336 3.02 3.02 0 1 1 -5.443 2.617 10.937 10.937 0 0 0 -1.919-2.773l-9.654-9.766a3.02 3.02 0 0 1 2.147-5.143zm-118.476 20.735a3.01 3.01 0 0 1 2.151.9l12.72 12.9a3.02 3.02 0 1 1 -4.3 4.24l-12.72-12.9a3.02 3.02 0 0 1 2.15-5.14zm126.8 8.937a3.02 3.02 0 0 1 1.875 5.389c-.181.143-.368.285-.556.421l-.03.022-14.314 10.142a3.02 3.02 0 0 1 -3.492-4.928l14.3-10.131c.117-.086.234-.174.347-.264a3.007 3.007 0 0 1 1.866-.651zm-101.36 16.87a3.01 3.01 0 0 1 2.151.9l12.72 12.9a3.02 3.02 0 0 1 -4.3 4.24l-12.72-12.9a3.02 3.02 0 0 1 2.15-5.14zm71.8 4.095a3.02 3.02 0 0 1 1.748 5.484l-14.784 10.475a3.02 3.02 0 0 1 -3.492-4.928l14.784-10.475a3.006 3.006 0 0 1 1.744-.556zm-29.568 20.95a3.02 3.02 0 0 1 1.748 5.484l-1.428 1.012a15.755 15.755 0 0 1 -9.132 2.91 16.082 16.082 0 0 1 -9.732-3.321 3.02 3.02 0 0 1 3.677-4.792 9.874 9.874 0 0 0 6.055 2.074 9.743 9.743 0 0 0 5.645-1.8l1.423-1.009a3.006 3.006 0 0 1 1.743-.558z" fill="#f06161" transform="translate(123.094 238.049)"/><path d="m82.218 179.76 132.569 134.985a14 14 0 0 0 18.723 1.812l76.7-54.054c7.55-5.436 8.455-16.911 2.114-23.856l-132.868-134.079a14 14 0 0 0 -18.723-1.812l-76.401 53.144a16.327 16.327 0 0 0 -2.114 23.86z" opacity=".059" transform="translate(134.584 195.554)"/><path d="m89.747 172.979 177.262 180.886a19.041 19.041 0 0 0 25.366 2.416l102.673-72.475c9.965-7.549 11.173-22.648 2.718-32.01l-177.866-179.678a18.652 18.652 0 0 0 -25.064-2.418l-102.371 71.269a21.816 21.816 0 0 0 -2.718 32.01z" fill="#fff" transform="translate(146.685 126.841)"/><path d="m208.129 64.961a21.536 21.536 0 0 1 15.977 7.092l8.141 8.224a3.02 3.02 0 0 1 -4.292 4.249l-8.181-8.264q-.041-.041-.08-.084a15.567 15.567 0 0 0 -11.565-5.178 16.017 16.017 0 0 0 -9.491 3.16l-.056.04-9.415 6.554a3.02 3.02 0 0 1 -3.451-4.957l9.387-6.535a22.014 22.014 0 0 1 13.026-4.301zm-35.56 20.647a3.02 3.02 0 0 1 1.728 5.5l-22.305 15.528a3.02 3.02 0 0 1 -3.451-4.957l22.305-15.529a3.006 3.006 0 0 1 1.723-.542zm70.279 6.651a3.011 3.011 0 0 1 2.146.9l19.12 19.315a3.02 3.02 0 0 1 -4.292 4.249l-19.122-19.323a3.02 3.02 0 0 1 2.146-5.144zm-107.455 19.229a3.02 3.02 0 0 1 1.728 5.5l-22.305 15.528a3.02 3.02 0 0 1 -3.451-4.957l22.305-15.528a3.006 3.006 0 0 1 1.723-.543zm139.322 12.962a3.011 3.011 0 0 1 2.146.9l19.12 19.315a3.02 3.02 0 1 1 -4.292 4.249l-19.12-19.315a3.02 3.02 0 0 1 2.146-5.144zm-176.5 12.918a3.02 3.02 0 0 1 1.728 5.5l-3.683 2.564a18.761 18.761 0 0 0 -7.09 17.157 3.02 3.02 0 1 1 -6 .723 24.817 24.817 0 0 1 9.485-22.73q.048-.037.1-.071l3.735-2.6a3.006 3.006 0 0 1 1.728-.542zm208.364 19.274a3.01 3.01 0 0 1 2.146.9l19.12 19.315a3.02 3.02 0 0 1 -4.292 4.249l-19.12-19.315a3.02 3.02 0 0 1 2.146-5.144zm-211.585 18.63a3.01 3.01 0 0 1 2.157.906l19.022 19.411a3.02 3.02 0 0 1 -4.314 4.227l-19.022-19.41a3.02 3.02 0 0 1 2.157-5.133zm243.455 13.562a3.011 3.011 0 0 1 2.146.9l19.12 19.315a3.02 3.02 0 1 1 -4.292 4.249l-19.123-19.32a3.02 3.02 0 0 1 2.146-5.144zm-211.749 18.79a3.011 3.011 0 0 1 2.157.906l19.022 19.411a3.02 3.02 0 0 1 -4.314 4.227l-19.022-19.411a3.02 3.02 0 0 1 2.157-5.133zm243.618 13.4a3.01 3.01 0 0 1 2.146.9l19.12 19.315a3.02 3.02 0 1 1 -4.292 4.249l-19.122-19.318a3.02 3.02 0 0 1 2.146-5.144zm-211.918 18.952a3.011 3.011 0 0 1 2.157.906l19.022 19.411a3.02 3.02 0 1 1 -4.314 4.227l-19.019-19.41a3.02 3.02 0 0 1 2.157-5.133zm243.457 13.517a3.017 3.017 0 0 1 2.534 1.374 25.314 25.314 0 0 1 -1.086 29 3.02 3.02 0 0 1 -4.776-3.7 19.277 19.277 0 0 0 .8-22.006 3.02 3.02 0 0 1 2.529-4.667zm-211.751 18.836a3.011 3.011 0 0 1 2.157.906l19.022 19.411a3.02 3.02 0 0 1 -4.314 4.227l-19.021-19.411a3.02 3.02 0 0 1 2.157-5.133zm196.6 17.792a3.02 3.02 0 0 1 1.744 5.487l-22.2 15.673a3.02 3.02 0 0 1 -3.483-4.934l22.2-15.673a3.006 3.006 0 0 1 1.733-.553zm-164.896 14.56a3.011 3.011 0 0 1 2.157.906l19.023 19.413a3.02 3.02 0 0 1 -4.314 4.227l-19.022-19.411a3.02 3.02 0 0 1 2.157-5.133zm127.89 11.562a3.02 3.02 0 0 1 1.744 5.487l-22.2 15.673a3.02 3.02 0 1 1 -3.483-4.934l22.2-15.673a3.006 3.006 0 0 1 1.739-.553zm-96.182 20.79a3.01 3.01 0 0 1 2.157.906l15.515 15.832.069.073a16.1 16.1 0 0 0 3.222 2.707 3.02 3.02 0 0 1 -3.242 5.1 22.133 22.133 0 0 1 -4.4-3.682l-15.482-15.8a3.02 3.02 0 0 1 2.157-5.133zm59.176 5.332a3.02 3.02 0 0 1 1.744 5.487l-18.278 12.9a22.565 22.565 0 0 1 -4.788 2.669 3.02 3.02 0 0 1 -2.275-5.595 16.518 16.518 0 0 0 3.521-1.966l.04-.029 18.3-12.916a3.007 3.007 0 0 1 1.732-.55z" fill="#f06161" transform="translate(144.664 124.821)"/><path d="m2.023 11.08a3.02 3.02 0 0 1 -1.678-5.533l9.055-6.04a3.02 3.02 0 1 1 3.35 5.025l-9.05 6.04a3.006 3.006 0 0 1 -1.677.508z" fill="#f06161" transform="translate(255.852 275.453)"/><path d="m2.023 11.08a3.02 3.02 0 0 1 -1.678-5.533l9.055-6.04a3.02 3.02 0 1 1 3.35 5.025l-9.05 6.04a3.006 3.006 0 0 1 -1.677.508z" fill="#f06161" transform="translate(255.852 275.453)"/><path d="m2.023 11.08a3.02 3.02 0 0 1 -1.678-5.533l9.055-6.04a3.02 3.02 0 1 1 3.35 5.025l-9.05 6.04a3.006 3.006 0 0 1 -1.677.508z" fill="#f06161" transform="translate(304.169 296.592)"/><path d="m2.023 26.179a3.02 3.02 0 0 1 -1.735-5.494l30.198-21.139a3.02 3.02 0 1 1 3.464 4.948l-30.198 21.138a3.006 3.006 0 0 1 -1.729.547z" fill="#96acc4" transform="translate(322.287 242.236)"/><path d="m2.023 20.139a3.02 3.02 0 0 1 -1.758-5.477l21.135-15.099a3.02 3.02 0 0 1 3.51 4.915l-21.135 15.098a3.006 3.006 0 0 1 -1.752.563z" fill="#f06161" transform="translate(289.07 272.434)"/><path d="m2.023 20.139a3.02 3.02 0 0 1 -1.758-5.477l21.135-15.099a3.02 3.02 0 0 1 3.51 4.915l-21.135 15.098a3.006 3.006 0 0 1 -1.752.563z" fill="#96acc4" transform="translate(325.307 272.434)"/><path d="m2.023 20.139a3.02 3.02 0 0 1 -1.758-5.477l21.135-15.099a3.02 3.02 0 0 1 3.51 4.915l-21.135 15.098a3.006 3.006 0 0 1 -1.752.563z" fill="#f06161" transform="translate(364.564 347.928)"/><path d="m2.023 11.08a3.02 3.02 0 0 1 -1.678-5.533l9.055-6.04a3.02 3.02 0 1 1 3.35 5.025l-9.05 6.04a3.006 3.006 0 0 1 -1.677.508z" fill="#f06161" transform="translate(319.267 311.691)"/><path d="m2.023 17.119a3.02 3.02 0 0 1 -1.678-5.532l18.119-12.08a3.02 3.02 0 1 1 3.35 5.025l-18.114 12.08a3.006 3.006 0 0 1 -1.677.507z" fill="#96acc4" transform="translate(379.663 314.711)"/><path d="m2.023 17.119a3.02 3.02 0 0 1 -1.678-5.532l18.119-12.08a3.02 3.02 0 1 1 3.35 5.025l-18.114 12.08a3.006 3.006 0 0 1 -1.677.507z" fill="#96acc4" transform="translate(434.02 329.81)"/><path d="m2.023 17.119a3.02 3.02 0 0 1 -1.678-5.532l18.119-12.08a3.02 3.02 0 1 1 3.35 5.025l-18.114 12.08a3.006 3.006 0 0 1 -1.677.507z" fill="#f06161" transform="translate(418.921 366.047)"/><path d="m2.023 17.119a3.02 3.02 0 0 1 -1.678-5.532l18.119-12.08a3.02 3.02 0 1 1 3.35 5.025l-18.114 12.08a3.006 3.006 0 0 1 -1.677.507z" fill="#96acc4" transform="translate(449.119 344.909)"/><path d="m2.023 20.139a3.02 3.02 0 0 1 -1.758-5.477l21.135-15.099a3.02 3.02 0 0 1 3.51 4.915l-21.135 15.098a3.006 3.006 0 0 1 -1.752.563z" fill="#96acc4" transform="translate(367.584 293.572)"/><path d="m2.023 23.159a3.02 3.02 0 0 1 -1.678-5.533l27.178-18.119a3.02 3.02 0 0 1 3.35 5.025l-27.173 18.119a3.006 3.006 0 0 1 -1.677.508z" fill="#f06161" transform="translate(421.94 402.285)"/><path d="m2.023 20.139a3.02 3.02 0 0 1 -1.758-5.477l21.135-15.099a3.02 3.02 0 0 1 3.51 4.915l-21.135 15.098a3.006 3.006 0 0 1 -1.752.563z" fill="#f06161" transform="translate(334.367 317.731)"/><path d="m2.023 17.119a3.02 3.02 0 0 1 -1.678-5.532l18.119-12.08a3.02 3.02 0 1 1 3.35 5.025l-18.114 12.08a3.006 3.006 0 0 1 -1.677.507z" fill="#f06161" transform="translate(349.465 335.849)"/><path d="m2.023 17.119a3.02 3.02 0 0 1 -1.678-5.532l18.119-12.08a3.02 3.02 0 1 1 3.35 5.025l-18.114 12.08a3.006 3.006 0 0 1 -1.677.507z" fill="#f06161" transform="translate(403.822 350.948)"/><path d="m2.023 26.179a3.02 3.02 0 0 1 -1.735-5.494l30.198-21.139a3.02 3.02 0 1 1 3.464 4.948l-30.198 21.138a3.006 3.006 0 0 1 -1.729.547z" fill="#96acc4" transform="translate(461.198 372.087)"/><path d="m2.023 26.179a3.02 3.02 0 0 1 -1.735-5.494l30.198-21.139a3.02 3.02 0 1 1 3.464 4.948l-30.198 21.138a3.006 3.006 0 0 1 -1.729.547z" fill="#96acc4" transform="translate(340.406 281.493)"/><path d="m100.932 138.025 140.42-97.841c9.361-6.342 21.742-5.436 29.594 2.718l226.787 226.182a23.08 23.08 0 0 1 -3.02 35.332l-140.723 98.747a23.379 23.379 0 0 1 -29.9-2.718l-226.48-227.089a23.312 23.312 0 0 1 3.322-35.331z" opacity=".071" transform="translate(160.859 66.717)"/><path d="m116.51 116.044 157.029-105.995c10.267-7.248 29.594-6.04 38.653 3.02l260.308 256.984c12.985 17.817 5.738 33.52-7.55 42.881l-158.238 111.129c-11.475 7.851-24.158 6.342-33.52-3.02l-258.192-259.099c-16.911-16.608-13.287-33.217 1.51-45.9z" fill="#5e6282" transform="translate(186.652 4.748)"/><path d="m292.525 4.341c9.523 0 18.427 3.218 23.82 8.609l260.3 256.974a3.018 3.018 0 0 1 .319.37c6.028 8.271 8.4 16.637 7.037 24.865a29.925 29.925 0 0 1 -5.336 12.565 41.5 41.5 0 0 1 -9.951 9.7l-158.247 111.13-.03.021a30.193 30.193 0 0 1 -16.979 5.584c-7.472 0-14.52-3.1-20.382-8.96l-258.183-259.091c-8.321-8.176-12.389-16.777-12.091-25.564.3-8.744 5.055-17.311 13.762-24.774a3.022 3.022 0 0 1 .276-.21l157-105.977c4.807-3.383 11.44-5.242 18.685-5.242zm279.7 269.706-260.134-256.81-.014-.014c-4.285-4.285-11.594-6.843-19.552-6.843-5.934 0-11.483 1.514-15.224 4.155l-.052.036-156.883 105.9c-7.306 6.3-11.291 13.314-11.527 20.282-.238 7.03 3.226 14.115 10.3 21.06l.023.023 258.192 259.1c4.7 4.7 10.272 7.188 16.107 7.188a23.864 23.864 0 0 0 13.556-4.52l158.216-111.121c7.136-5.028 11.685-11.53 12.8-18.307 1.079-6.511-.878-13.281-5.813-20.129z" fill="#5e6282" transform="translate(184.632 2.728)"/><path d="m390.941 428.187a23.751 23.751 0 0 1 -16.911-6.945l-263.024-263.931a23.871 23.871 0 0 1 -6.946-19.025 23.267 23.267 0 0 1 10.267-17.515l162.768-113.543a24.108 24.108 0 0 1 13.589-4.228 23.751 23.751 0 0 1 16.911 6.946l263.326 262.722a24.039 24.039 0 0 1 -3.02 36.539l-163.371 114.752a24.107 24.107 0 0 1 -13.589 4.228z" fill="#fafafa" transform="translate(187.022 .02)"/><path d="m292.782 8.04a21.035 21.035 0 0 1 14.8 6.04l263.323 262.72a20.492 20.492 0 0 1 6.039 16.609 21.35 21.35 0 0 1 -8.757 15.4l-163.371 114.754a21.344 21.344 0 0 1 -12.079 3.926 20.52 20.52 0 0 1 -14.8-6.04l-263.021-264.232a21.535 21.535 0 0 1 -6.04-16.609 22.4 22.4 0 0 1 8.757-15.4l162.767-113.545a23.521 23.521 0 0 1 12.382-3.623m0-6.04a25.885 25.885 0 0 0 -15.4 4.832l-162.768 113.544a26.829 26.829 0 0 0 -3.624 41.069l263.024 263.93a26.988 26.988 0 0 0 19.025 7.851 25.885 25.885 0 0 0 15.4-4.832l163.372-114.751a27.033 27.033 0 0 0 3.624-41.069l-263.326-262.723a28.232 28.232 0 0 0 -19.327-7.851z" fill="#33364f" transform="translate(185.226 -2)"/><path d="m4.045 31.219a6.04 6.04 0 0 1 -3.469-10.988l30.198-21.139a6.04 6.04 0 0 1 6.927 9.9l-30.201 21.134a6.012 6.012 0 0 1 -3.455 1.093z" fill="#33364f" transform="translate(377.637 59.376)"/><path d="m2.023 19.837a3.02 3.02 0 0 1 -1.735-5.494l21.139-14.797a3.02 3.02 0 0 1 3.463 4.948l-21.138 14.797a3.006 3.006 0 0 1 -1.729.546z" fill="#ccc" transform="translate(452.132 17.005)"/><path d="m2.023 19.837a3.02 3.02 0 0 1 -1.735-5.494l21.139-14.797a3.02 3.02 0 0 1 3.463 4.948l-21.138 14.797a3.006 3.006 0 0 1 -1.729.546z" fill="#ccc" transform="translate(308.691 117.564)"/><path d="m2.023 8.664a3.02 3.02 0 0 1 -1.678-5.533l5.436-3.624a3.02 3.02 0 1 1 3.35 5.025l-5.431 3.624a3.006 3.006 0 0 1 -1.677.508z" fill="#ccc" transform="translate(346.741 101.861)"/><path d="m492.6 236.143c0 9.059-8.757 16.609-19.629 16.609a22.535 22.535 0 0 1 -12.683-3.926l-51.94 36.238a14.126 14.126 0 0 1 2.718 8.455c0 9.059-8.757 16.609-19.629 16.609-10.267 0-19.025-6.945-19.629-15.7l-65.832-5.436c-3.322 5.436-9.965 9.059-17.515 9.059a24.027 24.027 0 0 1 -11.475-3.02l-112.94 78.817a14.54 14.54 0 0 1 2.114 7.247c0 9.059-8.757 16.609-19.629 16.609s-19.631-7.551-19.631-16.611 8.757-16.609 19.629-16.609a20.131 20.131 0 0 1 13.589 4.832l112.034-78.516a14.759 14.759 0 0 1 -3.322-9.361c0-9.059 8.757-16.609 19.629-16.609a21.816 21.816 0 0 1 12.683 3.926l151.594-105.692a14.126 14.126 0 0 1 -2.718-8.455c0-9.059 8.757-16.609 19.629-16.609s19.629 7.549 19.629 16.609-8.757 16.609-19.629 16.609a21.815 21.815 0 0 1 -12.683-3.926l-151.594 105.693a14.126 14.126 0 0 1 2.718 8.455v1.812l64.322 5.436c2.416-6.644 9.965-11.475 18.723-11.475a22.535 22.535 0 0 1 12.683 3.926l51.94-36.238a14.126 14.126 0 0 1 -2.718-8.455c0-9.059 8.757-16.609 19.629-16.609s19.933 7.247 19.933 16.306z" opacity=".122" transform="translate(233.336 272.088)"/><path d="m2.89 88.683-3.463-4.948 120.791-84.554 3.463 4.948z" fill="#33364f" transform="translate(386.558 556.403)"/><path d="m72.392 11.062-72.475-6.04.502-6.022 72.475 6.04z" fill="#33364f" transform="translate(535.518 553.025)"/><path d="m2.885 115.865-3.457-4.952 160.049-111.733 3.457 4.952z" fill="#33364f" transform="translate(528.49 429.57)"/><path d="m2.89 46.406-3.463-4.948 60.395-42.277 3.463 4.948z" fill="#33364f" transform="translate(631.161 511.106)"/><ellipse cx="380.167" cy="647.141" fill="#f4d152" rx="16.609" ry="13.589"/><path d="m18.629-1a21.545 21.545 0 0 1 13.656 4.663 15.358 15.358 0 0 1 5.972 11.946 15.358 15.358 0 0 1 -5.972 11.946 21.545 21.545 0 0 1 -13.657 4.663 21.545 21.545 0 0 1 -13.656-4.663 15.358 15.358 0 0 1 -5.972-11.946 15.358 15.358 0 0 1 5.972-11.946 21.545 21.545 0 0 1 13.657-4.663zm0 27.178c7.493 0 13.589-4.741 13.589-10.569s-6.096-10.569-13.589-10.569-13.589 4.741-13.589 10.569 6.096 10.569 13.589 10.569z" fill="#33364f" transform="translate(361.538 631.533)"/><ellipse cx="703.285" cy="420.657" fill="#f4d152" rx="16.609" ry="13.589"/><path d="m18.629-1a21.545 21.545 0 0 1 13.656 4.663 15.358 15.358 0 0 1 5.972 11.946 15.358 15.358 0 0 1 -5.972 11.946 21.545 21.545 0 0 1 -13.657 4.663 21.545 21.545 0 0 1 -13.656-4.663 15.358 15.358 0 0 1 -5.972-11.946 15.358 15.358 0 0 1 5.972-11.946 21.545 21.545 0 0 1 13.657-4.663zm0 27.178c7.493 0 13.589-4.741 13.589-10.569s-6.096-10.569-13.589-10.569-13.589 4.741-13.589 10.569 6.096 10.569 13.589 10.569z" fill="#33364f" transform="translate(684.656 405.048)"/><ellipse cx="706.305" cy="502.191" fill="#f4d152" rx="16.609" ry="13.589"/><path d="m18.629-1a21.545 21.545 0 0 1 13.656 4.663 15.358 15.358 0 0 1 5.972 11.946 15.358 15.358 0 0 1 -5.972 11.946 21.545 21.545 0 0 1 -13.657 4.663 21.545 21.545 0 0 1 -13.656-4.663 15.358 15.358 0 0 1 -5.972-11.946 15.358 15.358 0 0 1 5.972-11.946 21.545 21.545 0 0 1 13.657-4.663zm0 27.178c7.493 0 13.589-4.741 13.589-10.569s-6.096-10.569-13.589-10.569-13.589 4.741-13.589 10.569 6.096 10.569 13.589 10.569z" fill="#33364f" transform="translate(687.676 486.582)"/><ellipse cx="522.097" cy="547.488" fill="#f4d152" rx="16.609" ry="13.589"/><path d="m18.629-1a21.545 21.545 0 0 1 13.656 4.663 15.358 15.358 0 0 1 5.972 11.946 15.358 15.358 0 0 1 -5.972 11.946 21.545 21.545 0 0 1 -13.657 4.663 21.545 21.545 0 0 1 -13.656-4.663 15.358 15.358 0 0 1 -5.972-11.946 15.358 15.358 0 0 1 5.972-11.946 21.545 21.545 0 0 1 13.657-4.663zm0 27.178c7.493 0 13.589-4.741 13.589-10.569s-6.096-10.569-13.589-10.569-13.589 4.741-13.589 10.569 6.096 10.569 13.589 10.569z" fill="#33364f" transform="translate(503.468 531.879)"/><ellipse cx="624.77" cy="559.567" fill="#f4d152" rx="16.609" ry="13.589"/><path d="m18.629-1a21.545 21.545 0 0 1 13.656 4.663 15.358 15.358 0 0 1 5.972 11.946 15.358 15.358 0 0 1 -5.972 11.946 21.545 21.545 0 0 1 -13.657 4.663 21.545 21.545 0 0 1 -13.656-4.663 15.358 15.358 0 0 1 -5.972-11.946 15.358 15.358 0 0 1 5.972-11.946 21.545 21.545 0 0 1 13.657-4.663zm0 27.178c7.493 0 13.589-4.741 13.589-10.569s-6.096-10.569-13.589-10.569-13.589 4.741-13.589 10.569 6.096 10.569 13.589 10.569z" fill="#33364f" transform="translate(606.141 543.959)"/><path d="m129.42 141.25 164.28-115.05a5.988 5.988 0 0 1 7.851.6l89.386 90.292c2.718 2.718 2.114 6.946-.906 9.361l-163.374 113.547c-2.416 1.51-5.738 1.51-7.549-.6l-89.99-89.084a5.655 5.655 0 0 1 .302-9.066z" fill="#e9eaec" transform="translate(232.536 44.467)"/><path d="m225.019 246.1a7.993 7.993 0 0 1 -6.093-2.62l-89.867-88.962a9.047 9.047 0 0 1 -3.045-7.217 8.566 8.566 0 0 1 3.694-6.508l164.24-115.026a8.882 8.882 0 0 1 5.325-1.761 9.042 9.042 0 0 1 6.43 2.678l.011.011 89.386 90.292a8.769 8.769 0 0 1 2.6 6.751 9.853 9.853 0 0 1 -3.761 7.093l-.163.122-163.499 113.625a10.058 10.058 0 0 1 -5.258 1.522zm74.254-216.054a2.889 2.889 0 0 0 -1.745.586l-.08.058-164.276 115.053a2.528 2.528 0 0 0 -1.13 1.929 3.024 3.024 0 0 0 1.115 2.413l.1.1 90.078 89.171.08.094a2.069 2.069 0 0 0 1.6.616 4 4 0 0 0 2-.575l163.215-113.433a3.8 3.8 0 0 0 1.435-2.654 2.765 2.765 0 0 0 -.847-2.157l-.011-.011-89.377-90.283a3.042 3.042 0 0 0 -2.157-.907z" fill="#33364f" transform="translate(230.516 42.448)"/><path d="m136.532 97.318 70.668-49.218a5.988 5.988 0 0 1 7.851.6l71.569 71.569c2.718 2.718 2.114 6.946-.906 9.361l-70.663 49.223a5.988 5.988 0 0 1 -7.851-.6l-71.272-71.573a5.972 5.972 0 0 1 .604-9.362z" fill="#96acc4" transform="translate(246.563 88.575)"/><path d="m212.771 45.906a9.042 9.042 0 0 1 6.43 2.678l71.569 71.569a8.772 8.772 0 0 1 2.606 6.762 9.854 9.854 0 0 1 -3.761 7.093l-.16.12-70.624 49.2a8.881 8.881 0 0 1 -5.322 1.759 9.042 9.042 0 0 1 -6.43-2.678l-71.219-71.526a8.892 8.892 0 0 1 -2.9-7.121 9.169 9.169 0 0 1 3.861-6.9l70.63-49.2a8.881 8.881 0 0 1 5.32-1.756zm73.14 83.33a3.8 3.8 0 0 0 1.436-2.655 2.765 2.765 0 0 0 -.847-2.157l-71.569-71.569a3.042 3.042 0 0 0 -2.16-.909 2.888 2.888 0 0 0 -1.745.586l-.086.062-70.663 49.223a3.077 3.077 0 0 0 -1.29 2.314 2.81 2.81 0 0 0 .98 2.325l.12.114 71.267 71.569a3.038 3.038 0 0 0 2.155.9 2.888 2.888 0 0 0 1.745-.586l.086-.062z" fill="#33364f" transform="translate(244.543 86.557)"/><path d="m215.634 118.02 59.792-41.673a5.073 5.073 0 0 1 6.644.6l60.7 60.7a5.4 5.4 0 0 1 -.6 7.851l-60.4 41.673a5.073 5.073 0 0 1 -6.644-.6l-60.4-60.7a5.189 5.189 0 0 1 .908-7.851z" fill="#f4d152" transform="translate(406.928 145.994)"/><path d="m280.4 74.38a8.2 8.2 0 0 1 5.821 2.455l60.7 60.7a8.13 8.13 0 0 1 2.276 6.355 8.242 8.242 0 0 1 -3.2 6.048l-.1.07-60.379 41.661a8.072 8.072 0 0 1 -4.69 1.513 8.2 8.2 0 0 1 -5.821-2.455l-60.532-60.847a8.468 8.468 0 0 1 -2.063-6.676 8.014 8.014 0 0 1 3.538-5.658l59.756-41.646a8.072 8.072 0 0 1 4.694-1.52zm62 70.7a2.271 2.271 0 0 0 .768-1.617 2.141 2.141 0 0 0 -.522-1.656l-60.7-60.7a2.207 2.207 0 0 0 -1.551-.686 2.042 2.042 0 0 0 -1.2.4l-.029.02-59.844 41.708a2.024 2.024 0 0 0 -.922 1.451 2.418 2.418 0 0 0 .57 1.844l60.315 60.617a2.2 2.2 0 0 0 1.545.681 2.042 2.042 0 0 0 1.2-.4l.04-.028z" fill="#33364f" transform="translate(404.909 143.975)"/><path d="m215.7 71.815 13.891-9.663a1.348 1.348 0 0 1 1.51 0l12.683 12.683a1.138 1.138 0 0 1 -.3 1.812l-13.584 9.663a1.348 1.348 0 0 1 -1.51 0l-12.69-12.683c-.6-.604-.6-1.51 0-1.812z" fill="#e9eaec" transform="translate(410.785 118.888)"/><path d="m232.482 60.925a3.885 3.885 0 0 1 2.777 1.111l12.683 12.683a4.078 4.078 0 0 1 1.16 3.572 4.2 4.2 0 0 1 -1.976 2.927l-13.651 9.707-.209.1a5 5 0 0 1 -2.219.545 3.885 3.885 0 0 1 -2.777-1.111l-12.682-12.677a4.426 4.426 0 0 1 -1.285-3.811 3.815 3.815 0 0 1 1.812-2.7l13.954-9.707.2-.1a5 5 0 0 1 2.213-.539zm9.6 16.472-9.924-9.924-10.816 7.527 10.021 10.021z" fill="#33364f" transform="translate(408.765 116.87)"/><ellipse cx="526.232" cy="98.747" fill="#f06161" rx="11.475" ry="9.663"/><path d="m13.5-1c7.993 0 14.5 5.69 14.5 12.683s-6.5 12.683-14.5 12.683-14.5-5.689-14.5-12.683 6.5-12.683 14.5-12.683zm0 19.327c4.662 0 8.455-2.98 8.455-6.644s-3.798-6.643-8.455-6.643-8.46 2.98-8.46 6.643 3.793 6.644 8.46 6.644z" fill="#33364f" transform="translate(512.738 87.064)"/><ellipse cx="612.296" cy="212.425" fill="#f4d152" rx="11.475" ry="9.663"/><path d="m13.5-1c7.993 0 14.5 5.69 14.5 12.683s-6.5 12.683-14.5 12.683-14.5-5.689-14.5-12.683 6.5-12.683 14.5-12.683zm0 19.327c4.662 0 8.455-2.98 8.455-6.644s-3.798-6.643-8.455-6.643-8.46 2.98-8.46 6.643 3.793 6.644 8.46 6.644z" fill="#33364f" transform="translate(598.801 200.744)"/><path d="m178.587 77.52 48.619-33.82a4.193 4.193 0 0 1 5.436.6l35.634 35.936a4.174 4.174 0 0 1 -.6 6.342l-48.02 33.822a4.083 4.083 0 0 1 -5.134-.3l-36.237-35.634c-1.812-2.416-1.812-5.436.302-6.946z" fill="#f4d152" transform="translate(333.452 80.717)"/><path d="m231.457 41.953a7.614 7.614 0 0 1 5.338 2.234l35.643 35.945a7.083 7.083 0 0 1 2.041 5.6 7.273 7.273 0 0 1 -3.034 5.324l-.016.012-47.952 33.778a6.772 6.772 0 0 1 -4.132 1.364 7 7 0 0 1 -4.93-1.947l-36.39-35.783-.136-.182a8.956 8.956 0 0 1 -1.839-6.641 6.858 6.858 0 0 1 2.8-4.574l.031-.022 48.549-33.773a6.522 6.522 0 0 1 4.027-1.335zm36.484 44.184a1.227 1.227 0 0 0 .518-.9 1.037 1.037 0 0 0 -.3-.841l-35.643-35.947a1.57 1.57 0 0 0 -1.059-.456.6.6 0 0 0 -.346.084l-.162.121-48.6 33.808a.8.8 0 0 0 -.332.575 2.876 2.876 0 0 0 .587 1.932l36.073 35.471a1.164 1.164 0 0 0 .668.186.766.766 0 0 0 .444-.107l.147-.111z" fill="#33364f" transform="translate(331.433 78.697)"/><ellipse cx="155.103" cy="206.091" opacity=".122" rx="13.589" ry="12.079"/><path d="m98.734 101.488a118.966 118.966 0 0 0 -14.8-12.381c5.134-5.738 8.153-12.079 8.455-18.723.911-13.284-9.358-25.366-23.249-27.784a32.822 32.822 0 0 0 -5.436-.3c-14.797 0-26.272 10.267-31.704 19.025-2.718 4.53-.6 9.965 4.53 12.381a13.677 13.677 0 0 0 4.832.906 10.8 10.8 0 0 0 9.361-4.832c2.718-4.53 8.455-9.361 13.287-9.361h1.208c3.322.6 6.644 4.53 6.342 8.757-.3 4.53-4.228 9.663-9.965 13.287a8.635 8.635 0 0 0 -4.53 7.549c0 3.02 1.812 5.738 4.832 7.549a99.226 99.226 0 0 1 20.837 15.7 11.468 11.468 0 0 0 14.8.6 9.17 9.17 0 0 0 3.624-6.342 7.5 7.5 0 0 0 -2.424-6.031z" opacity=".122" transform="translate(38.252 79.398)"/><path d="m88.782 110.259a8.05 8.05 0 0 1 -5.436-2.114 103.094 103.094 0 0 0 -21.44-16.307 6.767 6.767 0 0 1 -3.624-5.738 7.345 7.345 0 0 1 3.322-6.04c6.644-3.926 10.569-9.361 10.871-14.8a11.047 11.047 0 0 0 -8.757-11.173c-.6 0-1.208-.3-1.812-.3-6.342 0-12.683 5.436-16 10.871a7.88 7.88 0 0 1 -6.644 3.624 10.856 10.856 0 0 1 -3.322-.6 7.667 7.667 0 0 1 -3.926-4.228 6.922 6.922 0 0 1 .6-5.436c5.134-8.155 15.703-17.818 28.986-17.818a27.633 27.633 0 0 1 4.832.3c12.385 2.116 21.746 13.591 20.84 25.67a30.8 30.8 0 0 1 -9.361 19.025 136.282 136.282 0 0 1 16.307 13.287 7.072 7.072 0 0 1 2.114 5.134 6.652 6.652 0 0 1 -2.718 4.832 6.858 6.858 0 0 1 -4.832 1.811z" fill="#f4d152" transform="translate(40.05 75.156)"/><path d="m63.855 45.34a19.937 19.937 0 0 1 4.228.3c10.871 1.813 19.326 12.081 18.417 22.348-.6 6.946-4.53 14.193-11.475 19.629a116.186 116.186 0 0 1 19.025 15.1 3.588 3.588 0 0 1 -.3 5.436 5.1 5.1 0 0 1 -3.02.906 4.541 4.541 0 0 1 -3.322-1.208 100.543 100.543 0 0 0 -22.043-16.611 3.713 3.713 0 0 1 -2.114-3.322 4.173 4.173 0 0 1 1.812-3.318c7.248-4.53 12.079-10.871 12.381-17.213a14.281 14.281 0 0 0 -11.174-14.196c-.906 0-1.51-.3-2.416-.3-7.549 0-14.8 6.04-18.421 12.079a5.162 5.162 0 0 1 -3.926 2.114 2.875 2.875 0 0 1 -2.114-.6 3.759 3.759 0 0 1 -1.812-5.436c5.134-8.153 15.1-15.7 26.272-15.7m0-6.04c-14.5 0-26.272 10.267-31.708 19.327a9.009 9.009 0 0 0 -.906 7.851 11.157 11.157 0 0 0 5.436 6.342 12.117 12.117 0 0 0 4.53.906 10.649 10.649 0 0 0 9.059-4.832c2.718-4.53 8.455-9.361 13.287-9.361h1.208a8.083 8.083 0 0 1 6.341 7.843c-.3 4.228-3.926 9.059-9.663 12.381a10.008 10.008 0 0 0 -4.832 8.455 10.32 10.32 0 0 0 5.134 8.455 99.225 99.225 0 0 1 20.837 15.7 11.915 11.915 0 0 0 7.549 3.02 12.388 12.388 0 0 0 6.644-2.114 9.76 9.76 0 0 0 3.926-7.248 9.387 9.387 0 0 0 -3.02-7.549 105.82 105.82 0 0 0 -13.89-11.773 29.655 29.655 0 0 0 7.852-18.421c.906-13.59-9.664-26.272-23.555-28.69a14.864 14.864 0 0 0 -4.228-.3z" fill="#33364f" transform="translate(38.102 73.338)"/><ellipse cx="155.103" cy="200.057" fill="#f4d152" rx="10.569" ry="9.059"/><path d="m68.389 70.34c4.228 0 7.549 2.718 7.549 6.04s-3.322 6.04-7.549 6.04-7.549-2.72-7.549-6.041 3.322-6.04 7.549-6.04m0-6.04c-7.549.001-13.589 5.437-13.589 12.08s6.04 12.079 13.589 12.079 13.589-5.436 13.589-12.079-6.341-12.079-13.589-12.079z" fill="#33364f" transform="translate(86.714 123.678)"/><ellipse cx="164.163" cy="154.804" opacity=".122" rx="13.589" ry="12.079"/><ellipse cx="164.163" cy="148.77" fill="#f4d152" rx="10.569" ry="9.059"/><path d="m71.389 53.34c4.228 0 7.549 2.718 7.549 6.04s-3.322 6.04-7.549 6.04-7.549-2.72-7.549-6.041 3.322-6.04 7.549-6.04m0-6.04c-7.549.001-13.589 5.437-13.589 12.08s6.04 12.079 13.589 12.079 13.589-5.436 13.589-12.079-6.341-12.079-13.589-12.079z" fill="#33364f" transform="translate(92.774 89.391)"/><path d="m59.757 252.885a9.565 9.565 0 0 1 -9.663 8.757h-.906l-31.406-3.02a9.2 9.2 0 0 1 -6.644-3.622 9.559 9.559 0 0 1 -1.812-7.55l5.134-29.9a10.014 10.014 0 0 1 9.663-8.153h1.812a9.731 9.731 0 0 1 7.851 11.475l-3.321 19.628 20.835 2.118h.6c4.535.604 8.159 5.133 7.857 10.267z" opacity=".122" transform="translate(-5.514 416.301)"/><path d="m67.73 210.642a9.2 9.2 0 0 0 -6.644-3.624l-31.405-2.718h-.906a9.618 9.618 0 0 0 -9.663 9.059 10.16 10.16 0 0 0 8.455 10.569h.6l21.139 1.812-3.322 19.629a9.645 9.645 0 0 0 8.153 11.173h1.51a9.728 9.728 0 0 0 9.663-8.153l4.832-30.2a11.856 11.856 0 0 0 -2.412-7.547zm-41.673.6a1.569 1.569 0 0 1 1.208-.6 1.569 1.569 0 0 0 -1.208.6 1.661 1.661 0 0 0 -.906 1.51 2.567 2.567 0 0 1 .906-1.506z" opacity=".122" transform="translate(14.597 406)"/><path d="m47.122 254.5h-.6l-31.406-3.02a7.847 7.847 0 0 1 -4.832-2.718 6.313 6.313 0 0 1 -1.208-5.134l5.134-29.9a6.791 6.791 0 0 1 6.64-5.728h1.208a6.825 6.825 0 0 1 5.436 7.851l-3.926 22.949 24.158 2.416a6.873 6.873 0 0 1 6.04 7.247c0 3.324-3.02 6.037-6.644 6.037z" fill="#f4d152" transform="translate(-5.864 413.473)"/><path d="m23.226 213.04h.6a3.7 3.7 0 0 1 3.02 4.228l-4.53 25.97 27.48 2.718a3.647 3.647 0 0 1 3.322 3.926 3.86 3.86 0 0 1 -3.618 3.318h-.3l-31.406-3.02a3.079 3.079 0 0 1 -2.416-1.51 3.511 3.511 0 0 1 -.6-3.02l5.134-29.9c-.3-1.51 1.51-2.718 3.322-2.718m0-6.04a9.728 9.728 0 0 0 -9.663 8.153l-5.436 29.9a9.92 9.92 0 0 0 8.455 11.475l31.406 3.02h.906a9.584 9.584 0 0 0 9.663-8.757c.6-5.134-3.02-9.663-8.455-10.569h-.6l-20.849-2.114 3.322-19.629a9.652 9.652 0 0 0 -7.852-11.171c0-.3-.6-.3-.906-.3z" fill="#33364f" transform="translate(-7.937 411.453)"/><path d="m52.937 248.5h-1.208a7.159 7.159 0 0 1 -4.53-2.718 7.68 7.68 0 0 1 -1.208-5.134l3.624-22.95-24.158-2.114c-3.926-.6-6.342-3.624-6.04-7.247a6.584 6.584 0 0 1 6.644-6.04h.6l31.406 2.718a7.847 7.847 0 0 1 4.832 2.718 6.313 6.313 0 0 1 1.208 5.134l-4.832 30.2a6.256 6.256 0 0 1 -6.338 5.433z" fill="#f4d152" transform="translate(15.197 401.96)"/><path d="m28.175 207.34h.3l31.406 2.718a3.079 3.079 0 0 1 2.416 1.51 3.511 3.511 0 0 1 .6 3.02l-4.832 30.2a3.587 3.587 0 0 1 -3.624 3.02h-.6a3.546 3.546 0 0 1 -3.02-4.228l4.228-25.97-27.48-2.416a3.647 3.647 0 0 1 -3.322-3.926c.3-2.416 1.812-3.926 3.926-3.926m0-6.04a9.618 9.618 0 0 0 -9.663 9.059 10.16 10.16 0 0 0 8.455 10.569h.6l21.139 1.812-3.322 19.629a9.645 9.645 0 0 0 8.153 11.173h1.51a9.728 9.728 0 0 0 9.663-8.153l4.832-30.2a10.914 10.914 0 0 0 -1.812-7.55 9.2 9.2 0 0 0 -6.644-3.624l-32.003-2.717z" fill="#33364f" transform="translate(13.385 399.94)"/><path d="m273.257 70.285a9.565 9.565 0 0 1 -9.663 8.757h-.906l-31.406-3.02a9.2 9.2 0 0 1 -6.644-3.624 9.559 9.559 0 0 1 -1.812-7.549l5.134-29.9a10.014 10.014 0 0 1 9.663-8.153h1.812a9.731 9.731 0 0 1 7.852 11.475l-3.322 19.629 20.835 2.118h.6a9.2 9.2 0 0 1 7.857 10.267z" opacity=".122" transform="translate(425.706 48.091)"/><path d="m291.53 20.542a9.2 9.2 0 0 0 -6.644-3.624l-31.405-2.718h-.906a9.618 9.618 0 0 0 -9.663 9.059 10.16 10.16 0 0 0 8.455 10.569h.6l21.139 1.812-3.322 19.629a9.645 9.645 0 0 0 8.153 11.173h1.51a9.728 9.728 0 0 0 9.663-8.153l4.832-30.2a11.856 11.856 0 0 0 -2.412-7.547zm-41.673.6a1.569 1.569 0 0 1 1.208-.6 2.29 2.29 0 0 0 -1.208.6 1.661 1.661 0 0 0 -.906 1.51 2.568 2.568 0 0 1 .906-1.506z" opacity=".122" transform="translate(466.62 22.641)"/><g opacity=".122" transform="translate(684.071 52.544)"><path d="m259.829 66.169a3.321 3.321 0 0 1 -3.02-1.812l-19.931-37.747a3.579 3.579 0 1 1 6.342-3.322l19.931 37.747a3.519 3.519 0 0 1 -1.51 4.832 3.83 3.83 0 0 1 -1.812.302z" transform="translate(-230.442 -15.437)"/><path d="m243.925 25.44a3.321 3.321 0 0 1 3.02 1.812l19.93 37.748a3.519 3.519 0 0 1 -1.51 4.832 3.284 3.284 0 0 1 -1.51.3 3.321 3.321 0 0 1 -3.02-1.812l-19.935-37.747a3.519 3.519 0 0 1 1.51-4.832 13.077 13.077 0 0 1 1.51-.3m0-6.04a8.522 8.522 0 0 0 -4.53 1.208 9.575 9.575 0 0 0 -4.53 5.738 9.971 9.971 0 0 0 .6 7.248l19.94 37.745a9.554 9.554 0 0 0 8.455 5.134 8.522 8.522 0 0 0 4.53-1.208 9.725 9.725 0 0 0 3.926-12.985l-19.931-37.747a9.922 9.922 0 0 0 -8.455-5.134z" transform="translate(-234.469 -19.4)"/></g><path d="m260.722 71.9h-.6l-31.406-3.02a7.847 7.847 0 0 1 -4.832-2.718 6.312 6.312 0 0 1 -1.208-5.134l5.134-29.9a6.791 6.791 0 0 1 6.64-5.728h1.208a6.825 6.825 0 0 1 5.436 7.851l-3.926 22.949 24.158 2.416a6.873 6.873 0 0 1 6.04 7.248 6.6 6.6 0 0 1 -6.644 6.036z" fill="#f4d152" transform="translate(425.557 45.263)"/><path d="m236.524 30.44h.6a3.7 3.7 0 0 1 3.02 4.228l-4.53 25.97 27.48 2.718a3.647 3.647 0 0 1 3.322 3.926 3.86 3.86 0 0 1 -3.616 3.318h-.3l-31.406-3.02a3.079 3.079 0 0 1 -2.416-1.51 3.511 3.511 0 0 1 -.6-3.02l5.134-29.9c0-1.51 1.51-2.718 3.322-2.718m0-6.04a9.728 9.728 0 0 0 -9.663 8.153l-5.134 29.9a9.92 9.92 0 0 0 8.455 11.475l31.406 3.02h.906a9.584 9.584 0 0 0 9.663-8.757c.6-5.134-3.02-9.663-8.455-10.569h-.6l-20.851-2.114 3.322-19.629a9.652 9.652 0 0 0 -7.852-11.171c0-.3-.6-.3-1.208-.3z" fill="#33364f" transform="translate(423.484 43.243)"/><path d="m276.737 58.4h-1.208a7.1 7.1 0 0 1 -5.738-7.851l3.624-22.95-24.158-2.114c-3.926-.6-6.342-3.624-6.04-7.248a6.584 6.584 0 0 1 6.644-6.04h.6l31.406 2.718a7.847 7.847 0 0 1 4.832 2.718 6.313 6.313 0 0 1 1.208 5.134l-4.832 29.9a6.272 6.272 0 0 1 -6.338 5.733z" fill="#f4d152" transform="translate(467.221 18.602)"/><path d="m251.975 17.24h.3l31.406 2.718a3.079 3.079 0 0 1 2.416 1.51 3.512 3.512 0 0 1 .6 3.02l-4.832 30.2a3.587 3.587 0 0 1 -3.624 3.02h-.6a3.546 3.546 0 0 1 -3.02-4.228l4.228-25.97-27.48-2.416a3.647 3.647 0 0 1 -3.322-3.926 4.2 4.2 0 0 1 3.926-3.926m0-6.04a9.618 9.618 0 0 0 -9.663 9.059 10.16 10.16 0 0 0 8.455 10.569h.6l21.139 1.812-3.322 19.629a9.645 9.645 0 0 0 8.153 11.173h1.51a9.728 9.728 0 0 0 9.663-8.153l4.832-30.2a10.914 10.914 0 0 0 -1.812-7.549 9.2 9.2 0 0 0 -6.644-3.624l-31.399-2.718z" fill="#33364f" transform="translate(465.409 16.582)"/><path d="m2.023 126.738a3.02 3.02 0 0 1 -1.73-5.5l174.544-121.695a3.02 3.02 0 0 1 3.454 4.957l-174.544 121.695a3.006 3.006 0 0 1 -1.724.543z" fill="#ccc" transform="translate(493.409 203.426)"/><path d="m3.034 43.8a4.53 4.53 0 0 1 -2.6-8.245l51.945-36.24a4.53 4.53 0 1 1 5.184 7.43l-51.941 36.237a4.509 4.509 0 0 1 -2.588.818z" fill="#33364f" transform="translate(541.925 337.295)"/><path d="m3.034 43.8a4.53 4.53 0 0 1 -2.6-8.245l51.945-36.24a4.53 4.53 0 1 1 5.184 7.43l-51.941 36.237a4.509 4.509 0 0 1 -2.588.818z" fill="#33364f" transform="translate(333.561 124.103)"/><path d="m3.034 52.857a4.53 4.53 0 0 1 -2.6-8.239l64.62-45.297a4.53 4.53 0 1 1 5.2 7.418l-64.624 45.297a4.509 4.509 0 0 1 -2.596.821z" fill="#33364f" transform="translate(565.177 349.96)"/><path d="m3.034 67.956a4.53 4.53 0 0 1 -2.6-8.242l86.366-60.396a4.53 4.53 0 1 1 5.192 7.424l-86.366 60.396a4.509 4.509 0 0 1 -2.592.818z" fill="#33364f" transform="translate(519.578 289.619)"/><path d="m261.931 68.633a6.474 6.474 0 0 1 -5.738-3.322l-19.93-37.748a6.241 6.241 0 0 1 2.718-8.757 5.826 5.826 0 0 1 3.019-.906 6.475 6.475 0 0 1 5.738 3.322l19.931 37.747a6.171 6.171 0 0 1 -2.718 8.757 3.65 3.65 0 0 1 -3.02.907z" fill="#f4d152" transform="translate(451.526 30.115)"/><path d="m243.974 23.04a3.321 3.321 0 0 1 3.02 1.812l19.93 37.748a3.519 3.519 0 0 1 -1.51 4.832 3.284 3.284 0 0 1 -1.51.3 3.321 3.321 0 0 1 -3.02-1.812l-19.93-37.747a3.519 3.519 0 0 1 1.51-4.832 2.263 2.263 0 0 1 1.51-.3m0-6.04a8.522 8.522 0 0 0 -4.53 1.208 9.725 9.725 0 0 0 -3.926 12.985l19.931 37.746a9.554 9.554 0 0 0 8.455 5.134 8.522 8.522 0 0 0 4.53-1.208 9.725 9.725 0 0 0 3.926-12.985l-19.931-37.747a9.337 9.337 0 0 0 -8.455-5.134z" fill="#33364f" transform="translate(449.553 28.297)"/><path d="m140.51 88.641a10.72 10.72 0 0 1 -5.436 6.04 47.467 47.467 0 0 1 -20.535 4.53 51.675 51.675 0 0 1 -36.239-14.797 51.777 51.777 0 0 1 -9.964-57.074 10.759 10.759 0 0 1 9.664-6.04 12.117 12.117 0 0 1 4.53.906 10.719 10.719 0 0 1 5.436 6.04 10.9 10.9 0 0 1 -.3 8.153c-4.835 10.871-2.419 24.762 5.734 33.218a30.9 30.9 0 0 0 33.218 6.04 10.658 10.658 0 0 1 4.228-.906 10.528 10.528 0 0 1 9.663 6.342 9.376 9.376 0 0 1 .001 7.548z" opacity=".122" transform="translate(105.885 36.982)"/><path d="m149.73 85.179a10.367 10.367 0 0 1 -9.361 5.738 9.562 9.562 0 0 1 -4.832-1.208 10.72 10.72 0 0 1 -5.436-6.04 10.963 10.963 0 0 1 .6-8.153c5.436-10.871 2.718-25.668-5.738-34.124-5.134-5.134-12.683-7.851-20.837-7.851a29.169 29.169 0 0 0 -13.589 3.322 9.926 9.926 0 0 1 -5.134 1.208 10.665 10.665 0 0 1 -9.361-5.436 9.671 9.671 0 0 1 -.906-8.153 11.839 11.839 0 0 1 5.134-6.342 49.978 49.978 0 0 1 23.856-6.04 51.909 51.909 0 0 1 35.332 13.891c15.707 15.401 19.935 40.163 10.272 59.188z" opacity=".122" transform="translate(127.769 18.399)"/><path d="m111.511 91.169a48.434 48.434 0 0 1 -34.123-13.891c-13.588-13.891-17.515-35.935-9.362-53.45a7.364 7.364 0 0 1 6.946-4.228 8.934 8.934 0 0 1 3.02.6 7.668 7.668 0 0 1 3.926 4.228 7.58 7.58 0 0 1 -.3 5.738c-5.438 11.78-2.718 27.181 6.339 36.543 5.738 6.04 14.5 9.361 23.554 9.361a31.274 31.274 0 0 0 12.989-2.718 10.729 10.729 0 0 1 3.02-.6 7.6 7.6 0 0 1 3.322 14.5 52.58 52.58 0 0 1 -19.331 3.917z" fill="#f4d152" transform="translate(105.893 33.548)"/><path d="m77 24.54a3.83 3.83 0 0 1 1.812.3 4.216 4.216 0 0 1 2.114 6.04c-6.04 12.985-3.02 29.9 6.946 39.861a36.839 36.839 0 0 0 25.667 10.269 33.343 33.343 0 0 0 14.193-3.02 3.83 3.83 0 0 1 1.812-.3 4.555 4.555 0 0 1 4.228 2.718 4.809 4.809 0 0 1 -2.114 6.04 41.673 41.673 0 0 1 -18.119 3.926 45.489 45.489 0 0 1 -32.01-12.985 44.779 44.779 0 0 1 -8.757-50.129 4.275 4.275 0 0 1 4.228-2.72m0-6.04a10.759 10.759 0 0 0 -9.663 6.04c-8.757 18.723-4.53 42.277 9.965 57.074a51.675 51.675 0 0 0 36.238 14.8 47.467 47.467 0 0 0 20.535-4.53 9.779 9.779 0 0 0 5.436-6.04 10.9 10.9 0 0 0 -.3-8.153 11.042 11.042 0 0 0 -9.663-6.342 9.645 9.645 0 0 0 -4.228.906 30.394 30.394 0 0 1 -11.777 2.416 31.742 31.742 0 0 1 -21.443-8.458 30.032 30.032 0 0 1 -5.739-33.213 10.843 10.843 0 0 0 .3-8.153 10.72 10.72 0 0 0 -5.436-6.04c-1.208 0-2.718-.3-4.228-.3z" fill="#33364f" transform="translate(103.865 31.326)"/><path d="m138.016 82.977a6.087 6.087 0 0 1 -3.322-.906 8.906 8.906 0 0 1 -3.926-4.228 7.58 7.58 0 0 1 .3-5.738c6.04-12.079 3.322-28.386-6.342-37.747a33.612 33.612 0 0 0 -22.646-8.758 31.861 31.861 0 0 0 -15.1 3.624 8.041 8.041 0 0 1 -3.624.906 7.5 7.5 0 0 1 -6.642-3.93 7.612 7.612 0 0 1 3.02-10.267 47.566 47.566 0 0 1 22.648-5.733 49.239 49.239 0 0 1 33.218 12.985c14.5 13.891 18.421 37.143 9.361 55.262-1.509 2.718-3.925 4.53-6.945 4.53z" fill="#f4d152" transform="translate(130.121 14.562)"/><path d="m104.231 15.34a45.7 45.7 0 0 1 31.1 12.079c13.589 12.985 17.515 35.03 8.757 51.94a4.712 4.712 0 0 1 -3.926 2.416 5.6 5.6 0 0 1 -2.114-.6 4.923 4.923 0 0 1 -2.114-6.04c6.644-13.287 3.624-30.8-6.946-41.069a35.979 35.979 0 0 0 -24.757-9.666 32.411 32.411 0 0 0 -16.609 4.228 5.6 5.6 0 0 1 -2.114.6 4.712 4.712 0 0 1 -3.926-2.416 4.5 4.5 0 0 1 1.812-6.04 39.135 39.135 0 0 1 20.837-5.436m0-6.04a49.109 49.109 0 0 0 -23.856 6.04 11.839 11.839 0 0 0 -5.134 6.342 9.788 9.788 0 0 0 .906 8.153 10.665 10.665 0 0 0 9.361 5.436 14.226 14.226 0 0 0 5.134-1.208 29.169 29.169 0 0 1 13.589-3.322 30.386 30.386 0 0 1 20.535 7.851c8.757 8.455 11.173 23.252 5.738 34.124a10.856 10.856 0 0 0 -.6 8.153 9.779 9.779 0 0 0 5.436 6.04 12.661 12.661 0 0 0 4.832 1.208 10.367 10.367 0 0 0 9.361-5.738c9.663-19.327 5.436-44.089-9.965-58.886-9.068-9.357-22.05-14.189-35.337-14.189z" fill="#33364f" transform="translate(127.971 12.744)"/><path d="m203.289 81.64 15.1 6.342-11.173 8.455-3.926-14.8m0-6.04a6.36 6.36 0 0 0 -3.926 1.51 5.793 5.793 0 0 0 -1.812 6.04l3.926 14.8a6.113 6.113 0 0 0 3.926 4.228 4.477 4.477 0 0 0 2.114.3 5.8 5.8 0 0 0 3.624-1.208l11.173-8.455a5.56 5.56 0 0 0 2.416-5.436 6 6 0 0 0 -3.624-4.832l-15.1-6.342a4.488 4.488 0 0 0 -2.718-.6z" fill="#33364f" transform="translate(375.582 146.456)"/><g opacity=".122" transform="translate(15.987 260.042)"><path d="m68.464 135.536a14.7 14.7 0 0 0 -3.624.3l-11.475-11.474a26.6 26.6 0 0 0 .6-5.134c0-10.871-9.059-19.629-20.535-19.629-11.173 0-20.535 8.757-20.535 19.629s9.059 19.629 20.535 19.629a17.219 17.219 0 0 0 3.926-.3l11.173 11.173a17.1 17.1 0 0 0 -.906 5.436c0 10.871 9.059 19.629 20.535 19.629 11.173 0 20.535-8.757 20.535-19.629.307-10.873-8.754-19.63-20.229-19.63z" transform="translate(-12.9 -65.174)"/><path d="m102.933 116.586h-1.812l-24.762-25.064a10.292 10.292 0 0 0 -7.55-3.322 9.231 9.231 0 0 0 -6.04 2.114l-12.683 8.757-.906-1.208a10.966 10.966 0 0 0 -7.851-3.322 5.887 5.887 0 0 0 -2.416.3 10.606 10.606 0 0 0 -7.549 7.549l-4.53 16.61a10.814 10.814 0 0 0 10.266 13.591h1.208l18.421-1.812a10.566 10.566 0 0 0 8.455-15.7l3.02-2.114 16 16.609a17.717 17.717 0 0 0 -1.204 6.943c0 10.871 9.059 19.629 20.535 19.629s20.535-8.757 20.535-19.629a21.388 21.388 0 0 0 -21.137-19.931z" transform="translate(14.537 -88.2)"/></g><path d="m66.344 166.851c-9.663 0-17.515-7.549-17.515-16.609a13.52 13.52 0 0 1 1.208-6.04l-13.589-13.588a14.127 14.127 0 0 1 -5.134.6c-9.663 0-17.515-7.549-17.515-16.609s7.852-16.605 17.516-16.605 17.515 7.549 17.515 16.609a12.255 12.255 0 0 1 -1.208 5.738l13.891 13.891a23.31 23.31 0 0 1 4.53-.6c9.663 0 17.515 7.549 17.515 16.609a16.892 16.892 0 0 1 -17.214 16.604zm0-17.817c-1.208 0-2.416.6-2.416 1.51s.906 1.51 2.416 1.51c1.208 0 2.416-.6 2.416-1.51s-.906-1.509-2.416-1.509zm-34.727-35.634c-1.208 0-2.416.6-2.416 1.51 0 .6.906 1.51 2.416 1.51s2.416-.906 2.416-1.51-.906-1.51-2.416-1.51z" fill="#f4d152" transform="translate(4.905 191.637)"/><path d="m33.435 103.14c7.851 0 14.5 6.04 14.5 13.589a11.164 11.164 0 0 1 -1.812 6.342l16.609 16.609a15.794 15.794 0 0 1 5.436-.906c7.851 0 14.5 6.04 14.5 13.589s-6.342 13.589-14.5 13.589c-7.851 0-14.5-6.04-14.5-13.589a12.175 12.175 0 0 1 1.812-6.644l-16.308-16.609a17.659 17.659 0 0 1 -5.738 1.208c-7.851 0-14.5-6.04-14.5-13.589a14.331 14.331 0 0 1 14.5-13.589m0 17.817c3.02 0 5.436-2.114 5.436-4.53s-2.416-4.53-5.436-4.53-5.434 2.114-5.434 4.53 2.718 4.53 5.436 4.53m34.726 35.633c3.02 0 5.436-2.114 5.436-4.53s-2.416-4.53-5.436-4.53-5.436 2.114-5.436 4.53 2.718 4.53 5.436 4.53m-34.727-59.49c-11.173 0-20.535 8.757-20.535 19.629s9.059 19.629 20.535 19.629a15.953 15.953 0 0 0 3.926-.3l10.871 11.173a17.1 17.1 0 0 0 -.906 5.436c0 10.871 9.059 19.629 20.535 19.629 11.173 0 20.535-8.757 20.535-19.629s-9.059-19.629-20.535-19.629a14.7 14.7 0 0 0 -3.624.3l-11.476-11.476a14.127 14.127 0 0 0 .6-5.134c.6-10.871-8.455-19.629-19.931-19.629z" fill="#33364f" transform="translate(3.087 189.819)"/><path d="m101.036 148.1c-9.663 0-17.515-7.549-17.515-16.609a16.372 16.372 0 0 1 1.812-7.549l-19.327-19.927-7.851 5.436.906.906a7.5 7.5 0 0 1 1.51 7.851 7.213 7.213 0 0 1 -6.342 4.832l-18.421 1.812h-.908a7.437 7.437 0 0 1 -5.738-2.718 8.086 8.086 0 0 1 -1.51-6.946l4.53-16.609c.6-2.718 2.718-4.53 5.436-5.436.6 0 1.208-.3 1.812-.3a7.072 7.072 0 0 1 5.436 2.416l2.718 3.02 14.8-10.267a7.215 7.215 0 0 1 4.226-1.512 7.562 7.562 0 0 1 5.436 2.416l25.668 26.272a9.31 9.31 0 0 1 3.02-.3c9.663 0 17.515 7.549 17.515 16.609.302 9.057-7.549 16.603-17.213 16.603zm0-17.817c-1.208 0-2.416.906-2.416 1.51s.906 1.51 2.416 1.51c1.208 0 2.416-.6 2.416-1.51s-.906-1.506-2.416-1.506z" fill="#f4d152" transform="translate(32.421 168.409)"/><path d="m68.943 91.64a4.849 4.849 0 0 1 3.322 1.51l26.876 27.48a7.66 7.66 0 0 1 3.624-.6c7.851 0 14.5 6.04 14.5 13.589s-6.342 13.589-14.5 13.589c-7.851 0-14.5-6.04-14.5-13.589a11.827 11.827 0 0 1 2.718-7.851l-22.644-23.861-12.683 9.059 3.02 3.322a4.606 4.606 0 0 1 .906 4.832 5.14 5.14 0 0 1 -3.926 3.02l-18.421 1.812h-.3a5.572 5.572 0 0 1 -3.624-1.51 5.241 5.241 0 0 1 -.906-4.228l4.53-16.609c.3-1.51 1.812-2.718 3.322-3.322h1.208a4.849 4.849 0 0 1 3.322 1.51l4.53 4.832 16.908-11.778a3.689 3.689 0 0 1 2.718-1.208m33.822 46.2c3.02 0 5.436-2.114 5.436-4.53s-2.416-4.53-5.436-4.53-5.436 2.114-5.436 4.53a5.539 5.539 0 0 0 5.436 4.53m-33.822-52.239a9.231 9.231 0 0 0 -6.04 2.114l-12.683 8.757-.906-.906a10.966 10.966 0 0 0 -7.851-3.322 5.887 5.887 0 0 0 -2.416.3 10.606 10.606 0 0 0 -7.547 7.557l-4.533 16.6a10.3 10.3 0 0 0 2.114 9.663 11.1 11.1 0 0 0 8.153 3.926h1.208l18.421-1.812a9.84 9.84 0 0 0 8.757-6.644 9.674 9.674 0 0 0 -.906-9.059l3.02-2.114 16.307 16.609a17.717 17.717 0 0 0 -1.208 6.946c0 10.871 9.059 19.629 20.535 19.629 11.173 0 20.535-8.757 20.535-19.629s-9.059-19.629-20.535-19.629h-1.812l-24.762-25.06a10.432 10.432 0 0 0 -7.851-3.926z" fill="#33364f" transform="translate(30.692 166.591)"/></svg>