<svg xmlns="http://www.w3.org/2000/svg" width="802.75" height="729.061" viewBox="0 0 802.75 729.061">
  <g id="Portfolio-art_01_Artboard_2" data-name="Portfolio-art 01 Artboard 2" transform="translate(-11.467 -2)">
    <g id="Layer_3" transform="translate(11.467 222.286)">
      <g id="Group_559" data-name="Group 559" transform="translate(2.352 35.778)" opacity="0.2">
        <path id="Path_412" data-name="Path 412" d="M14.982,323.153,354.1,85.484a14.309,14.309,0,0,1,18.015,1.58l207.328,207.96a14.136,14.136,0,0,1-1.9,21.491L238.429,553.553a14.309,14.309,0,0,1-18.015-1.58L13.086,344.645A14.136,14.136,0,0,1,14.982,323.153Z" transform="translate(-9.011 -83.021)"/>
      </g>
      <g id="Group_560" data-name="Group 560">
        <path id="Path_413" data-name="Path 413" d="M233.718,552.147a16.711,16.711,0,0,1-12.01-5.057L14.38,339.762a17.84,17.84,0,0,1-5.057-13.59,16.968,16.968,0,0,1,7.269-12.642L355.713,75.86a18.049,18.049,0,0,1,9.8-3.16,16.712,16.712,0,0,1,12.01,5.057l207.328,207.96a17.84,17.84,0,0,1,5.057,13.59,16.968,16.968,0,0,1-7.269,12.642L243.516,549.3A17.744,17.744,0,0,1,233.718,552.147Z" transform="translate(-6.057 -69.54)" fill="#fff"/>
        <path id="Path_414" data-name="Path 414" d="M367.721,78.021a13.142,13.142,0,0,1,9.8,4.109L584.847,290.09a14.136,14.136,0,0,1-1.9,21.491L243.829,548.618a15.5,15.5,0,0,1-7.9,2.529,13.142,13.142,0,0,1-9.8-4.109L18.8,339.71a14.155,14.155,0,0,1,1.9-21.491L359.819,80.549a13.83,13.83,0,0,1,7.9-2.528m0-6.321a19.861,19.861,0,0,0-11.694,3.793L16.906,313.162a20.151,20.151,0,0,0-8.533,14.854,19.274,19.274,0,0,0,6,16.119L221.706,551.463a20.29,20.29,0,0,0,14.538,6,19.861,19.861,0,0,0,11.694-3.793L587.059,316.322a20.192,20.192,0,0,0,2.528-30.973L382.259,77.389A22.661,22.661,0,0,0,367.721,71.7Z" transform="translate(-8.266 -71.7)" fill="#33364f"/>
      </g>
      <path id="Line_195" data-name="Line 195" d="M217.367,221.837-.707,3.763l4.47-4.47L221.837,217.367Z" transform="translate(41.877 220.655)" fill="#33364f"/>
      <path id="Line_196" data-name="Line 196" d="M3.051,170.917l-3.624-5.179L237.412-.819l3.624,5.179Z" transform="translate(146.462 25.41)" fill="#33364f"/>
      <path id="Line_197" data-name="Line 197" d="M3.047,257.834l-3.62-5.182L362.252-.82l3.62,5.182Z" transform="translate(212.834 216.935)" fill="#33364f"/>
      <path id="Line_198" data-name="Line 198" d="M3.014,39.15-.567,33.941,50-.824l3.581,5.209Z" transform="translate(35.86 264.649)" fill="#33364f"/>
      <path id="Line_199" data-name="Line 199" d="M3.014,39.15-.567,33.941,50-.824l3.581,5.209Z" transform="translate(76.946 305.736)" fill="#33364f"/>
      <path id="Line_200" data-name="Line 200" d="M3.029,61.264l-3.6-5.2L81.6-.822l3.6,5.2Z" transform="translate(108.546 229.888)" fill="#33364f"/>
      <path id="Line_201" data-name="Line 201" d="M3.014,39.15-.567,33.941,50-.824l3.581,5.209Z" transform="translate(118.033 346.822)" fill="#33364f"/>
      <path id="Line_202" data-name="Line 202" d="M2.163,27.445a3.161,3.161,0,0,1-1.815-5.75L31.953-.428A3.16,3.16,0,1,1,35.578,4.75L3.973,26.873A3.146,3.146,0,0,1,2.163,27.445Z" transform="translate(158.183 137.849)" fill="#33364f"/>
      <path id="Line_203" data-name="Line 203" d="M217.367,221.837-.707,3.763l4.47-4.47L221.837,217.367Z" transform="translate(120.89 163.766)" fill="#33364f"/>
      <path id="Line_204" data-name="Line 204" d="M24.577,29.046-.707,3.763l4.47-4.47L29.046,24.577Z" transform="translate(212.544 100.556)" fill="#33364f"/>
      <path id="Line_205" data-name="Line 205" d="M2.163,43.247A3.161,3.161,0,0,1,.338,37.5L54.066-.421a3.16,3.16,0,1,1,3.645,5.164L3.983,42.669A3.146,3.146,0,0,1,2.163,43.247Z" transform="translate(66.528 185.257)" fill="#33364f"/>
      <path id="Line_206" data-name="Line 206" d="M2.163,33.766a3.161,3.161,0,0,1-1.8-5.759L41.448-.438a3.16,3.16,0,1,1,3.6,5.2L3.96,33.2A3.146,3.146,0,0,1,2.163,33.766Z" transform="translate(79.17 207.38)" fill="#33364f"/>
      <path id="Line_207" data-name="Line 207" d="M2.163,43.247A3.161,3.161,0,0,1,.338,37.5L54.066-.421a3.16,3.16,0,1,1,3.645,5.164L3.983,42.669A3.146,3.146,0,0,1,2.163,43.247Z" transform="translate(91.812 210.541)" fill="#33364f"/>
      <path id="Line_208" data-name="Line 208" d="M2.163,36.926a3.161,3.161,0,0,1-1.84-5.733L44.571-.411a3.16,3.16,0,1,1,3.674,5.144L4,36.337A3.146,3.146,0,0,1,2.163,36.926Z" transform="translate(104.454 229.504)" fill="#33364f"/>
    </g>
    <g id="Layer_7" transform="translate(190.772 333.851)">
      <path id="Line_209" data-name="Line 209" d="M2.163,90.655A3.161,3.161,0,0,1,.362,84.9L123.621-.438a3.16,3.16,0,1,1,3.6,5.2L3.96,90.093A3.146,3.146,0,0,1,2.163,90.655Z" transform="translate(1 1)" fill="#96acc4"/>
    </g>
    <g id="Layer_4" transform="translate(39.148 200.988)">
      <g id="Group_561" data-name="Group 561" transform="translate(0 268.765)">
        <path id="Path_415" data-name="Path 415" d="M23.267,156.321l19.279,8.217L28.324,175.284l-5.057-18.963m0-6.321a6.656,6.656,0,0,0-4.109,1.58,6.063,6.063,0,0,0-1.9,6.321L22,176.864a6.4,6.4,0,0,0,4.109,4.425,4.686,4.686,0,0,0,2.212.316,6.074,6.074,0,0,0,3.793-1.264L46.339,169.6a5.819,5.819,0,0,0,2.528-5.689,6.278,6.278,0,0,0-3.793-5.057L25.8,150.632A7.438,7.438,0,0,0,23.267,150Z" transform="translate(-17.025 -150)" fill="#33364f"/>
      </g>
      <g id="Group_563" data-name="Group 563" transform="translate(41.007 309.851)">
        <g id="Group_562" data-name="Group 562">
          <path id="Path_416" data-name="Path 416" d="M48.647,169.321l9.165,8.849L45.17,187.02l-8.849-8.849,12.326-8.849m0-6.321a6.074,6.074,0,0,0-3.793,1.264l-12.326,8.849A5.572,5.572,0,0,0,30,177.854a7.177,7.177,0,0,0,1.9,5.057l8.849,8.849a6.24,6.24,0,0,0,4.425,1.9,6.074,6.074,0,0,0,3.793-1.264L61.6,183.543a5.572,5.572,0,0,0,2.528-4.741,7.178,7.178,0,0,0-1.9-5.057L53.072,164.9a6.24,6.24,0,0,0-4.425-1.9Z" transform="translate(-30 -163)" fill="#33364f"/>
        </g>
      </g>
      <g id="Group_565" data-name="Group 565" transform="translate(85.241 354.098)">
        <g id="Group_564" data-name="Group 564">
          <path id="Path_417" data-name="Path 417" d="M58.231,183.321a8.942,8.942,0,0,1,6.321,2.844,8.126,8.126,0,0,1-.632,11.694,8.582,8.582,0,0,1-5.373,1.9,8.941,8.941,0,0,1-6.321-2.844,8.126,8.126,0,0,1,.632-11.694,8.582,8.582,0,0,1,5.373-1.9m0-6.321h0A14.2,14.2,0,0,0,47.8,201.02a14.337,14.337,0,1,0,21.491-18.963A14.625,14.625,0,0,0,58.231,177Z" transform="translate(-43.996 -177)" fill="#33364f"/>
        </g>
      </g>
      <path id="Line_210" data-name="Line 210" d="M2.163,14.8a3.161,3.161,0,0,1-1.9-5.689L12.906-.368A3.16,3.16,0,1,1,16.7,4.689L4.057,14.17A3.147,3.147,0,0,1,2.163,14.8Z" transform="translate(196.871 231.839)" fill="#f4d152"/>
      <path id="Line_211" data-name="Line 211" transform="translate(281.205 325.654)" fill="#f4d152"/>
      <path id="Line_212" data-name="Line 212" d="M2.163,14.8a3.161,3.161,0,0,1-1.9-5.689L12.906-.368A3.16,3.16,0,1,1,16.7,4.689L4.057,14.17A3.147,3.147,0,0,1,2.163,14.8Z" transform="translate(275.884 231.839)" fill="#e9eaec"/>
      <path id="Line_213" data-name="Line 213" d="M2.163,27.445a3.161,3.161,0,0,1-1.815-5.75L31.953-.428A3.16,3.16,0,1,1,35.578,4.75L3.973,26.873A3.146,3.146,0,0,1,2.163,27.445Z" transform="translate(222.155 200.234)" fill="#96acc4"/>
      <path id="Line_214" data-name="Line 214" d="M2.164,24.285A3.161,3.161,0,0,1,.408,18.494L28.852-.469A3.16,3.16,0,1,1,32.358,4.79L3.914,23.753A3.146,3.146,0,0,1,2.164,24.285Z" transform="translate(282.205 279.246)" fill="#e9eaec"/>
      <path id="Line_215" data-name="Line 215" d="M2.163,27.445a3.161,3.161,0,0,1-1.815-5.75L31.953-.428A3.16,3.16,0,1,1,35.578,4.75L3.973,26.873A3.146,3.146,0,0,1,2.163,27.445Z" transform="translate(260.081 257.123)" fill="#96acc4"/>
      <path id="Line_216" data-name="Line 216" d="M2.164,17.964A3.161,3.161,0,0,1,.408,12.173L19.371-.469A3.16,3.16,0,1,1,22.877,4.79L3.914,17.432A3.146,3.146,0,0,1,2.164,17.964Z" transform="translate(244.279 250.802)" fill="#f4d152"/>
      <path id="Line_217" data-name="Line 217" d="M2.163,14.8a3.161,3.161,0,0,1-1.9-5.689L12.906-.368A3.16,3.16,0,1,1,16.7,4.689L4.057,14.17A3.147,3.147,0,0,1,2.163,14.8Z" transform="translate(225.316 238.16)" fill="#f4d152"/>
      <path id="Line_218" data-name="Line 218" d="M2.163,33.766a3.161,3.161,0,0,1-1.8-5.759L41.448-.438a3.16,3.16,0,1,1,3.6,5.2L3.96,33.2A3.146,3.146,0,0,1,2.163,33.766Z" transform="translate(291.686 307.69)" fill="#e9eaec"/>
      <path id="Line_219" data-name="Line 219" d="M2.163,21.124a3.161,3.161,0,0,1-1.84-5.733L22.447-.411a3.16,3.16,0,0,1,3.674,5.144L4,20.535A3.146,3.146,0,0,1,2.163,21.124Z" transform="translate(247.439 216.036)" fill="#96acc4"/>
      <path id="Path_418" data-name="Path 418" d="M151.928,121.021h0a16.505,16.505,0,0,1,11.7,4.97l.013.013,5.9,5.973a3.16,3.16,0,0,1-4.5,4.444l-5.9-5.963a10.23,10.23,0,0,0-7.226-3.115,1.929,1.929,0,0,0-1.075.061,10.049,10.049,0,0,0-4.7,1.825L136.1,136.293a3.161,3.161,0,0,1-3.637-5.17l10.04-7.063a16.52,16.52,0,0,1,7.636-2.939,5.269,5.269,0,0,0,1.785-.1Zm-33.155,20.438a3.161,3.161,0,0,1,1.821,5.746l-15.509,10.911a3.161,3.161,0,1,1-3.637-5.17l15.509-10.911A3.147,3.147,0,0,1,118.773,141.458Zm61.855,3.065a3.151,3.151,0,0,1,2.248.939l13.332,13.486a3.161,3.161,0,1,1-4.5,4.444l-13.332-13.486a3.16,3.16,0,0,1,2.247-5.382ZM87.754,163.281a3.161,3.161,0,0,1,1.821,5.746l-6.325,4.45-.014.01a10.949,10.949,0,0,0-4.645,7.116,3.16,3.16,0,1,1-6.228-1.078A17.221,17.221,0,0,1,79.62,168.3l6.318-4.445A3.147,3.147,0,0,1,87.754,163.281Zm119.537,8.214a3.151,3.151,0,0,1,2.248.939l13.332,13.486a3.161,3.161,0,0,1-4.5,4.444l-13.332-13.486a3.161,3.161,0,0,1,2.248-5.382ZM83.374,193.121a3.15,3.15,0,0,1,2.251.942l13.312,13.5a3.161,3.161,0,0,1-4.5,4.437L81.123,198.5a3.16,3.16,0,0,1,2.251-5.379Zm150.581,5.345a3.151,3.151,0,0,1,2.248.939l13.332,13.486a3.16,3.16,0,0,1-4.5,4.444l-13.332-13.486a3.16,3.16,0,0,1,2.248-5.382ZM110,220.13a3.151,3.151,0,0,1,2.251.942l13.312,13.5a3.16,3.16,0,1,1-4.5,4.437l-13.312-13.5A3.16,3.16,0,0,1,110,220.13Zm150.619,5.307a3.15,3.15,0,0,1,2.248.939l10.127,10.244.044.045a17.763,17.763,0,0,1,3.143,4.538,3.161,3.161,0,1,1-5.7,2.739,11.445,11.445,0,0,0-2.008-2.9l-10.1-10.221a3.16,3.16,0,0,1,2.247-5.382Zm-123.995,21.7a3.151,3.151,0,0,1,2.251.942l13.312,13.5a3.161,3.161,0,1,1-4.5,4.437l-13.312-13.5a3.161,3.161,0,0,1,2.251-5.379Zm132.7,9.353a3.161,3.161,0,0,1,1.963,5.64c-.19.15-.385.3-.582.441l-.032.023-14.981,10.615a3.161,3.161,0,0,1-3.654-5.158L267,257.451c.123-.09.245-.182.364-.276A3.147,3.147,0,0,1,269.327,256.493ZM163.247,274.149a3.151,3.151,0,0,1,2.251.942l13.312,13.5a3.161,3.161,0,1,1-4.5,4.437L161,279.528a3.16,3.16,0,0,1,2.251-5.379Zm75.144,4.286a3.161,3.161,0,0,1,1.83,5.74l-15.473,10.963a3.16,3.16,0,1,1-3.654-5.158l15.473-10.963A3.146,3.146,0,0,1,238.392,278.435Zm-30.945,21.926a3.161,3.161,0,0,1,1.83,5.74l-1.494,1.059a16.489,16.489,0,0,1-9.557,3.045,16.832,16.832,0,0,1-10.185-3.476,3.161,3.161,0,1,1,3.848-5.015,10.335,10.335,0,0,0,6.338,2.17A10.2,10.2,0,0,0,204.132,302l1.49-1.056A3.146,3.146,0,0,1,207.446,300.361Z" transform="translate(102.43 56.155)" fill="#f06161"/>
      <path id="Path_419" data-name="Path 419" d="M82.415,183.477,221.16,324.752a14.653,14.653,0,0,0,19.6,1.9l80.277-56.573c7.9-5.689,8.849-17.7,2.212-24.968L184.182,104.781a14.653,14.653,0,0,0-19.6-1.9L84.627,158.51A17.087,17.087,0,0,0,82.415,183.477Z" transform="translate(114.721 10.7)" opacity="0.059"/>
      <path id="Path_420" data-name="Path 420" d="M90.015,177.965,275.536,367.279a19.928,19.928,0,0,0,26.548,2.528l107.457-75.852c10.43-7.9,11.694-23.7,2.844-33.5L226.232,72.4A19.521,19.521,0,0,0,200,69.877L92.859,144.464A22.832,22.832,0,0,0,90.015,177.965Z" transform="translate(127.664 -62.801)" fill="#fff"/>
      <path id="Path_420_-_Outline" data-name="Path 420 - Outline" d="M213.959,64.961h0a22.54,22.54,0,0,1,16.722,7.423l8.521,8.607a3.16,3.16,0,1,1-4.492,4.447l-8.562-8.649q-.043-.043-.084-.088a16.292,16.292,0,0,0-12.1-5.419,16.764,16.764,0,0,0-9.933,3.307l-.059.042-9.853,6.859A3.16,3.16,0,1,1,190.5,76.3l9.824-6.839A23.04,23.04,0,0,1,213.959,64.961ZM176.742,86.57a3.161,3.161,0,0,1,1.809,5.755l-23.345,16.252a3.16,3.16,0,0,1-3.611-5.188l23.345-16.252A3.146,3.146,0,0,1,176.742,86.57ZM250.3,93.531a3.151,3.151,0,0,1,2.246.937l20.011,20.215a3.161,3.161,0,0,1-4.492,4.447L248.05,98.915a3.16,3.16,0,0,1,2.246-5.384ZM137.835,113.656a3.161,3.161,0,0,1,1.809,5.755L116.3,135.663a3.16,3.16,0,0,1-3.612-5.188l23.345-16.252A3.146,3.146,0,0,1,137.835,113.656Zm145.813,13.566a3.151,3.151,0,0,1,2.246.937l20.011,20.215a3.16,3.16,0,1,1-4.492,4.447L281.4,132.606a3.16,3.16,0,0,1,2.246-5.384ZM98.927,140.742a3.161,3.161,0,0,1,1.809,5.755l-3.855,2.684a19.635,19.635,0,0,0-7.42,17.957,3.16,3.16,0,1,1-6.275.757,25.973,25.973,0,0,1,9.927-23.789q.051-.038.1-.075l3.909-2.722A3.146,3.146,0,0,1,98.927,140.742ZM317,160.914a3.151,3.151,0,0,1,2.246.937l20.011,20.215a3.16,3.16,0,0,1-4.492,4.447L314.754,166.3A3.16,3.16,0,0,1,317,160.914Zm-221.446,19.5a3.15,3.15,0,0,1,2.257.948l19.909,20.316A3.161,3.161,0,1,1,113.2,206.1L93.3,185.784a3.16,3.16,0,0,1,2.257-5.373Zm254.8,14.194a3.151,3.151,0,0,1,2.246.937l20.011,20.215a3.16,3.16,0,1,1-4.492,4.447l-20.011-20.215a3.16,3.16,0,0,1,2.246-5.384ZM128.734,214.271a3.151,3.151,0,0,1,2.258.948L150.9,235.535a3.161,3.161,0,0,1-4.515,4.424l-19.909-20.316a3.16,3.16,0,0,1,2.257-5.373ZM383.7,228.3a3.151,3.151,0,0,1,2.246.937l20.011,20.215a3.161,3.161,0,1,1-4.492,4.447l-20.011-20.215A3.161,3.161,0,0,1,383.7,228.3ZM161.916,248.131a3.151,3.151,0,0,1,2.257.948l19.909,20.316a3.16,3.16,0,1,1-4.515,4.424L159.658,253.5a3.161,3.161,0,0,1,2.257-5.373Zm254.8,14.147a3.158,3.158,0,0,1,2.652,1.438,26.494,26.494,0,0,1-1.136,30.346,3.161,3.161,0,0,1-5-3.869,20.175,20.175,0,0,0,.836-23.031,3.161,3.161,0,0,1,2.646-4.884ZM195.1,281.99a3.151,3.151,0,0,1,2.258.948l19.909,20.316a3.161,3.161,0,1,1-4.515,4.424L192.84,287.363a3.16,3.16,0,0,1,2.257-5.373Zm205.756,18.621a3.161,3.161,0,0,1,1.825,5.743l-23.238,16.4a3.161,3.161,0,0,1-3.645-5.164l23.238-16.4A3.146,3.146,0,0,1,400.853,300.612ZM228.278,315.85a3.151,3.151,0,0,1,2.258.948l19.909,20.316a3.16,3.16,0,0,1-4.515,4.424l-19.909-20.316a3.16,3.16,0,0,1,2.257-5.373Zm133.844,12.1a3.161,3.161,0,0,1,1.825,5.743l-23.238,16.4a3.16,3.16,0,1,1-3.645-5.164l23.238-16.4A3.146,3.146,0,0,1,362.122,327.951ZM261.459,349.709a3.151,3.151,0,0,1,2.258.948l16.238,16.569.072.077a16.843,16.843,0,0,0,3.372,2.833,3.16,3.16,0,0,1-3.393,5.333,23.162,23.162,0,0,1-4.6-3.854l-16.2-16.534a3.161,3.161,0,0,1,2.257-5.373Zm61.933,5.58a3.161,3.161,0,0,1,1.825,5.743l-19.13,13.5a23.617,23.617,0,0,1-5.011,2.793,3.161,3.161,0,0,1-2.381-5.855,17.3,17.3,0,0,0,3.685-2.057l.042-.03,19.15-13.517A3.147,3.147,0,0,1,323.392,355.29Z" transform="translate(125.503 -64.961)" fill="#f06161"/>
      <path id="Line_220" data-name="Line 220" d="M2.164,11.643A3.161,3.161,0,0,1,.408,5.852L9.889-.469A3.16,3.16,0,1,1,13.4,4.79L3.914,11.111A3.146,3.146,0,0,1,2.164,11.643Z" transform="translate(237.958 89.616)" fill="#f06161"/>
      <path id="Line_221" data-name="Line 221" d="M2.164,11.643A3.161,3.161,0,0,1,.408,5.852L9.889-.469A3.16,3.16,0,1,1,13.4,4.79L3.914,11.111A3.146,3.146,0,0,1,2.164,11.643Z" transform="translate(237.958 89.616)" fill="#f06161"/>
      <path id="Line_222" data-name="Line 222" d="M2.164,11.643A3.161,3.161,0,0,1,.408,5.852L9.889-.469A3.16,3.16,0,1,1,13.4,4.79L3.914,11.111A3.146,3.146,0,0,1,2.164,11.643Z" transform="translate(288.526 111.74)" fill="#f06161"/>
      <path id="Line_223" data-name="Line 223" d="M2.163,27.445a3.161,3.161,0,0,1-1.815-5.75L31.953-.428A3.16,3.16,0,1,1,35.578,4.75L3.973,26.873A3.146,3.146,0,0,1,2.163,27.445Z" transform="translate(307.489 54.851)" fill="#96acc4"/>
      <path id="Line_224" data-name="Line 224" d="M2.163,21.124a3.161,3.161,0,0,1-1.84-5.733L22.447-.411a3.16,3.16,0,0,1,3.674,5.144L4,20.535A3.146,3.146,0,0,1,2.163,21.124Z" transform="translate(272.723 86.456)" fill="#f06161"/>
      <path id="Line_225" data-name="Line 225" d="M2.163,21.124a3.161,3.161,0,0,1-1.84-5.733L22.447-.411a3.16,3.16,0,0,1,3.674,5.144L4,20.535A3.146,3.146,0,0,1,2.163,21.124Z" transform="translate(310.649 86.456)" fill="#96acc4"/>
      <path id="Line_226" data-name="Line 226" d="M2.163,21.124a3.161,3.161,0,0,1-1.84-5.733L22.447-.411a3.16,3.16,0,0,1,3.674,5.144L4,20.535A3.146,3.146,0,0,1,2.163,21.124Z" transform="translate(351.736 165.468)" fill="#f06161"/>
      <path id="Line_227" data-name="Line 227" d="M2.164,11.643A3.161,3.161,0,0,1,.408,5.852L9.889-.469A3.16,3.16,0,1,1,13.4,4.79L3.914,11.111A3.146,3.146,0,0,1,2.164,11.643Z" transform="translate(304.328 127.542)" fill="#f06161"/>
      <path id="Line_228" data-name="Line 228" d="M2.164,17.964A3.161,3.161,0,0,1,.408,12.173L19.371-.469A3.16,3.16,0,1,1,22.877,4.79L3.914,17.432A3.146,3.146,0,0,1,2.164,17.964Z" transform="translate(367.538 130.703)" fill="#96acc4"/>
      <path id="Line_229" data-name="Line 229" d="M2.164,17.964A3.161,3.161,0,0,1,.408,12.173L19.371-.469A3.16,3.16,0,1,1,22.877,4.79L3.914,17.432A3.146,3.146,0,0,1,2.164,17.964Z" transform="translate(424.427 146.505)" fill="#96acc4"/>
      <path id="Line_230" data-name="Line 230" d="M2.164,17.964A3.161,3.161,0,0,1,.408,12.173L19.371-.469A3.16,3.16,0,1,1,22.877,4.79L3.914,17.432A3.146,3.146,0,0,1,2.164,17.964Z" transform="translate(408.624 184.431)" fill="#f06161"/>
      <path id="Line_231" data-name="Line 231" d="M2.164,17.964A3.161,3.161,0,0,1,.408,12.173L19.371-.469A3.16,3.16,0,1,1,22.877,4.79L3.914,17.432A3.146,3.146,0,0,1,2.164,17.964Z" transform="translate(440.229 162.308)" fill="#96acc4"/>
      <path id="Line_232" data-name="Line 232" d="M2.163,21.124a3.161,3.161,0,0,1-1.84-5.733L22.447-.411a3.16,3.16,0,0,1,3.674,5.144L4,20.535A3.146,3.146,0,0,1,2.163,21.124Z" transform="translate(354.896 108.579)" fill="#96acc4"/>
      <path id="Line_233" data-name="Line 233" d="M2.164,24.285A3.161,3.161,0,0,1,.408,18.494L28.852-.469A3.16,3.16,0,1,1,32.358,4.79L3.914,23.753A3.146,3.146,0,0,1,2.164,24.285Z" transform="translate(411.785 222.357)" fill="#f06161"/>
      <path id="Line_234" data-name="Line 234" d="M2.163,21.124a3.161,3.161,0,0,1-1.84-5.733L22.447-.411a3.16,3.16,0,0,1,3.674,5.144L4,20.535A3.146,3.146,0,0,1,2.163,21.124Z" transform="translate(320.131 133.863)" fill="#f06161"/>
      <path id="Line_235" data-name="Line 235" d="M2.164,17.964A3.161,3.161,0,0,1,.408,12.173L19.371-.469A3.16,3.16,0,1,1,22.877,4.79L3.914,17.432A3.146,3.146,0,0,1,2.164,17.964Z" transform="translate(335.933 152.826)" fill="#f06161"/>
      <path id="Line_236" data-name="Line 236" d="M2.164,17.964A3.161,3.161,0,0,1,.408,12.173L19.371-.469A3.16,3.16,0,1,1,22.877,4.79L3.914,17.432A3.146,3.146,0,0,1,2.164,17.964Z" transform="translate(392.822 168.629)" fill="#f06161"/>
      <path id="Line_237" data-name="Line 237" d="M2.163,27.445a3.161,3.161,0,0,1-1.815-5.75L31.953-.428A3.16,3.16,0,1,1,35.578,4.75L3.973,26.873A3.146,3.146,0,0,1,2.163,27.445Z" transform="translate(452.871 190.752)" fill="#96acc4"/>
      <path id="Ellipse_19" data-name="Ellipse 19" transform="translate(262.242 82.296)" fill="#f06161"/>
      <path id="Ellipse_20" data-name="Ellipse 20" transform="translate(413.946 271.925)" fill="#f06161"/>
      <path id="Ellipse_21" data-name="Ellipse 21" transform="translate(388.662 158.147)" fill="#f06161"/>
      <path id="Ellipse_22" data-name="Ellipse 22" transform="translate(423.427 211.876)" fill="#f06161"/>
      <path id="Line_238" data-name="Line 238" d="M2.163,27.445a3.161,3.161,0,0,1-1.815-5.75L31.953-.428A3.16,3.16,0,1,1,35.578,4.75L3.973,26.873A3.146,3.146,0,0,1,2.163,27.445Z" transform="translate(326.452 95.937)" fill="#96acc4"/>
    </g>
    <g id="Layer_5" transform="translate(272.998 2)">
      <g id="Group_566" data-name="Group 566" transform="translate(0 107.526)" opacity="0.071">
        <path id="Path_421" data-name="Path 421" d="M101.393,142.777l146.963-102.4c9.8-6.637,22.756-5.689,30.973,2.844L516.682,279.943a24.155,24.155,0,0,1-3.16,36.978L366.243,420.269a24.469,24.469,0,0,1-31.289-2.844L97.917,179.755A24.4,24.4,0,0,1,101.393,142.777Z" transform="translate(-91.017 -36.022)"/>
      </g>
      <path id="Path_422" data-name="Path 422" d="M117.1,121.2,281.448,10.268c10.746-7.585,30.973-6.321,40.454,3.16L594.337,282.387c13.59,18.647,6.005,35.081-7.9,44.879L420.826,443.572c-12.01,8.217-25.284,6.637-35.082-3.16L115.522,169.241C97.823,151.858,101.616,134.476,117.1,121.2Z" transform="translate(-63.427 5.218)" fill="#5e6282"/>
      <path id="Path_422_-_Outline" data-name="Path 422 - Outline" d="M301.365,4.341c9.967,0,19.285,3.368,24.93,9.01L598.718,282.3a3.162,3.162,0,0,1,.334.388c6.309,8.656,8.787,17.412,7.365,26.024a31.318,31.318,0,0,1-5.585,13.15,43.429,43.429,0,0,1-10.415,10.15L424.8,448.319l-.032.022A31.6,31.6,0,0,1,407,454.185c-7.82,0-15.2-3.243-21.331-9.378L115.457,173.646c-8.708-8.557-12.966-17.559-12.655-26.755.31-9.152,5.291-18.118,14.4-25.929a3.157,3.157,0,0,1,.289-.22L281.813,9.828C286.84,6.289,293.782,4.341,301.365,4.341ZM594.092,286.613,321.843,17.838l-.014-.014c-4.485-4.485-12.134-7.162-20.463-7.162-6.211,0-12.018,1.585-15.934,4.349l-.054.037L121.184,125.878c-7.646,6.6-11.817,13.935-12.064,21.227-.249,7.357,3.377,14.773,10.777,22.041l.024.024,270.222,271.17c4.92,4.92,10.751,7.523,16.858,7.523a24.976,24.976,0,0,0,14.187-4.731L586.78,326.84c7.469-5.262,12.229-12.068,13.4-19.16C601.3,300.866,599.257,293.78,594.092,286.613Z" transform="translate(-65.588 3.058)" fill="#5e6282"/>
      <g id="Group_567" data-name="Group 567" transform="translate(38.128)">
        <path id="Path_423" data-name="Path 423" d="M404.312,448a24.858,24.858,0,0,1-17.7-7.269L111.334,164.5a24.983,24.983,0,0,1-7.269-19.911,24.351,24.351,0,0,1,10.746-18.331L285.161,7.425A25.231,25.231,0,0,1,299.383,3a24.858,24.858,0,0,1,17.7,7.269L592.677,285.232a25.159,25.159,0,0,1-3.161,38.242l-170.983,120.1A25.23,25.23,0,0,1,404.312,448Z" transform="translate(-101.159 0.16)" fill="#fafafa"/>
        <path id="Path_424" data-name="Path 424" d="M301.621,8.321h0a22.015,22.015,0,0,1,15.486,6.321L592.7,289.6a21.446,21.446,0,0,1,6.321,17.383,22.345,22.345,0,0,1-9.165,16.119L418.875,443.2a22.339,22.339,0,0,1-12.642,4.109,21.476,21.476,0,0,1-15.486-6.321L115.468,164.449a22.538,22.538,0,0,1-6.321-17.383,23.444,23.444,0,0,1,9.165-16.119L288.663,12.114a24.617,24.617,0,0,1,12.958-3.793m0-6.321A27.091,27.091,0,0,0,285.5,7.057L115.152,125.891a28.079,28.079,0,0,0-3.793,42.983L386.638,445.1a28.245,28.245,0,0,0,19.911,8.217,27.091,27.091,0,0,0,16.118-5.057l170.983-120.1a28.292,28.292,0,0,0,3.793-42.983L321.848,10.217A29.548,29.548,0,0,0,301.621,2Z" transform="translate(-103.081 -2)" fill="#33364f"/>
      </g>
      <path id="Line_239" data-name="Line 239" d="M4.327,32.766A6.321,6.321,0,0,1,.7,21.266L32.3-.857A6.321,6.321,0,1,1,39.551,9.5L7.946,31.623A6.292,6.292,0,0,1,4.327,32.766Z" transform="translate(131.527 62.049)" fill="#33364f"/>
    </g>
    <g id="Layer_8" transform="translate(386.407 425.506)">
      <path id="Path_425" data-name="Path 425" d="M509.636,240.716c0,9.481-9.165,17.383-20.543,17.383a23.584,23.584,0,0,1-13.274-4.109l-54.361,37.926a14.784,14.784,0,0,1,2.844,8.849c0,9.481-9.165,17.383-20.543,17.383-10.746,0-19.911-7.269-20.543-16.435l-68.9-5.689c-3.477,5.689-10.43,9.481-18.331,9.481a25.146,25.146,0,0,1-12.01-3.16l-118.2,82.489a15.217,15.217,0,0,1,2.212,7.585c0,9.481-9.165,17.383-20.543,17.383S126.9,401.9,126.9,392.42s9.165-17.383,20.543-17.383a21.069,21.069,0,0,1,14.222,5.057L278.92,297.921a15.447,15.447,0,0,1-3.477-9.8c0-9.481,9.165-17.383,20.543-17.383a22.831,22.831,0,0,1,13.274,4.109L467.917,164.232a14.784,14.784,0,0,1-2.844-8.849c0-9.481,9.165-17.383,20.543-17.383s20.543,7.9,20.543,17.383-9.165,17.383-20.543,17.383a22.831,22.831,0,0,1-13.274-4.109L313.685,279.274a14.784,14.784,0,0,1,2.844,8.849v1.9l67.318,5.689c2.528-6.953,10.43-12.01,19.6-12.01a23.585,23.585,0,0,1,13.274,4.109l54.361-37.926a14.784,14.784,0,0,1-2.844-8.849c0-9.481,9.165-17.383,20.543-17.383S509.636,231.235,509.636,240.716Z" transform="translate(-126.9 -131.679)" opacity="0.122"/>
      <path id="Line_240" data-name="Line 240" d="M3.051,92.853-.573,87.675,125.846-.819l3.625,5.178Z" transform="translate(27.522 159.415)" fill="#33364f"/>
      <path id="Line_241" data-name="Line 241" d="M75.769,11.624-.083,5.3.442-1,76.294,5.324Z" transform="translate(183.445 155.872)" fill="#33364f"/>
      <path id="Line_242" data-name="Line 242" d="M3.046,121.3l-3.618-5.183L166.934-.82l3.618,5.183Z" transform="translate(176.067 26.673)" fill="#33364f"/>
      <path id="Line_243" data-name="Line 243" d="M3.051,48.606-.573,43.428,62.636-.819l3.625,5.178Z" transform="translate(283.522 112.008)" fill="#33364f"/>
      <ellipse id="Ellipse_23" data-name="Ellipse 23" cx="17.383" cy="14.222" rx="17.383" ry="14.222" transform="translate(3.477 240.197)" fill="#f4d152"/>
      <path id="Ellipse_23_-_Outline" data-name="Ellipse 23 - Outline" d="M19.543-1A22.549,22.549,0,0,1,33.836,3.88a16.074,16.074,0,0,1,6.25,12.5,16.074,16.074,0,0,1-6.25,12.5,22.549,22.549,0,0,1-14.293,4.88A22.549,22.549,0,0,1,5.25,28.885,16.074,16.074,0,0,1-1,16.383,16.074,16.074,0,0,1,5.25,3.88,22.549,22.549,0,0,1,19.543-1Zm0,28.444c7.842,0,14.222-4.962,14.222-11.062S27.385,5.321,19.543,5.321,5.321,10.283,5.321,16.383,11.7,27.444,19.543,27.444Z" transform="translate(1.316 238.037)" fill="#33364f"/>
      <ellipse id="Ellipse_24" data-name="Ellipse 24" cx="17.383" cy="14.222" rx="17.383" ry="14.222" transform="translate(341.649 3.16)" fill="#f4d152"/>
      <path id="Ellipse_24_-_Outline" data-name="Ellipse 24 - Outline" d="M19.543-1A22.549,22.549,0,0,1,33.836,3.88a16.074,16.074,0,0,1,6.25,12.5,16.074,16.074,0,0,1-6.25,12.5,22.549,22.549,0,0,1-14.293,4.88A22.549,22.549,0,0,1,5.25,28.885,16.074,16.074,0,0,1-1,16.383,16.074,16.074,0,0,1,5.25,3.88,22.549,22.549,0,0,1,19.543-1Zm0,28.444c7.842,0,14.222-4.962,14.222-11.062S27.385,5.321,19.543,5.321,5.321,10.283,5.321,16.383,11.7,27.444,19.543,27.444Z" transform="translate(339.489 1)" fill="#33364f"/>
      <ellipse id="Ellipse_25" data-name="Ellipse 25" cx="17.383" cy="14.222" rx="17.383" ry="14.222" transform="translate(344.81 88.494)" fill="#f4d152"/>
      <path id="Ellipse_25_-_Outline" data-name="Ellipse 25 - Outline" d="M19.543-1A22.549,22.549,0,0,1,33.836,3.88a16.074,16.074,0,0,1,6.25,12.5,16.074,16.074,0,0,1-6.25,12.5,22.549,22.549,0,0,1-14.293,4.88A22.549,22.549,0,0,1,5.25,28.885,16.074,16.074,0,0,1-1,16.383,16.074,16.074,0,0,1,5.25,3.88,22.549,22.549,0,0,1,19.543-1Zm0,28.444c7.842,0,14.222-4.962,14.222-11.062S27.385,5.321,19.543,5.321,5.321,10.283,5.321,16.383,11.7,27.444,19.543,27.444Z" transform="translate(342.649 86.333)" fill="#33364f"/>
      <ellipse id="Ellipse_26" data-name="Ellipse 26" cx="17.383" cy="14.222" rx="17.383" ry="14.222" transform="translate(152.02 135.901)" fill="#f4d152"/>
      <path id="Ellipse_26_-_Outline" data-name="Ellipse 26 - Outline" d="M19.543-1A22.549,22.549,0,0,1,33.836,3.88a16.074,16.074,0,0,1,6.25,12.5,16.074,16.074,0,0,1-6.25,12.5,22.549,22.549,0,0,1-14.293,4.88A22.549,22.549,0,0,1,5.25,28.885,16.074,16.074,0,0,1-1,16.383,16.074,16.074,0,0,1,5.25,3.88,22.549,22.549,0,0,1,19.543-1Zm0,28.444c7.842,0,14.222-4.962,14.222-11.062S27.385,5.321,19.543,5.321,5.321,10.283,5.321,16.383,11.7,27.444,19.543,27.444Z" transform="translate(149.859 133.741)" fill="#33364f"/>
      <ellipse id="Ellipse_27" data-name="Ellipse 27" cx="17.383" cy="14.222" rx="17.383" ry="14.222" transform="translate(259.477 148.543)" fill="#f4d152"/>
      <path id="Ellipse_27_-_Outline" data-name="Ellipse 27 - Outline" d="M19.543-1A22.549,22.549,0,0,1,33.836,3.88a16.074,16.074,0,0,1,6.25,12.5,16.074,16.074,0,0,1-6.25,12.5,22.549,22.549,0,0,1-14.293,4.88A22.549,22.549,0,0,1,5.25,28.885,16.074,16.074,0,0,1-1,16.383,16.074,16.074,0,0,1,5.25,3.88,22.549,22.549,0,0,1,19.543-1Zm0,28.444c7.842,0,14.222-4.962,14.222-11.062S27.385,5.321,19.543,5.321,5.321,10.283,5.321,16.383,11.7,27.444,19.543,27.444Z" transform="translate(257.316 146.383)" fill="#33364f"/>
    </g>
    <g id="Layer_10" transform="translate(87.065 52.568)">
      <ellipse id="Ellipse_28" data-name="Ellipse 28" cx="52.148" cy="42.983" rx="52.148" ry="42.983" transform="translate(410.276 37.926)" fill="#f06161"/>
      <path id="Ellipse_28_-_Outline" data-name="Ellipse 28 - Outline" d="M54.309-1C68.97-1,82.779,3.727,93.193,12.311a46.574,46.574,0,0,1,11.977,14.658,39.362,39.362,0,0,1,0,36.347A46.574,46.574,0,0,1,93.193,77.975C82.779,86.559,68.97,91.286,54.309,91.286s-28.47-4.727-38.884-13.311A46.574,46.574,0,0,1,3.447,63.317a39.362,39.362,0,0,1,0-36.347A46.574,46.574,0,0,1,15.424,12.311C25.838,3.727,39.648-1,54.309-1Zm0,85.965C81.32,84.965,103.3,67.1,103.3,45.143S81.32,5.321,54.309,5.321,5.321,23.185,5.321,45.143,27.3,84.965,54.309,84.965Z" transform="translate(408.115 35.765)" fill="#33364f"/>
      <path id="Path_426" data-name="Path 426" d="M213.861,131.083l74.272-51.832a6.267,6.267,0,0,1,8.217.632l54.677,54.677a6.145,6.145,0,0,1-.948,9.481l-73.639,51.516a6.267,6.267,0,0,1-8.217-.632l-55.309-54.677C210.068,138.036,210.384,133.3,213.861,131.083Z" transform="translate(354.124 111.643)" fill="#f4d152"/>
      <path id="Path_426_-_Outline" data-name="Path 426 - Outline" d="M294.015,77.006a9.463,9.463,0,0,1,6.73,2.8l54.677,54.677a9.226,9.226,0,0,1,2.707,7.332,9.535,9.535,0,0,1-4.078,6.973l-73.6,51.49a9.3,9.3,0,0,1-5.572,1.843,9.463,9.463,0,0,1-6.725-2.8l-55.184-54.553A8.214,8.214,0,0,1,210,137.928a9.27,9.27,0,0,1,4.259-7.311l74.182-51.77A9.3,9.3,0,0,1,294.015,77.006ZM274.877,195.8a3.023,3.023,0,0,0,1.826-.613l.085-.061,73.64-51.516a3.23,3.23,0,0,0,1.4-2.346,2.836,2.836,0,0,0-.88-2.311L296.275,84.279a3.184,3.184,0,0,0-2.26-.952,3.023,3.023,0,0,0-1.826.613L292.1,84,217.718,135.91a2.9,2.9,0,0,0-1.4,2.316,2.014,2.014,0,0,0,.7,1.688l.148.115,55.455,54.821A3.184,3.184,0,0,0,274.877,195.8Z" transform="translate(351.963 109.482)" fill="#33364f"/>
      <path id="Path_427" data-name="Path 427" d="M129.532,99.135l72.059-50.884a6.267,6.267,0,0,1,8.217.632l93.551,94.5c2.844,2.844,2.212,7.269-.948,9.8l-71.111,49.3c-2.528,1.58-6,1.58-7.9-.632l-94.183-93.235C126.056,105.772,126.372,101.347,129.532,99.135Z" transform="translate(172.655 44.667)" fill="#e9eaec"/>
      <path id="Path_427_-_Outline" data-name="Path 427 - Outline" d="M207.474,46.006a9.463,9.463,0,0,1,6.73,2.8l.011.011,93.542,94.49a9.18,9.18,0,0,1,2.726,7.075,10.313,10.313,0,0,1-3.936,7.423l-.174.129-71.237,49.387a10.527,10.527,0,0,1-5.5,1.6,8.365,8.365,0,0,1-6.377-2.742L129.2,113.071a9.468,9.468,0,0,1-3.187-7.554,8.965,8.965,0,0,1,3.866-6.811L201.9,47.854A9.3,9.3,0,0,1,207.474,46.006Zm2.256,7.269a3.183,3.183,0,0,0-2.256-.948,3.023,3.023,0,0,0-1.826.613l-.073.053-72.059,50.884a2.653,2.653,0,0,0-1.192,2.026,3.164,3.164,0,0,0,1.167,2.525l.109.1,94.275,93.326.084.1a2.165,2.165,0,0,0,1.674.645,4.181,4.181,0,0,0,2.1-.6l70.94-49.185a3.972,3.972,0,0,0,1.5-2.777,2.894,2.894,0,0,0-.886-2.258l-.011-.011Z" transform="translate(170.494 42.507)" fill="#33364f"/>
      <path id="Path_428" data-name="Path 428" d="M183.826,100.767l73.956-51.516a6.267,6.267,0,0,1,8.217.632l74.9,74.9c2.844,2.844,2.212,7.269-.948,9.8L266,186.1a6.267,6.267,0,0,1-8.217-.632l-74.588-74.9A6.07,6.07,0,0,1,183.826,100.767Z" transform="translate(289.344 46.828)" fill="#96acc4"/>
      <path id="Path_428_-_Outline" data-name="Path 428 - Outline" d="M263.665,47.006a9.463,9.463,0,0,1,6.73,2.8l74.9,74.9a9.181,9.181,0,0,1,2.728,7.077,10.312,10.312,0,0,1-3.936,7.423l-.168.125-73.915,51.488a9.3,9.3,0,0,1-5.569,1.841,9.463,9.463,0,0,1-6.73-2.8l-74.537-74.853a9.463,9.463,0,0,1-3.131-7.79,9.1,9.1,0,0,1,4.189-6.92L258.1,48.846A9.3,9.3,0,0,1,263.665,47.006Zm76.547,87.213a3.973,3.973,0,0,0,1.5-2.779,2.894,2.894,0,0,0-.886-2.258l-74.9-74.9a3.184,3.184,0,0,0-2.26-.952,3.024,3.024,0,0,0-1.826.613l-.09.065-74.065,51.589a2.8,2.8,0,0,0-1.344,2.151,3.205,3.205,0,0,0,1.13,2.631l.125.119,74.588,74.9a3.179,3.179,0,0,0,2.255.947,3.023,3.023,0,0,0,1.826-.613l.09-.065Z" transform="translate(287.183 44.667)" fill="#33364f"/>
      <path id="Path_429" data-name="Path 429" d="M165.861,135.351l73.007-51.2a6.267,6.267,0,0,1,8.217.632L313.14,151.47a6.145,6.145,0,0,1-.948,9.481l-72.059,50.568a6.267,6.267,0,0,1-8.217-.632l-67-66.054C162.068,142.3,162.384,137.88,165.861,135.351Z" transform="translate(250.42 122.229)" fill="#e9eaec"/>
      <path id="Path_429_-_Outline" data-name="Path 429 - Outline" d="M244.751,81.906a9.463,9.463,0,0,1,6.73,2.8l66.065,66.7a9.218,9.218,0,0,1,2.7,7.322,9.535,9.535,0,0,1-4.078,6.973l-72.02,50.54a9.3,9.3,0,0,1-5.574,1.844,9.462,9.462,0,0,1-6.719-2.793l-66.945-66a8.779,8.779,0,0,1-2.9-6.957,9.777,9.777,0,0,1,4.159-7.383l.044-.032,72.97-51.174A9.3,9.3,0,0,1,244.751,81.906Zm-6.18,129.858a3.023,3.023,0,0,0,1.826-.613l.081-.059,72.059-50.568a3.233,3.233,0,0,0,1.409-2.348,2.837,2.837,0,0,0-.88-2.311L247,89.168a3.175,3.175,0,0,0-2.25-.941,3.023,3.023,0,0,0-1.826.613l-.082.059-72.982,51.182a3.5,3.5,0,0,0-1.544,2.566,2.422,2.422,0,0,0,.856,1.983l.119.111,67.018,66.07A3.184,3.184,0,0,0,238.57,211.764Z" transform="translate(248.26 120.069)" fill="#33364f"/>
      <ellipse id="Ellipse_29" data-name="Ellipse 29" cx="14.222" cy="12.642" rx="14.222" ry="12.642" transform="translate(76.069 199.995)" opacity="0.122"/>
      <g id="Group_569" data-name="Group 569" transform="translate(0.236 124.143)" opacity="0.122">
        <g id="Group_568" data-name="Group 568">
          <path id="Path_431" data-name="Path 431" d="M78.1,152.946a124.51,124.51,0,0,0-15.486-12.958c5.373-6,8.533-12.642,8.849-19.6.948-13.906-9.8-26.548-24.336-29.077A34.35,34.35,0,0,0,41.437,91c-15.486,0-27.5,10.746-33.185,19.911-2.844,4.741-.632,10.43,4.741,12.958a14.315,14.315,0,0,0,5.057.948,11.3,11.3,0,0,0,9.8-5.057c2.844-4.741,8.849-9.8,13.906-9.8h1.264c3.477.632,6.953,4.741,6.637,9.165-.316,4.741-4.425,10.114-10.43,13.906a9.038,9.038,0,0,0-4.741,7.9c0,3.16,1.9,6,5.057,7.9a103.848,103.848,0,0,1,21.807,16.435,12,12,0,0,0,15.486.632,9.6,9.6,0,0,0,3.793-6.637C80.943,157.37,79.995,154.842,78.1,152.946Z" transform="translate(-7.006 -91)"/>
        </g>
      </g>
      <g id="Group_570" data-name="Group 570" transform="translate(0 114.661)">
        <path id="Path_432" data-name="Path 432" d="M67.742,162.323a8.425,8.425,0,0,1-5.689-2.212,107.9,107.9,0,0,0-22.44-17.067,7.082,7.082,0,0,1-3.793-6,7.687,7.687,0,0,1,3.477-6.321c6.953-4.109,11.062-9.8,11.378-15.486a11.561,11.561,0,0,0-9.165-11.694c-.632,0-1.264-.316-1.9-.316-6.637,0-13.274,5.689-16.751,11.378a8.247,8.247,0,0,1-6.953,3.793,11.362,11.362,0,0,1-3.477-.632,8.025,8.025,0,0,1-4.109-4.425,6.944,6.944,0,0,1,.632-5.689C14.33,99.114,25.391,89,39.3,89a28.92,28.92,0,0,1,5.057.316c12.958,2.212,22.756,14.222,21.807,26.864-.632,6.953-3.793,13.906-9.8,19.911A142.636,142.636,0,0,1,73.431,150a7.4,7.4,0,0,1,2.212,5.373,6.962,6.962,0,0,1-2.844,5.057A8.406,8.406,0,0,1,67.742,162.323Z" transform="translate(-4.631 -85.839)" fill="#f4d152"/>
        <path id="Path_433" data-name="Path 433" d="M41.6,94.321a20.865,20.865,0,0,1,4.425.316C57.4,96.533,66.25,107.279,65.3,118.025c-.632,7.269-4.741,14.854-12.01,20.543A121.6,121.6,0,0,1,73.2,154.37a3.755,3.755,0,0,1-.316,5.689,5.34,5.34,0,0,1-3.16.948,4.753,4.753,0,0,1-3.477-1.264A105.228,105.228,0,0,0,43.178,142.36a3.886,3.886,0,0,1-2.212-3.477,4.367,4.367,0,0,1,1.9-3.477c7.585-4.741,12.642-11.378,12.958-18.015a14.947,14.947,0,0,0-11.694-14.854c-.948,0-1.58-.316-2.528-.316-7.9,0-15.486,6.321-19.279,12.642a5.4,5.4,0,0,1-4.109,2.212A3.009,3.009,0,0,1,16,116.444a3.934,3.934,0,0,1-1.9-5.689c5.373-8.217,15.8-16.435,27.5-16.435M41.6,88h0c-15.17,0-27.5,10.746-33.185,20.227a9.429,9.429,0,0,0-.948,8.217,11.693,11.693,0,0,0,6,6.321,12.682,12.682,0,0,0,4.741.948,11.145,11.145,0,0,0,9.481-5.057c2.844-4.741,8.849-9.8,13.906-9.8h1.264c3.793.632,6.637,4.425,6.637,8.217-.316,4.425-4.109,9.481-10.114,12.958a10.474,10.474,0,0,0-5.057,8.849,10.8,10.8,0,0,0,5.373,8.849,103.848,103.848,0,0,1,21.807,16.435,12.47,12.47,0,0,0,7.9,3.161,12.965,12.965,0,0,0,6.953-2.212,10.215,10.215,0,0,0,4.109-7.585,9.824,9.824,0,0,0-3.16-7.9A110.752,110.752,0,0,0,62.773,137.3a31.037,31.037,0,0,0,8.217-19.279C71.939,103.8,60.877,90.528,46.339,88c-.948.316-2.844,0-4.741,0Z" transform="translate(-6.931 -88)" fill="#33364f"/>
      </g>
      <g id="Group_571" data-name="Group 571" transform="translate(76.069 193.674)">
        <ellipse id="Ellipse_30" data-name="Ellipse 30" cx="11.062" cy="9.481" rx="11.062" ry="9.481" transform="translate(3.16 3.16)" fill="#f4d152"/>
        <path id="Path_434" data-name="Path 434" d="M45.222,119.321c4.425,0,7.9,2.844,7.9,6.321s-3.477,6.321-7.9,6.321-7.9-2.844-7.9-6.321,3.477-6.321,7.9-6.321m0-6.321C37.321,113,31,118.689,31,125.642s6.321,12.642,14.222,12.642,14.222-5.689,14.222-12.642S53.123,113,45.222,113Z" transform="translate(-31 -113)" fill="#33364f"/>
      </g>
      <ellipse id="Ellipse_31" data-name="Ellipse 31" cx="14.222" cy="12.642" rx="14.222" ry="12.642" transform="translate(85.551 146.266)" opacity="0.122"/>
      <g id="Group_572" data-name="Group 572" transform="translate(85.551 139.945)">
        <ellipse id="Ellipse_32" data-name="Ellipse 32" cx="11.062" cy="9.481" rx="11.062" ry="9.481" transform="translate(3.16 3.16)" fill="#f4d152"/>
        <path id="Path_435" data-name="Path 435" d="M48.222,102.321c4.425,0,7.9,2.844,7.9,6.321s-3.477,6.321-7.9,6.321-7.9-2.844-7.9-6.321,3.477-6.321,7.9-6.321m0-6.321C40.321,96,34,101.689,34,108.642s6.321,12.642,14.222,12.642,14.222-5.689,14.222-12.642S56.123,96,48.222,96Z" transform="translate(-34 -96)" fill="#33364f"/>
      </g>
      <path id="Path_436" data-name="Path 436" d="M268.116,71.611A10.01,10.01,0,0,1,258,80.777h-.948l-32.869-3.16h0a9.634,9.634,0,0,1-6.953-3.793,10,10,0,0,1-1.9-7.9l5.373-31.289A10.481,10.481,0,0,1,230.822,26.1h1.9a10.185,10.185,0,0,1,8.217,12.01l-3.477,20.543,21.491,1.9h.632A10.379,10.379,0,0,1,268.116,71.611Z" transform="translate(363.079 -0.5)" opacity="0.122"/>
      <path id="Path_437" data-name="Path 437" d="M276.213,27.637a9.633,9.633,0,0,0-6.953-3.793h0L236.074,21h-.948a10.066,10.066,0,0,0-10.114,9.481,10.633,10.633,0,0,0,8.849,11.062h.632l22.123,1.9-3.477,20.543a10.094,10.094,0,0,0,8.533,11.694h1.58a10.181,10.181,0,0,0,10.114-8.533l5.057-31.6A10.538,10.538,0,0,0,276.213,27.637Zm-43.615.632a1.642,1.642,0,0,1,1.264-.632,2.4,2.4,0,0,0-1.264.632,1.738,1.738,0,0,0-.948,1.58C231.65,29.217,232.282,28.9,232.6,28.269Z" transform="translate(384.374 -11.519)" opacity="0.122"/>
      <g id="Group_573" data-name="Group 573" transform="translate(574.74 18.015)">
        <path id="Path_438" data-name="Path 438" d="M255,73.372h-.632L221.5,70.211a8.212,8.212,0,0,1-5.057-2.844,6.607,6.607,0,0,1-1.264-5.373L220.551,30.7a7.107,7.107,0,0,1,6.953-6h1.264a7.143,7.143,0,0,1,5.689,8.217l-4.109,24.02,25.284,2.528A6.967,6.967,0,0,1,255,73.372Z" transform="translate(-211.819 -21.54)" fill="#f4d152"/>
        <path id="Path_439" data-name="Path 439" d="M229.722,30.021h.632a3.868,3.868,0,0,1,3.161,4.425l-4.741,27.18,28.76,2.844a3.817,3.817,0,0,1,3.477,4.109,4.04,4.04,0,0,1-3.793,3.477H256.9L224.033,68.9h0a3.223,3.223,0,0,1-2.528-1.58,3.675,3.675,0,0,1-.632-3.16l5.373-31.289c0-1.58,1.58-2.844,3.477-2.844m0-6.321h0a10.181,10.181,0,0,0-10.114,8.533l-5.373,31.289a10.382,10.382,0,0,0,8.849,12.01h0l32.869,3.16h.948a10.031,10.031,0,0,0,10.114-9.165c.632-5.373-3.16-10.114-8.849-11.062h-.632l-21.491-2.212,3.477-20.543A10.1,10.1,0,0,0,231.3,24.016a2.849,2.849,0,0,0-1.58-.316Z" transform="translate(-214.037 -23.7)" fill="#33364f"/>
      </g>
      <g id="Group_574" data-name="Group 574" transform="translate(607.788)">
        <path id="Path_440" data-name="Path 440" d="M260.5,67.356h-1.264c-3.793-.632-6.321-4.425-6-8.217l3.793-24.02-25.284-2.212c-4.109-.632-6.637-3.793-6.321-7.585A6.891,6.891,0,0,1,232.371,19H233l32.869,2.844a8.213,8.213,0,0,1,5.057,2.844,6.607,6.607,0,0,1,1.264,5.373l-5.057,31.289A6.564,6.564,0,0,1,260.5,67.356Z" transform="translate(-222.555 -15.84)" fill="#f4d152"/>
        <path id="Path_441" data-name="Path 441" d="M234.626,24.321h.316l32.869,2.844h0a3.223,3.223,0,0,1,2.528,1.58,3.675,3.675,0,0,1,.632,3.16l-5.057,31.6a3.754,3.754,0,0,1-3.793,3.16h-.632a3.711,3.711,0,0,1-3.16-4.425l4.425-27.18-28.761-2.528a3.817,3.817,0,0,1-3.477-4.109,4.4,4.4,0,0,1,4.109-4.109m0-6.321h0a10.066,10.066,0,0,0-10.114,9.481,10.633,10.633,0,0,0,8.849,11.062h.632l22.123,1.9-3.477,20.543a10.094,10.094,0,0,0,8.533,11.694h1.58a10.181,10.181,0,0,0,10.114-8.533l5.057-31.6a11.422,11.422,0,0,0-1.9-7.9,9.633,9.633,0,0,0-6.953-3.793h0L235.574,18Z" transform="translate(-224.494 -18)" fill="#33364f"/>
      </g>
    </g>
    <g id="Layer_11" transform="translate(171.434 73.448)">
      <path id="Path_442" data-name="Path 442" d="M120.591,140.8a11.219,11.219,0,0,1-5.689,6.321,49.679,49.679,0,0,1-21.491,4.741A54.082,54.082,0,0,1,55.484,136.37C40,120.568,35.573,95.916,44.739,76.321A11.26,11.26,0,0,1,54.852,70a12.681,12.681,0,0,1,4.741.948,11.219,11.219,0,0,1,5.689,6.321,11.408,11.408,0,0,1-.316,8.533c-5.057,11.378-2.528,25.916,6,34.765a32.34,32.34,0,0,0,34.765,6.321,11.154,11.154,0,0,1,4.425-.948,11.019,11.019,0,0,1,10.114,6.637C121.539,134.79,121.539,137.951,120.591,140.8Z" transform="translate(-40.001 -34.068)" opacity="0.122"/>
      <g id="Group_575" data-name="Group 575" transform="translate(39.273 9.165)" opacity="0.122">
        <path id="Path_443" data-name="Path 443" d="M129.529,137.384a10.982,10.982,0,0,1-10.114,6,10.008,10.008,0,0,1-5.057-1.264,11.219,11.219,0,0,1-5.689-6.321,11.473,11.473,0,0,1,.632-8.533c5.689-11.378,2.844-26.864-6-35.714A31.8,31.8,0,0,0,81.805,83.34a30.529,30.529,0,0,0-14.222,3.477A10.388,10.388,0,0,1,62.21,88.08a11.162,11.162,0,0,1-9.8-5.689,10.122,10.122,0,0,1-.948-8.533,12.39,12.39,0,0,1,5.373-6.637A52.306,52.306,0,0,1,81.805,60.9a54.327,54.327,0,0,1,36.978,14.538C135.218,91.241,139.642,117.157,129.529,137.384Z" transform="translate(-50.931 -60.9)"/>
      </g>
      <g id="Group_576" data-name="Group 576" transform="translate(1.553 29.077)">
        <path id="Path_444" data-name="Path 444" d="M89.934,143.2a50.691,50.691,0,0,1-35.714-14.538C40,114.127,35.89,91.056,44.423,72.725A7.707,7.707,0,0,1,51.692,68.3a9.35,9.35,0,0,1,3.16.632,8.025,8.025,0,0,1,4.109,4.425,7.933,7.933,0,0,1-.316,6C52.957,91.688,55.8,107.806,65.282,117.6c6,6.321,15.17,9.8,24.652,9.8a32.732,32.732,0,0,0,13.59-2.844,11.229,11.229,0,0,1,3.16-.632,7.953,7.953,0,0,1,3.477,15.17A48.263,48.263,0,0,1,89.934,143.2Z" transform="translate(-36.827 -64.823)" fill="#f4d152"/>
        <path id="Path_445" data-name="Path 445" d="M53.862,73.521a4.009,4.009,0,0,1,1.9.316,4.412,4.412,0,0,1,2.212,6.321c-6.321,13.59-3.16,31.289,7.269,41.719,6.953,6.953,17.067,10.746,26.864,10.746a34.9,34.9,0,0,0,14.854-3.16,4.008,4.008,0,0,1,1.9-.316,4.767,4.767,0,0,1,4.425,2.844,5.033,5.033,0,0,1-2.212,6.321A43.615,43.615,0,0,1,92.1,142.42a47.608,47.608,0,0,1-33.5-13.59,46.866,46.866,0,0,1-9.165-52.464,5.352,5.352,0,0,1,4.425-2.844m0-6.321a11.26,11.26,0,0,0-10.114,6.321c-9.165,19.6-4.741,44.247,10.43,59.733A54.082,54.082,0,0,0,92.1,148.741,49.679,49.679,0,0,0,113.595,144a10.235,10.235,0,0,0,5.689-6.321,11.408,11.408,0,0,0-.316-8.533,11.556,11.556,0,0,0-10.114-6.637,10.1,10.1,0,0,0-4.425.948A31.81,31.81,0,0,1,92.1,125.985a33.221,33.221,0,0,1-22.439-8.849,31.431,31.431,0,0,1-6-34.765,11.348,11.348,0,0,0,.316-8.533,11.219,11.219,0,0,0-5.689-6.321c-1.264,0-2.844-.316-4.425-.316Z" transform="translate(-38.997 -67.2)" fill="#33364f"/>
      </g>
      <g id="Group_577" data-name="Group 577" transform="translate(39.589 0)">
        <path id="Path_446" data-name="Path 446" d="M117.115,135.068a6.371,6.371,0,0,1-3.477-.948,9.321,9.321,0,0,1-4.109-4.425,7.933,7.933,0,0,1,.316-6c6.321-12.642,3.477-29.709-6.637-39.506a35.178,35.178,0,0,0-23.7-9.165,33.345,33.345,0,0,0-15.8,3.793,8.416,8.416,0,0,1-3.793.948,7.853,7.853,0,0,1-6.953-4.109A7.966,7.966,0,0,1,56.117,64.9a49.782,49.782,0,0,1,23.7-6,51.533,51.533,0,0,1,34.765,13.59c15.17,14.538,19.279,38.874,9.8,57.837A7.506,7.506,0,0,1,117.115,135.068Z" transform="translate(-48.947 -56.056)" fill="#f4d152"/>
        <path id="Path_447" data-name="Path 447" d="M81.905,64.321a47.823,47.823,0,0,1,32.553,12.642c14.222,13.59,18.331,36.662,9.165,54.36a4.932,4.932,0,0,1-4.109,2.528,5.86,5.86,0,0,1-2.212-.632,5.152,5.152,0,0,1-2.212-6.321c6.953-13.906,3.793-32.237-7.269-42.983A37.655,37.655,0,0,0,81.905,73.8a33.921,33.921,0,0,0-17.383,4.425,5.859,5.859,0,0,1-2.212.632A4.932,4.932,0,0,1,58.2,76.331a4.7,4.7,0,0,1,1.9-6.321,42.361,42.361,0,0,1,21.807-5.689m0-6.321h0a51.4,51.4,0,0,0-24.968,6.321,12.39,12.39,0,0,0-5.373,6.637,10.244,10.244,0,0,0,.948,8.533,11.162,11.162,0,0,0,9.8,5.689,14.889,14.889,0,0,0,5.373-1.264,30.529,30.529,0,0,1,14.222-3.477A31.8,31.8,0,0,1,103.4,88.657c9.165,8.849,11.694,24.336,6,35.714a11.362,11.362,0,0,0-.632,8.533,10.235,10.235,0,0,0,5.689,6.321,13.251,13.251,0,0,0,5.057,1.264,10.85,10.85,0,0,0,9.8-6c10.114-20.227,5.689-46.143-10.43-61.63A53.75,53.75,0,0,0,81.905,58Z" transform="translate(-51.031 -58)" fill="#33364f"/>
      </g>
    </g>
  </g>
</svg>
