<svg xmlns="http://www.w3.org/2000/svg" width="769" height="696" viewBox="0 0 769 696">
  <g transform="translate(-6.937 -2)">
    <g transform="translate(8.931 211.875)">
      <g transform="translate(2.248 34.186)" opacity="0.2">
        <path d="M14.716,312.463,338.74,85.374a13.672,13.672,0,0,1,17.213,1.51l198.1,198.7a13.507,13.507,0,0,1-1.812,20.535L228.215,532.606A13.672,13.672,0,0,1,211,531.1L12.9,333A13.507,13.507,0,0,1,14.716,312.463Z" transform="translate(-9.011 -83.021)" />
      </g>
      <g>
        <path d="M223.727,530.8a15.967,15.967,0,0,1-11.475-4.832l-198.1-198.1a17.046,17.046,0,0,1-4.832-12.985,16.213,16.213,0,0,1,6.946-12.079L340.291,75.72a17.245,17.245,0,0,1,9.361-3.02,15.967,15.967,0,0,1,11.475,4.832l198.1,198.7a17.046,17.046,0,0,1,4.832,12.985,16.212,16.212,0,0,1-6.946,12.079L233.089,528.085A16.954,16.954,0,0,1,223.727,530.8Z" transform="translate(-6.2 -69.68)" fill="#fff" />
        <path d="M351.718,77.74a12.557,12.557,0,0,1,9.361,3.926l198.1,198.7a13.507,13.507,0,0,1-1.812,20.535L233.343,527.387a14.807,14.807,0,0,1-7.549,2.416,12.557,12.557,0,0,1-9.361-3.926l-198.1-198.1a13.525,13.525,0,0,1,1.812-20.535L344.169,80.155a13.214,13.214,0,0,1,7.549-2.416m0-6.04a18.976,18.976,0,0,0-11.173,3.624L16.521,302.412a19.254,19.254,0,0,0-8.153,14.193,18.416,18.416,0,0,0,5.738,15.4L212.2,530.1a19.387,19.387,0,0,0,13.891,5.738,18.976,18.976,0,0,0,11.173-3.624L561.292,305.432a19.293,19.293,0,0,0,2.416-29.594l-198.1-198.7A21.652,21.652,0,0,0,351.718,71.7Z" transform="translate(-8.266 -71.7)" fill="#33364f" />
      </g>
      <path d="M207.659,211.929-.707,3.564,3.564-.707,211.929,207.659Z" transform="translate(40.044 210.863)" fill="#33364f" />
      <path d="M2.89,163.272l-3.463-4.948L226.817-.819l3.463,4.948Z" transform="translate(139.968 24.315)" fill="#33364f" />
      <path d="M2.886,246.319l-3.459-4.951L346.1-.82l3.459,4.951Z" transform="translate(203.385 207.314)" fill="#33364f" />
      <path d="M2.855,37.371-.567,32.394,47.75-.824l3.422,4.977Z" transform="translate(34.289 252.904)" fill="#33364f" />
      <path d="M2.855,37.371-.567,32.394,47.75-.824l3.422,4.977Z" transform="translate(73.546 292.162)" fill="#33364f" />
      <path d="M2.869,58.5-.569,53.534,77.945-.822l3.438,4.966Z" transform="translate(103.739 219.69)" fill="#33364f" />
      <path d="M2.855,37.371-.567,32.394,47.75-.824l3.422,4.977Z" transform="translate(112.803 331.419)" fill="#33364f" />
      <path d="M2.023,26.179A3.02,3.02,0,0,1,.288,20.685L30.486-.454A3.02,3.02,0,1,1,33.95,4.494L3.752,25.632A3.006,3.006,0,0,1,2.023,26.179Z" transform="translate(151.185 131.757)" fill="#33364f" />
      <path d="M207.659,211.929-.707,3.564,3.564-.707,211.929,207.659Z" transform="translate(115.539 156.507)" fill="#33364f" />
      <path d="M23.451,27.722-.707,3.564,3.564-.707,27.722,23.451Z" transform="translate(203.113 96.111)" fill="#33364f" />
      <path d="M2.023,41.278A3.02,3.02,0,0,1,.279,35.79L51.615-.447A3.02,3.02,0,1,1,55.1,4.487L3.761,40.725A3.006,3.006,0,0,1,2.023,41.278Z" transform="translate(63.611 177.054)" fill="#33364f" />
      <path d="M2.023,32.218A3.02,3.02,0,0,1,.3,26.715L39.558-.463A3.02,3.02,0,1,1,43,4.5L3.739,31.681A3.006,3.006,0,0,1,2.023,32.218Z" transform="translate(75.69 198.192)" fill="#33364f" />
      <path d="M2.023,41.278A3.02,3.02,0,0,1,.279,35.79L51.615-.447A3.02,3.02,0,1,1,55.1,4.487L3.761,40.725A3.006,3.006,0,0,1,2.023,41.278Z" transform="translate(87.769 201.212)" fill="#33364f" />
      <path d="M2.023,35.238A3.02,3.02,0,0,1,.265,29.761L42.542-.437a3.02,3.02,0,0,1,3.51,4.915L3.775,34.675A3.006,3.006,0,0,1,2.023,35.238Z" transform="translate(99.849 219.331)" fill="#33364f" />
    </g>
    <g transform="translate(180.253 318.763)">
      <path d="M2.023,86.574A3.02,3.02,0,0,1,.3,81.072L118.073-.463A3.02,3.02,0,0,1,121.511,4.5L3.739,86.037A3.006,3.006,0,0,1,2.023,86.574Z" transform="translate(1 1)" fill="#96acc4" />
    </g>
    <g transform="translate(35.38 191.782)">
      <g transform="translate(0 256.8)">
        <path d="M22.989,156.04l18.421,7.852L27.821,174.158,22.989,156.04m0-6.04a6.36,6.36,0,0,0-3.926,1.51,5.794,5.794,0,0,0-1.812,6.04l4.53,18.119a6.113,6.113,0,0,0,3.926,4.228,4.477,4.477,0,0,0,2.114.3,5.8,5.8,0,0,0,3.624-1.208l13.589-10.267a5.56,5.56,0,0,0,2.416-5.436,6,6,0,0,0-3.624-4.832L25.4,150.6a7.108,7.108,0,0,0-2.416-.6Z" transform="translate(-17.025 -150)" fill="#33364f" />
      </g>
      <g transform="translate(39.182 296.057)">
        <g>
          <path d="M47.817,169.04l8.757,8.455L44.5,185.95,36.04,177.5l11.777-8.455m0-6.04a5.8,5.8,0,0,0-3.624,1.208l-11.777,8.455A5.324,5.324,0,0,0,30,177.193a6.858,6.858,0,0,0,1.812,4.832l8.455,8.455a5.962,5.962,0,0,0,4.228,1.812,5.8,5.8,0,0,0,3.624-1.208L60.2,182.629a5.324,5.324,0,0,0,2.416-4.53,6.858,6.858,0,0,0-1.812-4.832l-8.757-8.455A5.962,5.962,0,0,0,47.817,163Z" transform="translate(-30 -163)" fill="#33364f" />
        </g>
      </g>
      <g transform="translate(81.446 338.334)">
        <g>
          <path d="M57.6,183.04a8.543,8.543,0,0,1,6.04,2.718,7.764,7.764,0,0,1-.6,11.173,8.2,8.2,0,0,1-5.134,1.812,8.543,8.543,0,0,1-6.04-2.718,7.764,7.764,0,0,1,.6-11.173A8.2,8.2,0,0,1,57.6,183.04m0-6.04h0a13.569,13.569,0,0,0-9.965,22.95,13.7,13.7,0,1,0,20.535-18.119A13.974,13.974,0,0,0,57.6,177Z" transform="translate(-43.996 -177)" fill="#33364f" />
        </g>
      </g>
      <path d="M2.022,14.1A3.02,3.02,0,0,1,.208,8.663L12.287-.4a3.02,3.02,0,0,1,3.624,4.832L3.832,13.5A3.007,3.007,0,0,1,2.022,14.1Z" transform="translate(188.152 221.562)" fill="#f4d152" />
      <path transform="translate(268.686 311.156)" fill="#f4d152" />
      <path d="M2.022,14.1A3.02,3.02,0,0,1,.208,8.663L12.287-.4a3.02,3.02,0,0,1,3.624,4.832L3.832,13.5A3.007,3.007,0,0,1,2.022,14.1Z" transform="translate(263.646 221.562)" fill="#e9eaec" />
      <path d="M2.023,26.179A3.02,3.02,0,0,1,.288,20.685L30.486-.454A3.02,3.02,0,1,1,33.95,4.494L3.752,25.632A3.006,3.006,0,0,1,2.023,26.179Z" transform="translate(212.31 191.364)" fill="#96acc4" />
      <path d="M2.023,23.159A3.02,3.02,0,0,1,.345,17.626L27.523-.493a3.02,3.02,0,0,1,3.35,5.025L3.7,22.651A3.006,3.006,0,0,1,2.023,23.159Z" transform="translate(269.686 266.859)" fill="#e9eaec" />
      <path d="M2.023,26.179A3.02,3.02,0,0,1,.288,20.685L30.486-.454A3.02,3.02,0,1,1,33.95,4.494L3.752,25.632A3.006,3.006,0,0,1,2.023,26.179Z" transform="translate(248.547 245.72)" fill="#96acc4" />
      <path d="M2.023,17.119A3.02,3.02,0,0,1,.345,11.587L18.464-.493a3.02,3.02,0,1,1,3.35,5.025L3.7,16.612A3.006,3.006,0,0,1,2.023,17.119Z" transform="translate(233.448 239.681)" fill="#f4d152" />
      <path d="M2.022,14.1A3.02,3.02,0,0,1,.208,8.663L12.287-.4a3.02,3.02,0,0,1,3.624,4.832L3.832,13.5A3.007,3.007,0,0,1,2.022,14.1Z" transform="translate(215.33 227.602)" fill="#f4d152" />
      <path d="M2.023,32.218A3.02,3.02,0,0,1,.3,26.715L39.558-.463A3.02,3.02,0,1,1,43,4.5L3.739,31.681A3.006,3.006,0,0,1,2.023,32.218Z" transform="translate(278.745 294.037)" fill="#e9eaec" />
      <path d="M2.023,20.139A3.02,3.02,0,0,1,.265,14.662L21.4-.437a3.02,3.02,0,0,1,3.51,4.915L3.775,19.576A3.006,3.006,0,0,1,2.023,20.139Z" transform="translate(236.468 206.463)" fill="#96acc4" />
      <path d="M148.384,121.021h0a15.77,15.77,0,0,1,11.178,4.748l.012.012,5.642,5.707a3.02,3.02,0,1,1-4.3,4.246l-5.633-5.7a9.774,9.774,0,0,0-6.9-2.976,1.844,1.844,0,0,0-1.027.058,9.6,9.6,0,0,0-4.5,1.743l-9.6,6.752a3.02,3.02,0,0,1-3.475-4.94l9.593-6.749a15.784,15.784,0,0,1,7.3-2.808,5.034,5.034,0,0,0,1.705-.1ZM116.7,140.549a3.02,3.02,0,0,1,1.74,5.49l-14.819,10.425a3.02,3.02,0,1,1-3.475-4.94L114.97,141.1A3.006,3.006,0,0,1,116.7,140.549Zm59.1,2.928a3.01,3.01,0,0,1,2.148.9l12.738,12.885a3.02,3.02,0,1,1-4.3,4.246L173.659,148.62a3.02,3.02,0,0,1,2.147-5.143ZM87.067,161.4a3.02,3.02,0,0,1,1.74,5.49l-6.044,4.252-.013.009a10.462,10.462,0,0,0-4.438,6.8,3.02,3.02,0,0,1-5.951-1.03A16.454,16.454,0,0,1,79.295,166.2l6.037-4.247A3.006,3.006,0,0,1,87.067,161.4Zm114.216,7.848a3.011,3.011,0,0,1,2.148.9l12.738,12.885a3.02,3.02,0,0,1-4.3,4.246L199.135,174.39a3.02,3.02,0,0,1,2.147-5.143Zm-118.4,20.664a3.01,3.01,0,0,1,2.151.9l12.72,12.9a3.02,3.02,0,1,1-4.3,4.24l-12.72-12.9a3.02,3.02,0,0,1,2.15-5.14Zm143.877,5.107a3.011,3.011,0,0,1,2.148.9L241.644,208.8a3.02,3.02,0,0,1-4.3,4.246l-12.738-12.885a3.02,3.02,0,0,1,2.147-5.143Zm-118.438,20.7a3.01,3.01,0,0,1,2.151.9l12.72,12.9a3.02,3.02,0,1,1-4.3,4.24l-12.72-12.9a3.02,3.02,0,0,1,2.15-5.14Zm143.914,5.071a3.01,3.01,0,0,1,2.148.9l9.677,9.788.042.043a16.975,16.975,0,0,1,3,4.336,3.02,3.02,0,1,1-5.443,2.617,10.937,10.937,0,0,0-1.919-2.773l-9.654-9.766a3.02,3.02,0,0,1,2.147-5.143ZM133.76,241.525a3.01,3.01,0,0,1,2.151.9l12.72,12.9a3.02,3.02,0,1,1-4.3,4.24l-12.72-12.9a3.02,3.02,0,0,1,2.15-5.14Zm126.8,8.937a3.02,3.02,0,0,1,1.875,5.389c-.181.143-.368.285-.556.421l-.03.022-14.314,10.142a3.02,3.02,0,0,1-3.492-4.928l14.3-10.131c.117-.086.234-.174.347-.264A3.007,3.007,0,0,1,260.556,250.462ZM159.2,267.332a3.01,3.01,0,0,1,2.151.9l12.72,12.9a3.02,3.02,0,0,1-4.3,4.24l-12.72-12.9a3.02,3.02,0,0,1,2.15-5.14Zm71.8,4.095a3.02,3.02,0,0,1,1.748,5.484l-14.784,10.475a3.02,3.02,0,0,1-3.492-4.928l14.784-10.475A3.006,3.006,0,0,1,231,271.427Zm-29.568,20.95a3.02,3.02,0,0,1,1.748,5.484l-1.428,1.012a15.755,15.755,0,0,1-9.132,2.91,16.082,16.082,0,0,1-9.732-3.321,3.02,3.02,0,0,1,3.677-4.792,9.874,9.874,0,0,0,6.055,2.074,9.743,9.743,0,0,0,5.645-1.8l1.423-1.009A3.006,3.006,0,0,1,201.431,292.377Z" transform="translate(94.651 48.267)" fill="#f06161" />
      <path d="M82.218,179.76,214.787,314.745a14,14,0,0,0,18.723,1.812l76.7-54.054c7.55-5.436,8.455-16.911,2.114-23.856L179.456,104.568a14,14,0,0,0-18.723-1.812L84.332,155.9A16.327,16.327,0,0,0,82.218,179.76Z" transform="translate(106.141 5.772)" opacity="0.059" />
      <path d="M89.747,172.979,267.009,353.865a19.041,19.041,0,0,0,25.366,2.416l102.673-72.475c9.965-7.549,11.173-22.648,2.718-32.01L219.9,72.118A18.652,18.652,0,0,0,194.836,69.7L92.465,140.969A21.816,21.816,0,0,0,89.747,172.979Z" transform="translate(118.242 -62.941)" fill="#fff" />
      <path d="M208.129,64.961h0a21.536,21.536,0,0,1,15.977,7.092l8.141,8.224a3.02,3.02,0,0,1-4.292,4.249l-8.181-8.264q-.041-.041-.08-.084A15.567,15.567,0,0,0,208.129,71a16.017,16.017,0,0,0-9.491,3.16l-.056.04-9.415,6.554a3.02,3.02,0,0,1-3.451-4.957l9.387-6.535A22.014,22.014,0,0,1,208.129,64.961Zm-35.56,20.647a3.02,3.02,0,0,1,1.728,5.5l-22.305,15.528a3.02,3.02,0,0,1-3.451-4.957L170.846,86.15A3.006,3.006,0,0,1,172.569,85.608Zm70.279,6.651a3.011,3.011,0,0,1,2.146.9l19.12,19.315a3.02,3.02,0,0,1-4.292,4.249L240.7,97.4a3.02,3.02,0,0,1,2.146-5.144ZM135.393,111.488a3.02,3.02,0,0,1,1.728,5.5l-22.305,15.528a3.02,3.02,0,0,1-3.451-4.957l22.305-15.528A3.006,3.006,0,0,1,135.393,111.488Zm139.322,12.962a3.011,3.011,0,0,1,2.146.9l19.12,19.315a3.02,3.02,0,1,1-4.292,4.249l-19.12-19.315a3.02,3.02,0,0,1,2.146-5.144Zm-176.5,12.918a3.02,3.02,0,0,1,1.728,5.5l-3.683,2.564a18.761,18.761,0,0,0-7.09,17.157,3.02,3.02,0,1,1-6,.723,24.817,24.817,0,0,1,9.485-22.73q.048-.037.1-.071l3.735-2.6A3.006,3.006,0,0,1,98.218,137.369Zm208.364,19.274a3.01,3.01,0,0,1,2.146.9l19.12,19.315a3.02,3.02,0,0,1-4.292,4.249l-19.12-19.315a3.02,3.02,0,0,1,2.146-5.144ZM94.994,175.272a3.01,3.01,0,0,1,2.157.906l19.022,19.411a3.02,3.02,0,0,1-4.314,4.227L92.837,180.406a3.02,3.02,0,0,1,2.157-5.133Zm243.455,13.562a3.011,3.011,0,0,1,2.146.9l19.12,19.315a3.02,3.02,0,1,1-4.292,4.249L336.3,193.978a3.02,3.02,0,0,1,2.146-5.144ZM126.7,207.624a3.011,3.011,0,0,1,2.157.906l19.022,19.411a3.02,3.02,0,0,1-4.314,4.227l-19.022-19.411a3.02,3.02,0,0,1,2.157-5.133Zm243.618,13.4a3.01,3.01,0,0,1,2.146.9l19.12,19.315a3.02,3.02,0,1,1-4.292,4.249L368.17,226.17a3.02,3.02,0,0,1,2.146-5.144ZM158.4,239.976a3.011,3.011,0,0,1,2.157.906l19.022,19.411a3.02,3.02,0,1,1-4.314,4.227L156.246,245.11a3.02,3.02,0,0,1,2.157-5.133Zm243.457,13.517a3.017,3.017,0,0,1,2.534,1.374,25.314,25.314,0,0,1-1.086,29,3.02,3.02,0,0,1-4.776-3.7,19.277,19.277,0,0,0,.8-22.006,3.02,3.02,0,0,1,2.529-4.667ZM190.106,272.329a3.011,3.011,0,0,1,2.157.906l19.022,19.411a3.02,3.02,0,0,1-4.314,4.227L187.95,277.462a3.02,3.02,0,0,1,2.157-5.133Zm196.6,17.792a3.02,3.02,0,0,1,1.744,5.487l-22.2,15.673a3.02,3.02,0,0,1-3.483-4.934l22.2-15.673A3.006,3.006,0,0,1,386.7,290.121ZM221.81,304.681a3.011,3.011,0,0,1,2.157.906L242.99,325a3.02,3.02,0,0,1-4.314,4.227l-19.022-19.411a3.02,3.02,0,0,1,2.157-5.133ZM349.7,316.243a3.02,3.02,0,0,1,1.744,5.487l-22.2,15.673a3.02,3.02,0,1,1-3.483-4.934l22.2-15.673A3.006,3.006,0,0,1,349.7,316.243Zm-96.182,20.79a3.01,3.01,0,0,1,2.157.906l15.515,15.832.069.073a16.1,16.1,0,0,0,3.222,2.707,3.02,3.02,0,0,1-3.242,5.1,22.133,22.133,0,0,1-4.4-3.682l-15.482-15.8a3.02,3.02,0,0,1,2.157-5.133Zm59.176,5.332a3.02,3.02,0,0,1,1.744,5.487l-18.278,12.9a22.565,22.565,0,0,1-4.788,2.669,3.02,3.02,0,0,1-2.275-5.595,16.518,16.518,0,0,0,3.521-1.966l.04-.029,18.3-12.916A3.007,3.007,0,0,1,312.69,342.365Z" transform="translate(116.221 -64.961)" fill="#f06161" />
      <path d="M2.023,11.08A3.02,3.02,0,0,1,.345,5.547L9.4-.493a3.02,3.02,0,1,1,3.35,5.025L3.7,10.572A3.006,3.006,0,0,1,2.023,11.08Z" transform="translate(227.409 85.671)" fill="#f06161" />
      <path d="M2.023,11.08A3.02,3.02,0,0,1,.345,5.547L9.4-.493a3.02,3.02,0,1,1,3.35,5.025L3.7,10.572A3.006,3.006,0,0,1,2.023,11.08Z" transform="translate(227.409 85.671)" fill="#f06161" />
      <path d="M2.023,11.08A3.02,3.02,0,0,1,.345,5.547L9.4-.493a3.02,3.02,0,1,1,3.35,5.025L3.7,10.572A3.006,3.006,0,0,1,2.023,11.08Z" transform="translate(275.726 106.81)" fill="#f06161" />
      <path d="M2.023,26.179A3.02,3.02,0,0,1,.288,20.685L30.486-.454A3.02,3.02,0,1,1,33.95,4.494L3.752,25.632A3.006,3.006,0,0,1,2.023,26.179Z" transform="translate(293.844 52.454)" fill="#96acc4" />
      <path d="M2.023,20.139A3.02,3.02,0,0,1,.265,14.662L21.4-.437a3.02,3.02,0,0,1,3.51,4.915L3.775,19.576A3.006,3.006,0,0,1,2.023,20.139Z" transform="translate(260.627 82.652)" fill="#f06161" />
      <path d="M2.023,20.139A3.02,3.02,0,0,1,.265,14.662L21.4-.437a3.02,3.02,0,0,1,3.51,4.915L3.775,19.576A3.006,3.006,0,0,1,2.023,20.139Z" transform="translate(296.864 82.652)" fill="#96acc4" />
      <path d="M2.023,20.139A3.02,3.02,0,0,1,.265,14.662L21.4-.437a3.02,3.02,0,0,1,3.51,4.915L3.775,19.576A3.006,3.006,0,0,1,2.023,20.139Z" transform="translate(336.121 158.146)" fill="#f06161" />
      <path d="M2.023,11.08A3.02,3.02,0,0,1,.345,5.547L9.4-.493a3.02,3.02,0,1,1,3.35,5.025L3.7,10.572A3.006,3.006,0,0,1,2.023,11.08Z" transform="translate(290.824 121.909)" fill="#f06161" />
      <path d="M2.023,17.119A3.02,3.02,0,0,1,.345,11.587L18.464-.493a3.02,3.02,0,1,1,3.35,5.025L3.7,16.612A3.006,3.006,0,0,1,2.023,17.119Z" transform="translate(351.22 124.929)" fill="#96acc4" />
      <path d="M2.023,17.119A3.02,3.02,0,0,1,.345,11.587L18.464-.493a3.02,3.02,0,1,1,3.35,5.025L3.7,16.612A3.006,3.006,0,0,1,2.023,17.119Z" transform="translate(405.577 140.028)" fill="#96acc4" />
      <path d="M2.023,17.119A3.02,3.02,0,0,1,.345,11.587L18.464-.493a3.02,3.02,0,1,1,3.35,5.025L3.7,16.612A3.006,3.006,0,0,1,2.023,17.119Z" transform="translate(390.478 176.265)" fill="#f06161" />
      <path d="M2.023,17.119A3.02,3.02,0,0,1,.345,11.587L18.464-.493a3.02,3.02,0,1,1,3.35,5.025L3.7,16.612A3.006,3.006,0,0,1,2.023,17.119Z" transform="translate(420.676 155.127)" fill="#96acc4" />
      <path d="M2.023,20.139A3.02,3.02,0,0,1,.265,14.662L21.4-.437a3.02,3.02,0,0,1,3.51,4.915L3.775,19.576A3.006,3.006,0,0,1,2.023,20.139Z" transform="translate(339.141 103.79)" fill="#96acc4" />
      <path d="M2.023,23.159A3.02,3.02,0,0,1,.345,17.626L27.523-.493a3.02,3.02,0,0,1,3.35,5.025L3.7,22.651A3.006,3.006,0,0,1,2.023,23.159Z" transform="translate(393.497 212.503)" fill="#f06161" />
      <path d="M2.023,20.139A3.02,3.02,0,0,1,.265,14.662L21.4-.437a3.02,3.02,0,0,1,3.51,4.915L3.775,19.576A3.006,3.006,0,0,1,2.023,20.139Z" transform="translate(305.924 127.949)" fill="#f06161" />
      <path d="M2.023,17.119A3.02,3.02,0,0,1,.345,11.587L18.464-.493a3.02,3.02,0,1,1,3.35,5.025L3.7,16.612A3.006,3.006,0,0,1,2.023,17.119Z" transform="translate(321.022 146.067)" fill="#f06161" />
      <path d="M2.023,17.119A3.02,3.02,0,0,1,.345,11.587L18.464-.493a3.02,3.02,0,1,1,3.35,5.025L3.7,16.612A3.006,3.006,0,0,1,2.023,17.119Z" transform="translate(375.379 161.166)" fill="#f06161" />
      <path d="M2.023,26.179A3.02,3.02,0,0,1,.288,20.685L30.486-.454A3.02,3.02,0,1,1,33.95,4.494L3.752,25.632A3.006,3.006,0,0,1,2.023,26.179Z" transform="translate(432.755 182.305)" fill="#96acc4" />
      <path transform="translate(250.567 78.632)" fill="#f06161" />
      <path transform="translate(395.518 259.82)" fill="#f06161" />
      <path transform="translate(371.359 151.107)" fill="#f06161" />
      <path transform="translate(404.577 202.444)" fill="#f06161" />
      <path d="M2.023,26.179A3.02,3.02,0,0,1,.288,20.685L30.486-.454A3.02,3.02,0,1,1,33.95,4.494L3.752,25.632A3.006,3.006,0,0,1,2.023,26.179Z" transform="translate(311.963 91.711)" fill="#96acc4" />
    </g>
    <g transform="translate(258.813 2)">
      <g transform="translate(0 102.739)" opacity="0.071">
        <path d="M100.932,138.025l140.42-97.841c9.361-6.342,21.742-5.436,29.594,2.718L497.733,269.084a23.08,23.08,0,0,1-3.02,35.332L353.99,403.163a23.379,23.379,0,0,1-29.9-2.718L97.61,173.356A23.312,23.312,0,0,1,100.932,138.025Z" transform="translate(-91.017 -36.022)" />
      </g>
      <path d="M116.51,116.044,273.539,10.049c10.267-7.248,29.594-6.04,38.653,3.02L572.5,270.053c12.985,17.817,5.738,33.52-7.55,42.881L406.712,424.063c-11.475,7.851-24.158,6.342-33.52-3.02L115,161.944C98.089,145.336,101.713,128.727,116.51,116.044Z" transform="translate(-65.224 4.748)" fill="#5e6282" />
      <path d="M292.525,4.341c9.523,0,18.427,3.218,23.82,8.609l260.3,256.974a3.018,3.018,0,0,1,.319.37c6.028,8.271,8.4,16.637,7.037,24.865a29.925,29.925,0,0,1-5.336,12.565,41.5,41.5,0,0,1-9.951,9.7L410.467,428.554l-.03.021a30.193,30.193,0,0,1-16.979,5.584c-7.472,0-14.52-3.1-20.382-8.96L114.893,166.108c-8.321-8.176-12.389-16.777-12.091-25.564.3-8.744,5.055-17.311,13.762-24.774a3.022,3.022,0,0,1,.276-.21l157-105.977C278.647,6.2,285.28,4.341,292.525,4.341Zm279.7,269.706L312.091,17.237l-.014-.014c-4.285-4.285-11.594-6.843-19.552-6.843-5.934,0-11.483,1.514-15.224,4.155l-.052.036-156.883,105.9c-7.306,6.3-11.291,13.314-11.527,20.282-.238,7.03,3.226,14.115,10.3,21.06l.023.023,258.192,259.1c4.7,4.7,10.272,7.188,16.107,7.188a23.864,23.864,0,0,0,13.556-4.52L565.233,312.483c7.136-5.028,11.685-11.53,12.8-18.307C579.112,287.665,577.155,280.895,572.22,274.047Z" transform="translate(-67.244 2.728)" fill="#5e6282" />
      <g transform="translate(36.431)">
        <path d="M390.941,428.187a23.751,23.751,0,0,1-16.911-6.945L111.006,157.311a23.871,23.871,0,0,1-6.946-19.025,23.267,23.267,0,0,1,10.267-17.515L277.095,7.228A24.108,24.108,0,0,1,290.684,3a23.751,23.751,0,0,1,16.911,6.946L570.921,272.668a24.039,24.039,0,0,1-3.02,36.539L404.53,423.959A24.107,24.107,0,0,1,390.941,428.187Z" transform="translate(-101.285 0.02)" fill="#fafafa" />
        <path d="M292.782,8.04h0a21.035,21.035,0,0,1,14.8,6.04L570.905,276.8a20.492,20.492,0,0,1,6.039,16.609,21.35,21.35,0,0,1-8.757,15.4L404.816,423.563a21.344,21.344,0,0,1-12.079,3.926,20.52,20.52,0,0,1-14.8-6.04L114.916,157.217a21.535,21.535,0,0,1-6.04-16.609,22.4,22.4,0,0,1,8.757-15.4L280.4,11.663A23.521,23.521,0,0,1,292.782,8.04m0-6.04a25.885,25.885,0,0,0-15.4,4.832L114.614,120.376a26.829,26.829,0,0,0-3.624,41.069l263.024,263.93a26.988,26.988,0,0,0,19.025,7.851,25.885,25.885,0,0,0,15.4-4.832L571.811,313.643a27.033,27.033,0,0,0,3.624-41.069L312.109,9.851A28.232,28.232,0,0,0,292.782,2Z" transform="translate(-103.081 -2)" fill="#33364f" />
      </g>
      <path d="M4.045,31.219A6.04,6.04,0,0,1,.576,20.231L30.774-.908a6.04,6.04,0,0,1,6.927,9.9L7.5,30.126A6.012,6.012,0,0,1,4.045,31.219Z" transform="translate(125.761 59.376)" fill="#33364f" />
      <path d="M2.023,19.837A3.02,3.02,0,0,1,.288,14.343L21.427-.454A3.02,3.02,0,0,1,24.89,4.494L3.752,19.291A3.006,3.006,0,0,1,2.023,19.837Z" transform="translate(200.256 17.005)" fill="#ccc" />
      <path d="M2.023,19.837A3.02,3.02,0,0,1,.288,14.343L21.427-.454A3.02,3.02,0,0,1,24.89,4.494L3.752,19.291A3.006,3.006,0,0,1,2.023,19.837Z" transform="translate(56.815 117.564)" fill="#ccc" />
      <path d="M2.023,8.664A3.02,3.02,0,0,1,.345,3.131L5.781-.493a3.02,3.02,0,1,1,3.35,5.025L3.7,8.156A3.006,3.006,0,0,1,2.023,8.664Z" transform="translate(94.865 101.861)" fill="#ccc" />
    </g>
    <g transform="translate(367.173 406.048)">
      <path d="M492.6,236.143c0,9.059-8.757,16.609-19.629,16.609a22.535,22.535,0,0,1-12.683-3.926l-51.94,36.238a14.126,14.126,0,0,1,2.718,8.455c0,9.059-8.757,16.609-19.629,16.609-10.267,0-19.025-6.945-19.629-15.7l-65.832-5.436c-3.322,5.436-9.965,9.059-17.515,9.059a24.027,24.027,0,0,1-11.475-3.02l-112.94,78.817a14.54,14.54,0,0,1,2.114,7.247c0,9.059-8.757,16.609-19.629,16.609S126.9,390.153,126.9,381.093s8.757-16.609,19.629-16.609a20.131,20.131,0,0,1,13.589,4.832L272.152,290.8a14.759,14.759,0,0,1-3.322-9.361c0-9.059,8.757-16.609,19.629-16.609a21.816,21.816,0,0,1,12.683,3.926L452.736,163.064a14.126,14.126,0,0,1-2.718-8.455c0-9.059,8.757-16.609,19.629-16.609s19.629,7.549,19.629,16.609-8.757,16.609-19.629,16.609a21.815,21.815,0,0,1-12.683-3.926L305.37,272.985a14.126,14.126,0,0,1,2.718,8.455v1.812l64.322,5.436c2.416-6.644,9.965-11.475,18.723-11.475a22.535,22.535,0,0,1,12.683,3.926l51.94-36.238a14.126,14.126,0,0,1-2.718-8.455c0-9.059,8.757-16.609,19.629-16.609S492.6,227.084,492.6,236.143Z" transform="translate(-126.9 -131.96)" opacity="0.122" />
      <path d="M2.89,88.683-.573,83.735,120.218-.819l3.463,4.948Z" transform="translate(26.322 152.355)" fill="#33364f" />
      <path d="M72.392,11.062-.083,5.022.419-1l72.475,6.04Z" transform="translate(175.282 148.977)" fill="#33364f" />
      <path d="M2.885,115.865l-3.457-4.952L159.477-.82l3.457,4.952Z" transform="translate(168.254 25.522)" fill="#33364f" />
      <path d="M2.89,46.406-.573,41.458,59.822-.819l3.463,4.948Z" transform="translate(270.925 107.058)" fill="#33364f" />
      <ellipse cx="16.609" cy="13.589" rx="16.609" ry="13.589" transform="translate(3.322 229.504)" fill="#f4d152" />
      <path d="M18.629-1A21.545,21.545,0,0,1,32.285,3.663a15.358,15.358,0,0,1,5.972,11.946,15.358,15.358,0,0,1-5.972,11.946,21.545,21.545,0,0,1-13.657,4.663A21.545,21.545,0,0,1,4.972,27.555,15.358,15.358,0,0,1-1,15.609,15.358,15.358,0,0,1,4.972,3.663,21.545,21.545,0,0,1,18.629-1Zm0,27.178c7.493,0,13.589-4.741,13.589-10.569S26.122,5.04,18.629,5.04,5.04,9.781,5.04,15.609,11.136,26.178,18.629,26.178Z" transform="translate(1.302 227.485)" fill="#33364f" />
      <ellipse cx="16.609" cy="13.589" rx="16.609" ry="13.589" transform="translate(326.44 3.02)" fill="#f4d152" />
      <path d="M18.629-1A21.545,21.545,0,0,1,32.285,3.663a15.358,15.358,0,0,1,5.972,11.946,15.358,15.358,0,0,1-5.972,11.946,21.545,21.545,0,0,1-13.657,4.663A21.545,21.545,0,0,1,4.972,27.555,15.358,15.358,0,0,1-1,15.609,15.358,15.358,0,0,1,4.972,3.663,21.545,21.545,0,0,1,18.629-1Zm0,27.178c7.493,0,13.589-4.741,13.589-10.569S26.122,5.04,18.629,5.04,5.04,9.781,5.04,15.609,11.136,26.178,18.629,26.178Z" transform="translate(324.42 1)" fill="#33364f" />
      <ellipse cx="16.609" cy="13.589" rx="16.609" ry="13.589" transform="translate(329.46 84.554)" fill="#f4d152" />
      <path d="M18.629-1A21.545,21.545,0,0,1,32.285,3.663a15.358,15.358,0,0,1,5.972,11.946,15.358,15.358,0,0,1-5.972,11.946,21.545,21.545,0,0,1-13.657,4.663A21.545,21.545,0,0,1,4.972,27.555,15.358,15.358,0,0,1-1,15.609,15.358,15.358,0,0,1,4.972,3.663,21.545,21.545,0,0,1,18.629-1Zm0,27.178c7.493,0,13.589-4.741,13.589-10.569S26.122,5.04,18.629,5.04,5.04,9.781,5.04,15.609,11.136,26.178,18.629,26.178Z" transform="translate(327.44 82.534)" fill="#33364f" />
      <ellipse cx="16.609" cy="13.589" rx="16.609" ry="13.589" transform="translate(145.252 129.851)" fill="#f4d152" />
      <path d="M18.629-1A21.545,21.545,0,0,1,32.285,3.663a15.358,15.358,0,0,1,5.972,11.946,15.358,15.358,0,0,1-5.972,11.946,21.545,21.545,0,0,1-13.657,4.663A21.545,21.545,0,0,1,4.972,27.555,15.358,15.358,0,0,1-1,15.609,15.358,15.358,0,0,1,4.972,3.663,21.545,21.545,0,0,1,18.629-1Zm0,27.178c7.493,0,13.589-4.741,13.589-10.569S26.122,5.04,18.629,5.04,5.04,9.781,5.04,15.609,11.136,26.178,18.629,26.178Z" transform="translate(143.232 127.831)" fill="#33364f" />
      <ellipse cx="16.609" cy="13.589" rx="16.609" ry="13.589" transform="translate(247.925 141.93)" fill="#f4d152" />
      <path d="M18.629-1A21.545,21.545,0,0,1,32.285,3.663a15.358,15.358,0,0,1,5.972,11.946,15.358,15.358,0,0,1-5.972,11.946,21.545,21.545,0,0,1-13.657,4.663A21.545,21.545,0,0,1,4.972,27.555,15.358,15.358,0,0,1-1,15.609,15.358,15.358,0,0,1,4.972,3.663,21.545,21.545,0,0,1,18.629-1Zm0,27.178c7.493,0,13.589-4.741,13.589-10.569S26.122,5.04,18.629,5.04,5.04,9.781,5.04,15.609,11.136,26.178,18.629,26.178Z" transform="translate(245.905 139.911)" fill="#33364f" />
    </g>
    <g transform="translate(6.937 29.782)">
      <path d="M129.42,141.25,293.7,26.2a5.988,5.988,0,0,1,7.851.6l89.386,90.292c2.718,2.718,2.114,6.946-.906,9.361L226.657,240c-2.416,1.51-5.738,1.51-7.549-.6l-89.99-89.084A5.655,5.655,0,0,1,129.42,141.25Z" transform="translate(232.536 16.685)" fill="#e9eaec" />
      <path d="M225.019,246.1a7.993,7.993,0,0,1-6.093-2.62l-89.867-88.962a9.047,9.047,0,0,1-3.045-7.217,8.566,8.566,0,0,1,3.694-6.508L293.948,25.767a8.882,8.882,0,0,1,5.325-1.761,9.042,9.042,0,0,1,6.43,2.678l.011.011L395.1,116.987a8.769,8.769,0,0,1,2.6,6.751,9.853,9.853,0,0,1-3.761,7.093l-.163.122L230.277,244.578A10.058,10.058,0,0,1,225.019,246.1ZM299.273,30.046a2.889,2.889,0,0,0-1.745.586l-.08.058L133.172,145.743a2.528,2.528,0,0,0-1.13,1.929,3.024,3.024,0,0,0,1.115,2.413l.1.1,90.078,89.171.08.094a2.069,2.069,0,0,0,1.6.616,4,4,0,0,0,2-.575L390.23,126.058a3.8,3.8,0,0,0,1.435-2.654,2.765,2.765,0,0,0-.847-2.157l-.011-.011L301.43,30.953A3.042,3.042,0,0,0,299.273,30.046Z" transform="translate(230.516 14.666)" fill="#33364f" />
      <path d="M136.532,97.318,207.2,48.1a5.988,5.988,0,0,1,7.851.6l71.569,71.569c2.718,2.718,2.114,6.946-.906,9.361l-70.663,49.223a5.988,5.988,0,0,1-7.851-.6L135.928,106.68A5.972,5.972,0,0,1,136.532,97.318Z" transform="translate(246.563 60.793)" fill="#96acc4" />
      <path d="M212.771,45.906a9.042,9.042,0,0,1,6.43,2.678l71.569,71.569a8.772,8.772,0,0,1,2.606,6.762,9.854,9.854,0,0,1-3.761,7.093l-.16.12-70.624,49.2a8.881,8.881,0,0,1-5.322,1.759,9.042,9.042,0,0,1-6.43-2.678L135.86,110.883a8.892,8.892,0,0,1-2.9-7.121,9.169,9.169,0,0,1,3.861-6.9l70.63-49.2A8.881,8.881,0,0,1,212.771,45.906Zm73.14,83.33a3.8,3.8,0,0,0,1.436-2.655,2.765,2.765,0,0,0-.847-2.157L214.931,52.855a3.042,3.042,0,0,0-2.16-.909,2.888,2.888,0,0,0-1.745.586l-.086.062-70.663,49.223a3.077,3.077,0,0,0-1.29,2.314,2.81,2.81,0,0,0,.98,2.325l.12.114,71.267,71.569a3.038,3.038,0,0,0,2.155.9,2.888,2.888,0,0,0,1.745-.586l.086-.062Z" transform="translate(244.543 58.775)" fill="#33364f" />
      <path d="M215.634,118.02l59.792-41.673a5.073,5.073,0,0,1,6.644.6l60.7,60.7a5.4,5.4,0,0,1-.6,7.851l-60.4,41.673a5.073,5.073,0,0,1-6.644-.6l-60.4-60.7A5.189,5.189,0,0,1,215.634,118.02Z" transform="translate(406.928 118.212)" fill="#f4d152" />
      <path d="M280.4,74.38a8.2,8.2,0,0,1,5.821,2.455l60.7,60.7a8.13,8.13,0,0,1,2.276,6.355,8.242,8.242,0,0,1-3.2,6.048l-.1.07-60.379,41.661a8.072,8.072,0,0,1-4.69,1.513,8.2,8.2,0,0,1-5.821-2.455L214.475,129.88a8.468,8.468,0,0,1-2.063-6.676,8.014,8.014,0,0,1,3.538-5.658L275.706,75.9A8.072,8.072,0,0,1,280.4,74.38Zm62,70.7a2.271,2.271,0,0,0,.768-1.617,2.141,2.141,0,0,0-.522-1.656l-60.7-60.7a2.207,2.207,0,0,0-1.551-.686,2.042,2.042,0,0,0-1.2.4l-.029.02-59.844,41.708A2.024,2.024,0,0,0,218.4,124a2.418,2.418,0,0,0,.57,1.844l60.315,60.617a2.2,2.2,0,0,0,1.545.681,2.042,2.042,0,0,0,1.2-.4l.04-.028Z" transform="translate(404.909 116.193)" fill="#33364f" />
      <path d="M215.7,71.815l13.891-9.663a1.348,1.348,0,0,1,1.51,0l12.683,12.683a1.138,1.138,0,0,1-.3,1.812L229.9,86.31a1.348,1.348,0,0,1-1.51,0L215.7,73.627C215.1,73.023,215.1,72.117,215.7,71.815Z" transform="translate(410.785 91.106)" fill="#e9eaec" />
      <path d="M232.482,60.925a3.885,3.885,0,0,1,2.777,1.111l12.683,12.683a4.078,4.078,0,0,1,1.16,3.572,4.2,4.2,0,0,1-1.976,2.927l-13.651,9.707-.209.1a5,5,0,0,1-2.219.545,3.885,3.885,0,0,1-2.777-1.111L215.588,77.782a4.426,4.426,0,0,1-1.285-3.811,3.815,3.815,0,0,1,1.812-2.7l13.954-9.707.2-.1A5,5,0,0,1,232.482,60.925Zm9.6,16.472-9.924-9.924L221.342,75l10.021,10.021Z" transform="translate(408.765 89.088)" fill="#33364f" />
      <ellipse cx="11.475" cy="9.663" rx="11.475" ry="9.663" transform="translate(514.757 61.302)" fill="#f06161" />
      <path d="M13.5-1c7.993,0,14.5,5.69,14.5,12.683s-6.5,12.683-14.5,12.683S-1,18.677-1,11.683,5.5-1,13.5-1Zm0,19.327c4.662,0,8.455-2.98,8.455-6.644S18.157,5.04,13.5,5.04,5.04,8.02,5.04,11.683,8.833,18.327,13.5,18.327Z" transform="translate(512.738 59.282)" fill="#33364f" />
      <ellipse cx="11.475" cy="9.663" rx="11.475" ry="9.663" transform="translate(600.821 174.98)" fill="#f4d152" />
      <path d="M13.5-1c7.993,0,14.5,5.69,14.5,12.683s-6.5,12.683-14.5,12.683S-1,18.677-1,11.683,5.5-1,13.5-1Zm0,19.327c4.662,0,8.455-2.98,8.455-6.644S18.157,5.04,13.5,5.04,5.04,8.02,5.04,11.683,8.833,18.327,13.5,18.327Z" transform="translate(598.801 172.962)" fill="#33364f" />
      <path d="M178.587,77.52,227.206,43.7a4.193,4.193,0,0,1,5.436.6l35.634,35.936a4.174,4.174,0,0,1-.6,6.342L219.656,120.4a4.083,4.083,0,0,1-5.134-.3L178.285,84.466C176.473,82.05,176.473,79.03,178.587,77.52Z" transform="translate(333.452 52.935)" fill="#f4d152" />
      <path d="M231.457,41.953a7.614,7.614,0,0,1,5.338,2.234l35.643,35.945a7.083,7.083,0,0,1,2.041,5.6,7.273,7.273,0,0,1-3.034,5.324l-.016.012-47.952,33.778a6.772,6.772,0,0,1-4.132,1.364,7,7,0,0,1-4.93-1.947l-36.39-35.783-.136-.182a8.956,8.956,0,0,1-1.839-6.641,6.858,6.858,0,0,1,2.8-4.574l.031-.022L227.43,43.288A6.522,6.522,0,0,1,231.457,41.953Zm36.484,44.184a1.227,1.227,0,0,0,.518-.9,1.037,1.037,0,0,0-.3-.841L232.516,48.449a1.57,1.57,0,0,0-1.059-.456.6.6,0,0,0-.346.084l-.162.121-48.6,33.808a.8.8,0,0,0-.332.575,2.876,2.876,0,0,0,.587,1.932l36.073,35.471a1.164,1.164,0,0,0,.668.186.766.766,0,0,0,.444-.107l.147-.111Z" transform="translate(331.433 50.915)" fill="#33364f" />
      <ellipse cx="13.589" cy="12.079" rx="13.589" ry="12.079" transform="translate(141.514 166.23)" opacity="0.122" />
      <g transform="translate(69.058 93.916)" opacity="0.122">
        <g transform="translate(0 0)">
          <path d="M98.734,101.488a118.966,118.966,0,0,0-14.8-12.381c5.134-5.738,8.153-12.079,8.455-18.723C93.3,57.1,83.031,45.018,69.14,42.6a32.822,32.822,0,0,0-5.436-.3C48.907,42.3,37.432,52.567,32,61.325c-2.718,4.53-.6,9.965,4.53,12.381a13.677,13.677,0,0,0,4.832.906,10.8,10.8,0,0,0,9.361-4.832c2.718-4.53,8.455-9.361,13.287-9.361h1.208c3.322.6,6.644,4.53,6.342,8.757-.3,4.53-4.228,9.663-9.965,13.287a8.635,8.635,0,0,0-4.53,7.549c0,3.02,1.812,5.738,4.832,7.549a99.226,99.226,0,0,1,20.837,15.7,11.468,11.468,0,0,0,14.8.6,9.17,9.17,0,0,0,3.624-6.342A7.5,7.5,0,0,0,98.734,101.488Z" transform="translate(-30.806 -42.3)" />
        </g>
      </g>
      <g transform="translate(68.833 84.856)">
        <path d="M88.782,110.259a8.05,8.05,0,0,1-5.436-2.114A103.094,103.094,0,0,0,61.906,91.838,6.767,6.767,0,0,1,58.282,86.1a7.345,7.345,0,0,1,3.322-6.04c6.644-3.926,10.569-9.361,10.871-14.8a11.047,11.047,0,0,0-8.757-11.173c-.6,0-1.208-.3-1.812-.3-6.342,0-12.683,5.436-16,10.871a7.88,7.88,0,0,1-6.644,3.624,10.856,10.856,0,0,1-3.322-.6,7.667,7.667,0,0,1-3.926-4.228,6.922,6.922,0,0,1,.6-5.436C37.748,49.863,48.317,40.2,61.6,40.2a27.633,27.633,0,0,1,4.832.3C78.817,42.616,88.178,54.091,87.272,66.17a30.8,30.8,0,0,1-9.361,19.025A136.282,136.282,0,0,1,94.218,98.482a7.072,7.072,0,0,1,2.114,5.134,6.652,6.652,0,0,1-2.718,4.832A6.858,6.858,0,0,1,88.782,110.259Z" transform="translate(-28.783 -37.482)" fill="#f4d152" />
        <path d="M63.855,45.34a19.937,19.937,0,0,1,4.228.3C78.954,47.453,87.409,57.721,86.5,67.988c-.6,6.946-4.53,14.193-11.475,19.629a116.186,116.186,0,0,1,19.025,15.1,3.588,3.588,0,0,1-.3,5.436,5.1,5.1,0,0,1-3.02.906,4.541,4.541,0,0,1-3.322-1.208A100.543,100.543,0,0,0,65.365,91.24a3.713,3.713,0,0,1-2.114-3.322A4.173,4.173,0,0,1,65.063,84.6c7.248-4.53,12.079-10.871,12.381-17.213A14.281,14.281,0,0,0,66.27,53.191c-.906,0-1.51-.3-2.416-.3-7.549,0-14.8,6.04-18.421,12.079a5.162,5.162,0,0,1-3.926,2.114,2.875,2.875,0,0,1-2.114-.6,3.759,3.759,0,0,1-1.812-5.436c5.134-8.153,15.1-15.7,26.272-15.7m0-6.04h0c-14.5,0-26.272,10.267-31.708,19.327a9.009,9.009,0,0,0-.906,7.851,11.157,11.157,0,0,0,5.436,6.342,12.117,12.117,0,0,0,4.53.906,10.649,10.649,0,0,0,9.059-4.832c2.718-4.53,8.455-9.361,13.287-9.361h1.208A8.083,8.083,0,0,1,71.1,67.384c-.3,4.228-3.926,9.059-9.663,12.381a10.008,10.008,0,0,0-4.832,8.455,10.32,10.32,0,0,0,5.134,8.455,99.225,99.225,0,0,1,20.837,15.7,11.915,11.915,0,0,0,7.549,3.02,12.388,12.388,0,0,0,6.644-2.114,9.76,9.76,0,0,0,3.926-7.248,9.387,9.387,0,0,0-3.02-7.549A105.82,105.82,0,0,0,83.785,86.711,29.655,29.655,0,0,0,91.637,68.29C92.543,54.7,81.973,42.018,68.082,39.6a14.864,14.864,0,0,0-4.228-.3Z" transform="translate(-30.731 -39.3)" fill="#33364f" />
      </g>
      <g transform="translate(141.514 160.196)">
        <ellipse cx="10.569" cy="9.059" rx="10.569" ry="9.059" transform="translate(3.02 3.02)" fill="#f4d152" />
        <path d="M68.389,70.34c4.228,0,7.549,2.718,7.549,6.04s-3.322,6.04-7.549,6.04S60.84,79.7,60.84,76.379s3.322-6.04,7.549-6.04m0-6.04C60.84,64.3,54.8,69.736,54.8,76.379s6.04,12.079,13.589,12.079,13.589-5.436,13.589-12.079S75.637,64.3,68.389,64.3Z" transform="translate(-54.8 -64.3)" fill="#33364f" />
      </g>
      <ellipse cx="13.589" cy="12.079" rx="13.589" ry="12.079" transform="translate(150.574 114.943)" opacity="0.122" />
      <g transform="translate(150.574 108.909)">
        <ellipse cx="10.569" cy="9.059" rx="10.569" ry="9.059" transform="translate(3.02 3.02)" fill="#f4d152" />
        <path d="M71.389,53.34c4.228,0,7.549,2.718,7.549,6.04s-3.322,6.04-7.549,6.04S63.84,62.7,63.84,59.379s3.322-6.04,7.549-6.04m0-6.04C63.84,47.3,57.8,52.736,57.8,59.379s6.04,12.079,13.589,12.079,13.589-5.436,13.589-12.079S78.637,47.3,71.389,47.3Z" transform="translate(-57.8 -47.3)" fill="#33364f" />
      </g>
      <path d="M59.757,252.885a9.565,9.565,0,0,1-9.663,8.757h-.906l-31.406-3.02h0A9.2,9.2,0,0,1,11.138,255a9.559,9.559,0,0,1-1.812-7.55l5.134-29.9a10.014,10.014,0,0,1,9.663-8.153h1.812a9.731,9.731,0,0,1,7.851,11.475L30.465,240.5,51.3,242.618h.6C56.435,243.222,60.059,247.751,59.757,252.885Z" transform="translate(-5.514 388.519)" opacity="0.122" />
      <path d="M67.73,210.642a9.2,9.2,0,0,0-6.644-3.624h0L29.681,204.3h-.906a9.618,9.618,0,0,0-9.663,9.059,10.16,10.16,0,0,0,8.455,10.569h.6l21.139,1.812-3.322,19.629a9.645,9.645,0,0,0,8.153,11.173h1.51a9.728,9.728,0,0,0,9.663-8.153l4.832-30.2A11.856,11.856,0,0,0,67.73,210.642Zm-41.673.6a1.569,1.569,0,0,1,1.208-.6,1.569,1.569,0,0,0-1.208.6,1.661,1.661,0,0,0-.906,1.51A2.567,2.567,0,0,1,26.057,211.246Z" transform="translate(14.597 378.218)" opacity="0.122" />
      <g transform="translate(0 590.671)">
        <path d="M47.122,254.5h-.6l-31.406-3.02a7.847,7.847,0,0,1-4.832-2.718,6.313,6.313,0,0,1-1.208-5.134l5.134-29.9A6.791,6.791,0,0,1,20.85,208h1.208a6.825,6.825,0,0,1,5.436,7.851L23.568,238.8l24.158,2.416a6.873,6.873,0,0,1,6.04,7.247C53.766,251.787,50.746,254.5,47.122,254.5Z" transform="translate(-5.864 -204.98)" fill="#f4d152" />
        <path d="M23.226,213.04h.6a3.7,3.7,0,0,1,3.02,4.228l-4.53,25.97,27.48,2.718a3.647,3.647,0,0,1,3.322,3.926A3.86,3.86,0,0,1,49.5,253.2h-.3l-31.406-3.02h0a3.079,3.079,0,0,1-2.416-1.51,3.511,3.511,0,0,1-.6-3.02l5.134-29.9c-.3-1.51,1.51-2.718,3.322-2.718m0-6.04a9.728,9.728,0,0,0-9.663,8.153l-5.436,29.9a9.92,9.92,0,0,0,8.455,11.475h0l31.406,3.02h.906a9.584,9.584,0,0,0,9.663-8.757c.6-5.134-3.02-9.663-8.455-10.569h-.6L28.661,238.1l3.322-19.629A9.652,9.652,0,0,0,24.131,207.3c0-.3-.6-.3-.906-.3Z" transform="translate(-7.937 -207)" fill="#33364f" />
      </g>
      <g transform="translate(31.879 573.458)">
        <path d="M52.937,248.5H51.729a7.159,7.159,0,0,1-4.53-2.718,7.68,7.68,0,0,1-1.208-5.134l3.624-22.95-24.158-2.114c-3.926-.6-6.342-3.624-6.04-7.247a6.584,6.584,0,0,1,6.644-6.04h.6l31.406,2.718a7.847,7.847,0,0,1,4.832,2.718,6.313,6.313,0,0,1,1.208,5.134l-4.832,30.2A6.256,6.256,0,0,1,52.937,248.5Z" transform="translate(-16.682 -199.28)" fill="#f4d152" />
        <path d="M28.175,207.34h.3l31.406,2.718h0a3.079,3.079,0,0,1,2.416,1.51,3.511,3.511,0,0,1,.6,3.02l-4.832,30.2a3.587,3.587,0,0,1-3.624,3.02h-.6a3.546,3.546,0,0,1-3.02-4.228l4.228-25.97-27.48-2.416a3.647,3.647,0,0,1-3.322-3.926c.3-2.416,1.812-3.926,3.926-3.926m0-6.04h0a9.618,9.618,0,0,0-9.663,9.059,10.16,10.16,0,0,0,8.455,10.569h.6l21.139,1.812-3.322,19.629a9.645,9.645,0,0,0,8.153,11.173h1.51a9.728,9.728,0,0,0,9.663-8.153l4.832-30.2a10.914,10.914,0,0,0-1.812-7.55,9.2,9.2,0,0,0-6.644-3.624h0L29.081,201.3Z" transform="translate(-18.494 -201.3)" fill="#33364f" />
      </g>
      <path d="M273.257,70.285a9.565,9.565,0,0,1-9.663,8.757h-.906l-31.406-3.02h0a9.2,9.2,0,0,1-6.644-3.624,9.559,9.559,0,0,1-1.812-7.549l5.134-29.9a10.014,10.014,0,0,1,9.663-8.153h1.812a9.731,9.731,0,0,1,7.852,11.475L243.965,57.9,264.8,60.018h.6A9.2,9.2,0,0,1,273.257,70.285Z" transform="translate(425.706 20.309)" opacity="0.122" />
      <path d="M291.53,20.542a9.2,9.2,0,0,0-6.644-3.624h0L253.481,14.2h-.906a9.618,9.618,0,0,0-9.663,9.059,10.16,10.16,0,0,0,8.455,10.569h.6l21.139,1.812-3.322,19.629a9.645,9.645,0,0,0,8.153,11.173h1.51a9.728,9.728,0,0,0,9.663-8.153l4.832-30.2A11.856,11.856,0,0,0,291.53,20.542Zm-41.673.6a1.569,1.569,0,0,1,1.208-.6,2.29,2.29,0,0,0-1.208.6,1.661,1.661,0,0,0-.906,1.51A2.568,2.568,0,0,1,249.857,21.146Z" transform="translate(466.62 -5.141)" opacity="0.122" />
      <g transform="translate(684.071 24.762)" opacity="0.122">
        <path d="M259.829,66.169a3.321,3.321,0,0,1-3.02-1.812L236.878,26.61a3.579,3.579,0,1,1,6.342-3.322l19.931,37.747a3.519,3.519,0,0,1-1.51,4.832A3.83,3.83,0,0,1,259.829,66.169Z" transform="translate(-230.442 -15.437)" />
        <path d="M243.925,25.44a3.321,3.321,0,0,1,3.02,1.812L266.875,65a3.519,3.519,0,0,1-1.51,4.832,3.284,3.284,0,0,1-1.51.3,3.321,3.321,0,0,1-3.02-1.812L240.9,30.573a3.519,3.519,0,0,1,1.51-4.832,13.077,13.077,0,0,1,1.51-.3m0-6.04a8.522,8.522,0,0,0-4.53,1.208,9.575,9.575,0,0,0-4.53,5.738,9.971,9.971,0,0,0,.6,7.248L255.4,71.34a9.554,9.554,0,0,0,8.455,5.134,8.522,8.522,0,0,0,4.53-1.208,9.725,9.725,0,0,0,3.926-12.985L252.38,24.534a9.922,9.922,0,0,0-8.455-5.134Z" transform="translate(-234.469 -19.4)" />
      </g>
      <g transform="translate(645.021 39.861)">
        <path d="M260.722,71.9h-.6l-31.406-3.02a7.847,7.847,0,0,1-4.832-2.718,6.312,6.312,0,0,1-1.208-5.134l5.134-29.9A6.791,6.791,0,0,1,234.45,25.4h1.208a6.825,6.825,0,0,1,5.436,7.851L237.168,56.2l24.158,2.416a6.873,6.873,0,0,1,6.04,7.248A6.6,6.6,0,0,1,260.722,71.9Z" transform="translate(-219.464 -22.38)" fill="#f4d152" />
        <path d="M236.524,30.44h.6a3.7,3.7,0,0,1,3.02,4.228l-4.53,25.97,27.48,2.718a3.647,3.647,0,0,1,3.322,3.926A3.86,3.86,0,0,1,262.8,70.6h-.3l-31.406-3.02h0a3.079,3.079,0,0,1-2.416-1.51,3.511,3.511,0,0,1-.6-3.02l5.134-29.9c0-1.51,1.51-2.718,3.322-2.718m0-6.04h0a9.728,9.728,0,0,0-9.663,8.153l-5.134,29.9a9.92,9.92,0,0,0,8.455,11.475h0l31.406,3.02h.906a9.584,9.584,0,0,0,9.663-8.757c.6-5.134-3.02-9.663-8.455-10.569h-.6L242.261,55.5l3.322-19.629A9.652,9.652,0,0,0,237.731,24.7c0-.3-.6-.3-1.208-.3Z" transform="translate(-221.537 -24.4)" fill="#33364f" />
      </g>
      <g transform="translate(707.703 0)">
        <path d="M276.737,58.4h-1.208a7.1,7.1,0,0,1-5.738-7.851l3.624-22.95-24.158-2.114c-3.926-.6-6.342-3.624-6.04-7.248a6.584,6.584,0,0,1,6.644-6.04h.6l31.406,2.718a7.847,7.847,0,0,1,4.832,2.718,6.313,6.313,0,0,1,1.208,5.134l-4.832,29.9A6.272,6.272,0,0,1,276.737,58.4Z" transform="translate(-240.482 -9.18)" fill="#f4d152" />
        <path d="M251.975,17.24h.3l31.406,2.718h0a3.079,3.079,0,0,1,2.416,1.51,3.512,3.512,0,0,1,.6,3.02l-4.832,30.2a3.587,3.587,0,0,1-3.624,3.02h-.6a3.546,3.546,0,0,1-3.02-4.228l4.228-25.97-27.48-2.416a3.647,3.647,0,0,1-3.322-3.926,4.2,4.2,0,0,1,3.926-3.926m0-6.04h0a9.618,9.618,0,0,0-9.663,9.059,10.16,10.16,0,0,0,8.455,10.569h.6l21.139,1.812-3.322,19.629a9.645,9.645,0,0,0,8.153,11.173h1.51a9.728,9.728,0,0,0,9.663-8.153l4.832-30.2a10.914,10.914,0,0,0-1.812-7.549,9.2,9.2,0,0,0-6.644-3.624h0L253.485,11.2Z" transform="translate(-242.294 -11.2)" fill="#33364f" />
      </g>
      <path d="M2.023,126.738a3.02,3.02,0,0,1-1.73-5.5L174.837-.457A3.02,3.02,0,0,1,178.291,4.5L3.747,126.195A3.006,3.006,0,0,1,2.023,126.738Z" transform="translate(493.409 175.644)" fill="#ccc" />
      <path d="M3.034,43.8a4.53,4.53,0,0,1-2.6-8.245L52.379-.685a4.53,4.53,0,1,1,5.184,7.43L5.622,42.982A4.509,4.509,0,0,1,3.034,43.8Z" transform="translate(541.925 309.513)" fill="#33364f" />
      <path d="M3.034,43.8a4.53,4.53,0,0,1-2.6-8.245L52.379-.685a4.53,4.53,0,1,1,5.184,7.43L5.622,42.982A4.509,4.509,0,0,1,3.034,43.8Z" transform="translate(333.561 96.321)" fill="#33364f" />
      <path d="M3.034,52.857a4.53,4.53,0,0,1-2.6-8.239L65.054-.679a4.53,4.53,0,1,1,5.2,7.418L5.63,52.036A4.509,4.509,0,0,1,3.034,52.857Z" transform="translate(565.177 322.178)" fill="#33364f" />
      <path d="M3.034,67.956a4.53,4.53,0,0,1-2.6-8.242L86.8-.682a4.53,4.53,0,1,1,5.192,7.424L5.626,67.138A4.509,4.509,0,0,1,3.034,67.956Z" transform="translate(519.578 261.837)" fill="#33364f" />
      <g transform="translate(683.998 17.515)">
        <path d="M261.931,68.633a6.474,6.474,0,0,1-5.738-3.322L236.263,27.563a6.241,6.241,0,0,1,2.718-8.757A5.826,5.826,0,0,1,242,17.9a6.475,6.475,0,0,1,5.738,3.322l19.931,37.747a6.171,6.171,0,0,1-2.718,8.757A3.65,3.65,0,0,1,261.931,68.633Z" transform="translate(-232.472 -15.182)" fill="#f4d152" />
        <path d="M243.974,23.04a3.321,3.321,0,0,1,3.02,1.812L266.924,62.6a3.519,3.519,0,0,1-1.51,4.832,3.284,3.284,0,0,1-1.51.3,3.321,3.321,0,0,1-3.02-1.812L240.954,28.173a3.519,3.519,0,0,1,1.51-4.832,2.263,2.263,0,0,1,1.51-.3m0-6.04a8.522,8.522,0,0,0-4.53,1.208,9.725,9.725,0,0,0-3.926,12.985L255.449,68.94a9.554,9.554,0,0,0,8.455,5.134,8.522,8.522,0,0,0,4.53-1.208,9.725,9.725,0,0,0,3.926-12.985L252.429,22.134A9.337,9.337,0,0,0,243.974,17Z" transform="translate(-234.445 -17)" fill="#33364f" />
      </g>
    </g>
    <g transform="translate(173.599 24.044)">
      <path d="M140.51,88.641a10.72,10.72,0,0,1-5.436,6.04,47.467,47.467,0,0,1-20.535,4.53A51.675,51.675,0,0,1,78.3,84.414,51.777,51.777,0,0,1,68.336,27.34,10.759,10.759,0,0,1,78,21.3a12.117,12.117,0,0,1,4.53.906,10.719,10.719,0,0,1,5.436,6.04,10.9,10.9,0,0,1-.3,8.153C82.831,47.27,85.247,61.161,93.4,69.617a30.9,30.9,0,0,0,33.218,6.04,10.658,10.658,0,0,1,4.228-.906,10.528,10.528,0,0,1,9.663,6.342A9.376,9.376,0,0,1,140.51,88.641Z" transform="translate(-60.777 14.938)" opacity="0.122" />
      <g transform="translate(35.738 8.455)" opacity="0.122">
        <path d="M149.73,85.179a10.367,10.367,0,0,1-9.361,5.738,9.562,9.562,0,0,1-4.832-1.208,10.72,10.72,0,0,1-5.436-6.04,10.963,10.963,0,0,1,.6-8.153c5.436-10.871,2.718-25.668-5.738-34.124-5.134-5.134-12.683-7.851-20.837-7.851a29.169,29.169,0,0,0-13.589,3.322,9.926,9.926,0,0,1-5.134,1.208,10.665,10.665,0,0,1-9.361-5.436,9.671,9.671,0,0,1-.906-8.153,11.839,11.839,0,0,1,5.134-6.342,49.978,49.978,0,0,1,23.856-6.04,51.909,51.909,0,0,1,35.332,13.891C155.165,41.392,159.393,66.154,149.73,85.179Z" transform="translate(-74.631 -12.1)" />
      </g>
      <g transform="translate(0 27.782)">
        <path d="M111.511,91.169A48.434,48.434,0,0,1,77.388,77.278C63.8,63.387,59.873,41.343,68.026,23.828A7.364,7.364,0,0,1,74.972,19.6a8.934,8.934,0,0,1,3.02.6,7.668,7.668,0,0,1,3.926,4.228,7.58,7.58,0,0,1-.3,5.738C76.18,41.946,78.9,57.347,87.957,66.709c5.738,6.04,14.5,9.361,23.554,9.361A31.274,31.274,0,0,0,124.5,73.352a10.729,10.729,0,0,1,3.02-.6,7.6,7.6,0,0,1,3.322,14.5A52.58,52.58,0,0,1,111.511,91.169Z" transform="translate(-60.769 -16.278)" fill="#f4d152" />
        <path d="M77,24.54a3.83,3.83,0,0,1,1.812.3,4.216,4.216,0,0,1,2.114,6.04c-6.04,12.985-3.02,29.9,6.946,39.861A36.839,36.839,0,0,0,113.539,81.01a33.343,33.343,0,0,0,14.193-3.02,3.83,3.83,0,0,1,1.812-.3,4.555,4.555,0,0,1,4.228,2.718,4.809,4.809,0,0,1-2.114,6.04,41.673,41.673,0,0,1-18.119,3.926,45.489,45.489,0,0,1-32.01-12.985,44.779,44.779,0,0,1-8.757-50.129A4.275,4.275,0,0,1,77,24.54m0-6.04a10.759,10.759,0,0,0-9.663,6.04c-8.757,18.723-4.53,42.277,9.965,57.074a51.675,51.675,0,0,0,36.238,14.8,47.467,47.467,0,0,0,20.535-4.53,9.779,9.779,0,0,0,5.436-6.04,10.9,10.9,0,0,0-.3-8.153,11.042,11.042,0,0,0-9.663-6.342,9.645,9.645,0,0,0-4.228.906,30.394,30.394,0,0,1-11.777,2.416A31.742,31.742,0,0,1,92.1,66.213,30.032,30.032,0,0,1,86.361,33a10.843,10.843,0,0,0,.3-8.153,10.72,10.72,0,0,0-5.436-6.04c-1.208,0-2.718-.3-4.228-.3Z" transform="translate(-62.797 -18.5)" fill="#33364f" />
      </g>
      <g transform="translate(36.04)">
        <path d="M138.016,82.977a6.087,6.087,0,0,1-3.322-.906,8.906,8.906,0,0,1-3.926-4.228,7.58,7.58,0,0,1,.3-5.738c6.04-12.079,3.322-28.386-6.342-37.747A33.612,33.612,0,0,0,102.08,25.6a31.861,31.861,0,0,0-15.1,3.624,8.041,8.041,0,0,1-3.624.906A7.5,7.5,0,0,1,76.714,26.2a7.612,7.612,0,0,1,3.02-10.267A47.566,47.566,0,0,1,102.382,10.2,49.239,49.239,0,0,1,135.6,23.185c14.5,13.891,18.421,37.143,9.361,55.262C143.452,81.165,141.036,82.977,138.016,82.977Z" transform="translate(-72.581 -7.482)" fill="#f4d152" />
        <path d="M104.231,15.34a45.7,45.7,0,0,1,31.1,12.079c13.589,12.985,17.515,35.03,8.757,51.94a4.712,4.712,0,0,1-3.926,2.416,5.6,5.6,0,0,1-2.114-.6,4.923,4.923,0,0,1-2.114-6.04c6.644-13.287,3.624-30.8-6.946-41.069A35.979,35.979,0,0,0,104.231,24.4a32.411,32.411,0,0,0-16.609,4.228,5.6,5.6,0,0,1-2.114.6,4.712,4.712,0,0,1-3.926-2.416,4.5,4.5,0,0,1,1.812-6.04,39.135,39.135,0,0,1,20.837-5.436m0-6.04h0a49.109,49.109,0,0,0-23.856,6.04,11.839,11.839,0,0,0-5.134,6.342,9.788,9.788,0,0,0,.906,8.153,10.665,10.665,0,0,0,9.361,5.436,14.226,14.226,0,0,0,5.134-1.208,29.169,29.169,0,0,1,13.589-3.322,30.386,30.386,0,0,1,20.535,7.851c8.757,8.455,11.173,23.252,5.738,34.124a10.856,10.856,0,0,0-.6,8.153,9.779,9.779,0,0,0,5.436,6.04,12.661,12.661,0,0,0,4.832,1.208,10.367,10.367,0,0,0,9.361-5.738c9.663-19.327,5.436-44.089-9.965-58.886C130.5,14.132,117.518,9.3,104.231,9.3Z" transform="translate(-74.731 -9.3)" fill="#33364f" />
      </g>
    </g>
    <g transform="translate(579.844 224.056)">
      <g>
        <path d="M203.289,81.64l15.1,6.342-11.173,8.455-3.926-14.8m0-6.04a6.36,6.36,0,0,0-3.926,1.51,5.793,5.793,0,0,0-1.812,6.04l3.926,14.8a6.113,6.113,0,0,0,3.926,4.228,4.477,4.477,0,0,0,2.114.3,5.8,5.8,0,0,0,3.624-1.208l11.173-8.455a5.56,5.56,0,0,0,2.416-5.436,6,6,0,0,0-3.624-4.832l-15.1-6.342a4.488,4.488,0,0,0-2.718-.6Z" transform="translate(-197.325 -75.6)" fill="#33364f" />
      </g>
    </g>
    <g transform="translate(22.924 254.191)">
      <g transform="translate(0 7.851)" opacity="0.122">
        <g>
          <g>
            <path d="M68.464,135.536a14.7,14.7,0,0,0-3.624.3L53.365,124.362a26.6,26.6,0,0,0,.6-5.134c0-10.871-9.059-19.629-20.535-19.629-11.173,0-20.535,8.757-20.535,19.629s9.059,19.629,20.535,19.629a17.219,17.219,0,0,0,3.926-.3l11.173,11.173a17.1,17.1,0,0,0-.906,5.436c0,10.871,9.059,19.629,20.535,19.629,11.173,0,20.535-8.757,20.535-19.629C89,144.293,79.939,135.536,68.464,135.536Z" transform="translate(-12.9 -65.174)" />
            <path d="M102.933,116.586h-1.812L76.359,91.522A10.292,10.292,0,0,0,68.809,88.2a9.231,9.231,0,0,0-6.04,2.114L50.086,99.071l-.906-1.208a10.966,10.966,0,0,0-7.851-3.322,5.887,5.887,0,0,0-2.416.3,10.606,10.606,0,0,0-7.549,7.549L26.834,119A10.814,10.814,0,0,0,37.1,132.591h1.208l18.421-1.812a10.566,10.566,0,0,0,8.455-15.7l3.02-2.114,16,16.609A17.717,17.717,0,0,0,83,136.517c0,10.871,9.059,19.629,20.535,19.629s20.535-8.757,20.535-19.629A21.388,21.388,0,0,0,102.933,116.586Z" transform="translate(14.537 -88.2)" />
          </g>
        </g>
      </g>
      <g>
        <g transform="translate(0 34.728)">
          <g transform="translate(2.718 2.718)">
            <path d="M66.344,166.851c-9.663,0-17.515-7.549-17.515-16.609a13.52,13.52,0,0,1,1.208-6.04L36.448,130.614a14.127,14.127,0,0,1-5.134.6c-9.663,0-17.515-7.549-17.515-16.609S21.651,98,31.315,98s17.515,7.549,17.515,16.609a12.255,12.255,0,0,1-1.208,5.738l13.891,13.891a23.31,23.31,0,0,1,4.53-.6c9.663,0,17.515,7.549,17.515,16.609A16.892,16.892,0,0,1,66.344,166.851Zm0-17.817c-1.208,0-2.416.6-2.416,1.51s.906,1.51,2.416,1.51c1.208,0,2.416-.6,2.416-1.51S67.854,149.035,66.344,149.035ZM31.617,113.4c-1.208,0-2.416.6-2.416,1.51,0,.6.906,1.51,2.416,1.51s2.416-.906,2.416-1.51S33.127,113.4,31.617,113.4Z" transform="translate(-13.8 -98)" fill="#f4d152" />
          </g>
          <g>
            <path d="M33.435,103.14c7.851,0,14.5,6.04,14.5,13.589a11.164,11.164,0,0,1-1.812,6.342h0l16.609,16.609a15.794,15.794,0,0,1,5.436-.906c7.851,0,14.5,6.04,14.5,13.589s-6.342,13.589-14.5,13.589c-7.851,0-14.5-6.04-14.5-13.589a12.175,12.175,0,0,1,1.812-6.644L39.172,129.11a17.659,17.659,0,0,1-5.738,1.208c-7.851,0-14.5-6.04-14.5-13.589a14.331,14.331,0,0,1,14.5-13.589m0,17.817c3.02,0,5.436-2.114,5.436-4.53s-2.416-4.53-5.436-4.53S28,114.011,28,116.427s2.718,4.53,5.436,4.53M68.162,156.59c3.02,0,5.436-2.114,5.436-4.53s-2.416-4.53-5.436-4.53-5.436,2.114-5.436,4.53,2.718,4.53,5.436,4.53M33.435,97.1c-11.173,0-20.535,8.757-20.535,19.629s9.059,19.629,20.535,19.629a15.953,15.953,0,0,0,3.926-.3l10.871,11.173a17.1,17.1,0,0,0-.906,5.436c0,10.871,9.059,19.629,20.535,19.629,11.173,0,20.535-8.757,20.535-19.629s-9.059-19.629-20.535-19.629a14.7,14.7,0,0,0-3.624.3L52.761,121.862a14.127,14.127,0,0,0,.6-5.134c.6-10.871-8.455-19.629-19.931-19.629Z" transform="translate(-12.9 -97.1)" fill="#33364f" />
          </g>
        </g>
        <g transform="translate(41.273)">
          <g>
            <path d="M101.036,148.1c-9.663,0-17.515-7.549-17.515-16.609a16.372,16.372,0,0,1,1.812-7.549L66.006,104.015l-7.851,5.436.906.906a7.5,7.5,0,0,1,1.51,7.851,7.213,7.213,0,0,1-6.342,4.832l-18.421,1.812H34.9a7.437,7.437,0,0,1-5.738-2.718,8.086,8.086,0,0,1-1.51-6.946l4.53-16.609c.6-2.718,2.718-4.53,5.436-5.436.6,0,1.208-.3,1.812-.3a7.072,7.072,0,0,1,5.436,2.416l2.718,3.02,14.8-10.267A7.215,7.215,0,0,1,66.61,86.5a7.562,7.562,0,0,1,5.436,2.416l25.668,26.272a9.31,9.31,0,0,1,3.02-.3c9.663,0,17.515,7.549,17.515,16.609C118.551,140.554,110.7,148.1,101.036,148.1Zm0-17.817c-1.208,0-2.416.906-2.416,1.51s.906,1.51,2.416,1.51c1.208,0,2.416-.6,2.416-1.51S102.546,130.287,101.036,130.287Z" transform="translate(-24.839 -83.782)" fill="#f4d152" />
            <path d="M68.943,91.64a4.849,4.849,0,0,1,3.322,1.51l26.876,27.48a7.66,7.66,0,0,1,3.624-.6c7.851,0,14.5,6.04,14.5,13.589s-6.342,13.589-14.5,13.589c-7.851,0-14.5-6.04-14.5-13.589a11.827,11.827,0,0,1,2.718-7.851L68.339,101.907l-12.683,9.059,3.02,3.322a4.606,4.606,0,0,1,.906,4.832,5.14,5.14,0,0,1-3.926,3.02l-18.421,1.812h-.3a5.572,5.572,0,0,1-3.624-1.51,5.241,5.241,0,0,1-.906-4.228l4.53-16.609c.3-1.51,1.812-2.718,3.322-3.322h1.208a4.849,4.849,0,0,1,3.322,1.51l4.53,4.832L66.225,92.847a3.689,3.689,0,0,1,2.718-1.208m33.822,46.2c3.02,0,5.436-2.114,5.436-4.53s-2.416-4.53-5.436-4.53-5.436,2.114-5.436,4.53a5.539,5.539,0,0,0,5.436,4.53M68.943,85.6h0a9.231,9.231,0,0,0-6.04,2.114L50.22,96.471l-.906-.906a10.966,10.966,0,0,0-7.851-3.322,5.887,5.887,0,0,0-2.416.3A10.606,10.606,0,0,0,31.5,100.1L26.967,116.7a10.3,10.3,0,0,0,2.114,9.663,11.1,11.1,0,0,0,8.153,3.926h1.208l18.421-1.812a9.84,9.84,0,0,0,8.757-6.644,9.674,9.674,0,0,0-.906-9.059l3.02-2.114,16.307,16.609a17.717,17.717,0,0,0-1.208,6.946c0,10.871,9.059,19.629,20.535,19.629,11.173,0,20.535-8.757,20.535-19.629s-9.059-19.629-20.535-19.629h-1.812L76.794,89.526A10.432,10.432,0,0,0,68.943,85.6Z" transform="translate(-26.568 -85.6)" fill="#33364f" />
          </g>
        </g>
      </g>
    </g>
  </g>
</svg>